<mxfile host="Electron" agent="Mozilla/5.0 (X11; Linux x86_64) AppleWebKit/537.36 (KHTML, like Gecko) draw.io/27.0.9 Chrome/134.0.6998.205 Electron/35.4.0 Safari/537.36" version="27.0.9">
  <diagram name="Page-1" id="aUNbNJbJs4ebo3rHhycX">
    <mxGraphModel dx="1864" dy="1340" grid="1" gridSize="10" guides="1" tooltips="1" connect="1" arrows="1" fold="1" page="1" pageScale="1" pageWidth="827" pageHeight="1169" math="0" shadow="0">
      <root>
        <mxCell id="0" />
        <mxCell id="1" parent="0" />
        <mxCell id="VK70cnVyTzxQujreM_1K-3" value="Series, indexable, typÃ©e avec Numpy" style="rounded=1;whiteSpace=wrap;html=1;fillColor=none;fontColor=#FF00FF;strokeColor=#FF00FF;strokeWidth=3;" vertex="1" parent="1">
          <mxGeometry x="10" y="20" width="1360" height="540" as="geometry" />
        </mxCell>
        <mxCell id="VK70cnVyTzxQujreM_1K-1" value="Dataframe, ensemble de Series" style="shape=image;aspect=fixed;image=data:image/png,iVBORw0KGgoAAAANSUhEUgAABVIAAAIoCAYAAACLXRBXAAAABHNCSVQICAgIfAhkiAAAABl0RVh0U29mdHdhcmUAZ25vbWUtc2NyZWVuc2hvdO8Dvz4AAAAodEVYdENyZWF0aW9uIFRpbWUAbWFyLiAxMCBqdWluIDIwMjUgMTM6NDQ6MTLVvsFLAAAgAElEQVR4nOzdd3QVV5bo/2/doCwhESSSCBIChARC5CCCjXPGgWCSbWgbNx53v5ler6ffrJnfhDevZ2a96ZnntulsG4duB9o4tXE2OZggMFkEgQRICOV0c9XvDwks3ToXlZCEAvuz1qzVU65wzj67ztn36EpoGRkZRnh4OB6Ph5bZSZy+imennub3L33JBV/T/2YjMnE0sxcuI6fkZf7l7ZN4m/5n53hW/Z9J7P1fv+dA43X21IX88yNl/OL/fkmZ3nD/EQv+mYfLf8EvDk7kb1ZH8Mb//pCL/e/lrxekgPM4637xBeVDHuHv7rnIL361E8/Ix/mnhfDur9Zz8LIXI0TLJ+fMpXe/RHZt+pKqinIAeiX0Ztrc2yi/XMKebZss9L95f3uNuoO7RxXxxV8OUhZo+t80wuIHk5lzC+mVX/L2tov4m4VxOHcsT+Pka5+T33idrX8Oj8+o4cMNB6k2Gu4/IOdxptd8yPv5qcy/O4xN7+ymPGEyD85MAsd5vn7/ADX9ZrBgUjkfbDyOb+BsFs/S2PHJdvKr/epY2OIYfcddpNv9hPkPs/HzvMbnqWj0nbqQ2Z5P2HCguvn9tHgmPHwHtm/eZW+5+Qa2ATk8Pq2G998/SG2T/3ytfm443Ifbl6WS9/qXFPa30BchhBBCCCGEEEII0WaasxcDU0eQMiAG76VTHDt5gWp9IBPn9ObsN4cpU27MaPTOmEtq5Tb2FPczn2tLIvvWgVz8OpeSXmOYO8rFrt35uEJs8mh9MrllVD27dp6hPugcLT6d2WN97N96ihrHICbPiuf0piOUG4DWh8xbhlG+eR8XUbS5STsu6VfafQvp7l3sOJfApFbcy2Y9pDb6TnmKZ3OKeOM3XwVtogLouEqO8sXrX1A1cTojHBbu2KsXkRVlVOtXjhiUl1UQE98LvfQIx4zRpPex0Wt0Kq59f+EIoxgdbSMxfQQ1R4/hMsB/4s+8uNHDrOf/hX949l7GxKu7lHfkOwCmzb2NXgm9r26iNv1v1mnEjbyNu8eUs+nT74I2URv64a0sJPebA9SPGM0Au4U7RkcTXltD3dVEMaipqSMyJhKjpoDzDCI5ViNqUH+8p/dQwCAGR2jEJw/AVVCIx4DAhZ18ss/LmPuXsujuSSRHa+YH6bUUFdQRMzCGmoLiZpucrYpA71Gkaac4VaG+gRYVQ3h9jenluFY/m7LUFyGEEEIIIYQQQgjRZoavigvH97F1y7fkG8OYnD2UKNVWjBZJ4sgJzJg1l9mzcxg3MBzNwu6iFh6Bw+vCc419KMPrxRcWTpjiv9nCwwjz+/ABtMMWUX1dPWHh4a2+l+WN1IiRj/DM7VW8tfYjTofaOgZ0Vy0uhwML+6joVZW44vsQd7UVGgl946mtrAKjiAOHIxg7NpnMdJ0jh8/x3bFIMjMGkzkmwOFD1TTsv3oo2vNnfvn//SMvn0xl+RMziVcEoaqinF2bvgQaNlOvbKI2/YaqVWGDZnDn+Hq2btxDsTd0LAyvG4/dhoV9VIy6OjzRsU2SVCMmNhpXrQuMcs6cC2Po0L4MTdYpKLjM2cIwhgzpy5BknXMF9Y3f2PRRfnInH//xj3xxcQC3zEun+f6jRnTqXO4YcZFP3/yMy6PvYu7w6OvIP41eQ5PRCguoCtF9w1WPNzKGyKCbX7OfzbTUFyGEEEIIIYQQQgjRrgIuSvLOUNm7X+P+mobWZD/GOSCdsfHlfLd9E1u2bOPgeXfDnpRhPrcpw+vBHxZB2LX2durKKLclMsD0JUkn/Qb2xXW5DDeAruO3OXGqdjVbaMcV4REReD1ejFbey9pGqjaQeY+lc+SN9zhRF7RzZotnwKA4nAC2KIbNm03yqaNXf2X9WgLndrMnag4PZPfBAYQPvoX7s0rZnVuBjs75fQeJyXmcWY6jHKoOUHTgBPG3PM5UDnCgomEbVYuMJdYB6C6Kz1zAFRlNeIjnNd1MhevbREXrTdaMZAo37eSC2/R1S3r3iWrYONXCSRyXQb+iwsavDV+bfjmPk+GZTE2JxQ44+4xlyvBq8vJrMDAoPZVPxJg5jLEXcrZOpyL/AtHjZjOSM+TXNLRDC4sk0g4YXiqKy/CFRzSMy9X2RdAn5jJbPz3A5fpL7N24nbK4+GsnsZKTxP4xXC6uCPkr9/qlk+RHj2VqalzDproWRphDa6GfAfyEE+Gw0BchhBBCCCGEEEII0Wa26AT6RDsav2hnIyoxiThXLXUBFy49jvgoG2DD4bBhoEHAg7dxr8u4sjNkmM9tyqgs4lL4MEb1v7Jv5sAZ/M1DvZzTx2oYkJ3N8ISIhk1LexT90iaQ0auY4+dqG8+rotLVm4FJEeYvB4ZqhxZOTFTDA+3Rg0kb4KX4Ul2r72Xli6MQMZSUIQNI+eH/ZtqVnTNXLuv+9W2Ohw1ixtIlzEiKwG4LUHFyM+te/5YaK78y7j/HX379EY+t+Gt+vigMw1XI9jdfZUvDH0xFP7+bvcYdjPnu11TqYFzcy+GwOxix9VeNf1NVI3r0Q/xk8TgiDQPDc4Htf3qZkms8u+lmaqs3UQGc/UhKTKD/PUsZdSVXvKf55p1tnHf0YfTcuYyOd2LTdOouHubrTXkh//ZDM4ES9n66h5xbH2TZLCd4Szm2+SuONP4BU6PsBKeMbJLzP6XOAKP8FAX2bAYc2dgYa43wwdOYP3sYYRjgLePY1i+bf2PUcFFw8ND3/6/7AgcPtj4EaHEkxNVRWX2NHeJAEbs/zWXW3IdYPttGwO8mf/Of2XLuGv3UisnLm8qtd2dT+V08t16rL0IIIYQQQgghhBCizRyRiaSkT2BilB10HV/NJU7lnqRKD+A7Wcuk6fMYpgeoPbef3fmnONU/i1nz0tEDOhDgUqkBRgVng8890+Qhejknck+TkTmNWzM0dN1H8aEdHLnc9F8VMnAXHWCXnsKo9BmkxTrRdA9Vl85xYGc+ZVf+zKhRT+GRfHpnz+L2DJ2ADn7XeYoMQrfDFsWAcbMYFulA02u5ePwAZ2oBWncvrXX/2JQQQgghhBBCCCGEEEJ0E6Z/bKoNt2qfFgkhhBBCCCGEEEIIIUTPZe1X+4UQQgghhBBCCCGEEKK70S+R++WldrmVfCNVCCGEEEIIIYQQQgghWiAbqUIIIYQQQgghhBBCCNEC2UgVQgghhBBCCCGEEEKIFshGqhBCCCGEEEIIIYQQQrRANlKFEEIIIYQQQgghhBCiBY4r/yM8PLwz2yGEEEIIIYQQQgghhBBd1tWN1MjIyM5sR7twuVw9oh+dTeLYPiSO7UPi2HEktp1PxkCIrkfey44jsRUdSfJLdCTJr/YhcbyxJN7tIziO8qv9QgghhBBCCCGEEEII0QLZSBVCCCGEEEIIIYQQQogWyEaqEEIIIYQQQgghhBBCtEA2UoUQQgghhBBCCCGEEKIFspEqhBBCCCGEEEIIIYQQLZCNVCGEEEIIIYQQQgghhGiBbKQKIYQQQgghhBBCCCFEC7rERur47GzGZ2d33AMc6dz2wyWkhQf/BzupD64gI1prpwe19/1ap7vF0Z44jrREe7s1r7105ThaiZk9ZT73Tu3D1btoMaTcvor5K3/GYzlJ3Kjs7MpxbMszukLe9ojYKnSF2FrVE8agQ+PdSfOOuLl1/ffyOt/fkM+9cTo8tkB71UGdr3M/D3RHPS6/OnQNlPxqrU7Jry4wb7e3nhBHq+94V1hrulu8u0LMVDoqjo52v2MrDRk6lFvn3Q5AeXk5BefOtf9D/HlsfSUfn6f9b91VdMc42hPHMYITnCwJtM8N20FXj+N1xcyo5cwXv+fskPu5O7n1z7weXT2ObXlGZ+dtj4mtQmfH1qqeMgYdGu9OmHfEza2nvJdd6rmNbkhsLeou64Swrkfml6yBXUan5VcP23/oKXG0+o539lrTHePd2TFT6cg42hMTE//R4XDgdDrb7aZWJST05rEFi3A6nWiaRuqINE7m5eF2u67rfn6/39QPLX4Ctz48n2kzkqnaf4RKAwgbxtTHljB51EDie0VQdfQgl32KGzoHM+HhpcyYOJmRiTUU5pfij8/hgcem0XfQeCZk96PyZD51DsX9jIGMu38BU7ImMrJfDYXnygmortWvq6vNdPU4apGjyXnsEcaPmUD6cI2ikyXET1/BbZOGkZQ8kmEjh6KfP0FZYJC1eNvMsfVfV0+b69pxtJOkjNlgsh9axLTsqYwZWE/Bmcv4E8aQmZFCcuZcxg/zcP7UJbyA1msUab0ucLKwruGWjpsxjuGk3X0fMcXRzFicQVXhACZluSm41MccR9MzQoyBf4C861c4BjDugSXMnDCZUcl+Lp4qxp/6MPekXeLUBS8p9y9ncNF3XLZf75xQTvzsJ7k1fRRpmcMYmJFN7KWjlPhkvr1K8V4z6G7un+Xk7Bkn2QvuJ+bscRyTll93LruHPcwjd4yi3/BpZKUGuHC6BK8z2fQO+VDMO0J0gC7/XqrOM9WJlUROXMEtvU9w5rJO/7krGe8/SKEt2/xcxVzr6cZrujI+BM8p5fS2uAYr+62o6fWUxrksZRpZqToXT1/Cq4ijkaKY81TxtpoP4qoek1+qdxLFGqj6bGn6nFSkfp8lv1qts/KrNDp4vbDRT1W/KpphV803phqrzHI93J3XgbbE0fr+Q/BnafVcUDlovoXPM0W0x35v94u36jNyHu70Zczrd4rTJQGSbnmK8f7vuNh3vqV1tzvkbad+I7WiopwXX/jvDn2GUbmfr/90hqxH5109Zh+cTWLhej7YUU/GgkdDXmsfMoXBF9/lvR21pD30GCnRJziChlZznG83HiZhznJGJNopDTffzz50KkMufcDHu2oZ8cCjpESf4qji2ksX2r5j39XjqPVLI6FoI59sPk94vyTQAlza+Sof1yxlHu+y8XDDlGNPtRjvCHNsj9Qabe5j146jOmZatJ2K3X/kwEWd9EceZUj4UfIALu3ii02lpD60iKHRhzisiI8qR3t+HH3U1EPfpHh0n5343rEEyqsgLNoUx2OmZ4TKW3nXvz9vCsPLPuT990voN2ku/WJsqLbPrn9OOMklXBQf+JawrHgOXRzFlL42jiXIGFw9T/VeX9xEbuZicuZ5CTv1Cfvq/BhtyOVSQC/ew9bN5aQ9/BhDIg5zzGaei4652z6fCGFFl38vFecp68QzZ3DOGI79WDnJSZc5uy2A4Vc9VzHXJnbfNV0VHy1MMadYnLdU/VbV9MeAQNG3bN1SyvAHGuqlY0nm+x3HPOedGKg4L9FaPojv9Zj8UryT1TXmn96q8vBo7+CaSD0/SH61Xmfll2q9QFG/Hi5X16Ut11jHKbVYD3fndaAtcbT6WUP1WVo5F/Qxt9n8DKAdSt/uF+8QsT11Am1eGuFHLzE08RJntwRgqLV1tzvkbaf/an+nsNvR3R4w6nG5dSJCnRcWTqC+HvDhcmlEhwG6gd/jQUendPe7VPkCkKK4X1gUvUfdyW2JAZzRHs7YGt4s07XdmcU46he+JW/0Hdz7eDRa5bds+qRIfaLVeI9Ux7bbspqPKloE/Sc9yEhDJ6afkxN2AAO3y4WBH6/HINoRIj4hcrTbshRHg6pKnbShdioKoe9gO55j/hBxtEje9e85nfjrXRgEuLT3Ky4B9kTzaW2aE64wGv5PAxmDplSxMFycP1zM7EUJ7HqpPPRbbjWOQw08bjcGXnw+jTAHYLThHRKiu7L6XqrOU7xvRuUJLsVMY2DvchJr88gN9ZUM1Vw7uBuv6ar4WF2XrdYyyvXEwOvxYKDj92k4HFrI+5nmPNV5bannRMe5EfmleCfV9zPnoaomckt+dR+tHZem9WuIE1pVY1moh7uFdo6j5c8abfgMaPkZXVG7563iktpjFNrvYUhSPP0qjrMv0HAjq+tuV9epG6kJCb1Zsmw5ERENQ+d2u3nz9deoqCjv2AcHAtjCw0ELEBlhCz1MXje2hCggQESEgc9Ls4jp7jo8gF11P289Zcc28+W3lUQlDcBWp0Os+dr20NXjqMVE4z7wLh+WBBh23+MMjT1AZbWOYRhotib/3pnVeKti2w66ehyBoJjZiB0zk14n3+CzYzZGP7yQhrlfIzwyEo1awsI1/P7GO+o6mtY03jdjHA08lQF6Z9k4ssUgbTac2gmxWao4qpnzVt71q3w+HFGRaNTQb+IcYvI2cdbnxREZiaZ5iIwI4PMZbZsTVGQMvqeKhRbHyEmJnNxRT/qkgeRvu0iA689l8/sRai7CPO8I0QG6/HtptU40LnOuuDdjp8bhObMn9K+2Kebac915TTfFJ/ScYmneUlGuJxoRkVFo1BF+pV5S3a+v6n6K81pRz4kGPSa/FO/kmRpdUXub81BVEx2W/GoXnZNf7e0aNVawHrUOtI21zxrW5wKjFZ9n2qo7xhsU86dRS/4ZJ7fNHU7V7u0EALvVdbcddHQcO/VvpLrdLoqLi0gfk4FhGGx4bz2Xiouv+36qv/9gS76V++6/laEDkhmUMpLenpOcK6giftpDTBrVj+joCKqOHlD+jRmjpobICQ8yY0I2vcu3sS+vFH/EENKS6zl1quxqwhl1bhKC7neprIqoiQ8ydfxEUvpUcvZkMV7Fte2hq8dRcw5i/D0PkDVmPAO1Yxw6VIjLACMQReqt9zI2fSD+cycpK622Fu+aalNs22OTpKvHEYJjlselunBGzr6TkcP70ys2nOpjBymNSSd91FCGZOSQ7N7N/qMNfyMVj0Hf6fczOSuL3q7jFJwtI/KmjGMS6RkOTu6tYsj4KPL35lHhjTDFsay/+RkFZV50U97Ku36FUVtDxIQHmZk9kcHOkxw5UoS7toaw8fczc3wWccVb2H+mnIDjeueEMsKGZhJfdgF7UgQlNX0ZHDjC6bOVMgaNzPPjJbQR9zM1fBubtx3HMeUeBhR/R7HLUMTbWi7bEtIZEX2OkxfcJIwaR9jZA1xQzEWXfZjmncJy+YNuov11+ffSYp3owcClD2ZGTjjHvj5AmS/Ec8+VEh4811Z339rIHJ9cLtar5xQr85aq36qaPpCQzqi0ZJIzv6+XVHH0mea8gxQrnutWjLP8Dctr6zH5pah/PKCovcuJCP6so6iJ6qrMeSj51Xqdk18HFJ8hTlEWk0avoPr1TJm5QrVWY31H3cAMS/Vw910H2hZHa/sP6s/SyrmgvNry55m26o7xBnPMyr06/rooRs+I4sRXh6jUG/LbyrrbHfJWy8jIMMLDw4mMjGyH5l6f8dnZABzIzW3TfVwu13X2w0Zcxn3MHB3f+HVlHxd3vsOBi93rV0Elju1D4tg+JI4dR2Lb+WQMhOh65L3sOJ0fW6usj4E9ZT539dvCJ7vb9wduovV6Yn6JrqNr5lf3yyWJ443VE+Kt9ZrJPbMr+eKjI3jpnHW3o+LYJTZS20vHL543B4lj+5A4tg+JY8eR2HY+GQMhuh55LztOV4qtbKT2PF0pv0TPI/nVPiSON1bnxdtGzMSlTK9/ly+OuYDuve4Gx/Hm/MemhBBCCCGEEDetwJkN/OVMZ7dCCCGE6Il0ave9xhdNjvSkdVf+BQghhBBCCCGEEEIIIYRogWykCiGEEEIIIYQQQgghRAtkI1UIIYQQQgghhBBCCCFaIBupQgghhBBCCCGEEEII0QLZSBVCCCGEEEIIIYQQQogWyEaqEEIIIYQQQgghhBBCtEDLyMgwwsPD0Rxhnd0WIYQQQgghhBBCCCGE6JIcV/6Hu66mM9vRLmJiYqitre3sZnR7Esf2IXFsHxLHjiOx7XwyBkJ0PfJedhyJrehIkl+iI0l+tQ+J440l8W4fwXGUX+0XQgghhBBCCCGEEEKIFshGqhBCCCGEEEIIIYQQQrRANlKFEEIIIYQQQgghhBCiBbKRKoQQQgghhBBCCCGEEC2QjVQhhBBCCCGEEEIIIYRogaOjbqxFZXDLE8uZNMhJ9bEP+PMfN1EakcVtTy0le6CT6sPv8e6ftlAeqTo2jnlPLWPSICcVB9/hnbd3UBmZabrfZV3rqOZfN0OLZ+QDz3DfJB/bfv6f7KnXsI14iMV3jSZMiyYhPp+Pf/4HTpBCztKFjIq14SvcyIYP9lNraBiOVO549i5KX11Lbo1B2PQfsWZONJV1Oo7YJNyb/5639ZWmY6/tcJieC2AYYaQ++j8Yl/cC7x9yKduS5+96cbwRDEcKM5cuZHSsjUDx13ywfgcVzpHMXjKflHANveRL3t+wl2p7iLEKim13YYSNZM6S+aREagQufsaGD/ZTo+h3jSIfVflthKWZY0aCMh/NbTFfW2P0rHxUxswx3JRTNfZUcz4q4qi6n/K5N0FsO4sjazU/vrOct36xgbjHVpPw2YtsLzeu+7ymDMdwZi57nDExOr6SzXz4znbKFblRqZiDrK4/eX4NW+piVi/vzY5/e5EDLg1b2hKefiwFT40Po/YQX77+McXpP+DZe5OoqTfw5L3Hnzcew6uZc0jV5qoRy3hmQQruai8ESjm8/g/s67XEdCy373KeeWgI9TU+0Cs5/sFv2XleV8cmqL+q9fG13f1MbalJf8LSMxyZT/HMA4Nw1WlQ9BnvvrsLl+LaPfFPmM7zTPuxqS2vbzf/C6mOsauUMQ0eD1Xf/lTxiKktO4qHKvLF2pqlGvNCm3ktqEudb8qhMyPNcdkdudh0v/M3aX3R2VRzgSqn3rx0m7k+tY2yXCOYnnsd647VmqTa2b7tClXbWWufuS3Kay2Og2quCDV3B9dl6pgq+muxzY6sVSxK/Jg3Py9j7Io1RH/0IgXZT3N7RhK9+zqpKa3g3De/5LPjA0xzT0UXrDF6dH6prrVYf1ud/5X9VdUaivup5v+ell+quqE6RM0mQlPWvo5pPPxkP7b87iPKGuNnOFPIWbaY0dE6noKNvP9hLjX2VHKWLmBkjIa/4C+s/+ggHkUNmpu00lJNK25OVj9fN9Uh30g1DI3e0+8ny/0Jv/7XP1A48F5mpocRPfE2xtS8z9p//BX5A25jQrJTeSx+2t2M9Wzkt//+LuUj72TCILvpfjljwjqi6W3mzLiLbP8m9hUErh7TT73PG7/8b746XUrBV59wygfO0XMYUb6eV19cy4m+s8mItWEYGtFZt5NyeQeHqxs+5Om1xZz49L95+YUX2XPxIoX59cpjqucC2BJmMjnxBLuO1Idsy80qauKdpF58jVdffIHcqDlMGerEmXkLwy++yWu/eomDMTlk9bUpxwrMse0uwrPmMfT8Otb9ai3H+8wlK8Gm7LcqH1V5poxZiHwMprq2p1HGTJFTynxUXSux7QIC1DkGMCKppUXW6nnfcw6fSVrVe7z6wn+zl/Gk91PnBpjnIKvrj2FoxCTHU3lBY0Cy88qZlO9/nXUv/JxXX/lL4wcgnYrcV1n3yz9QMPRWMqKttxl0ag69xboXfs4ra3/PnhIjxDGDiv3rGo699OuQm6iq/irXQmVbrD5Dp2Lfy7zywgsc7jWDzF6hrjWfp2pLyGcExVQ1Hur7mdui6q/1Ncs85qp5Q103qONiziHRGZRzgaqeVIyt1RpB+dzrWHesPq+92xXqPbHSPtWxtoyDSqi5O7gus9pfq20OpmkBLny9lld+/Qn5F3bw3ov/weeH3SHm2q6nJ+eXss0Wa0Sr87+yv8pnXN/8393zS1UPhKrZRGhWx9uZlkNK6du88uJL5PWbRXqMrfHYO6x76dd8FzaahnCra1ArNa24OVmfO7/XQbOSnfjecVQVnqCmLo/CEgeRsQ6ioiNxlxVR7ymktCaCqFhMx6LjoGrn7/j9m1spq63C5dOw2RzK+3VFvuPrWf/JUdxBPyS2j3yEe8dUc/R4KbqmodfXEwiLwmGPJsLmpt6ng30wU2Ymkr/rEL7Gn5D4D73NJwfqIXo8aZEnOVYcUB5TPdcwHAzMmYy+bxOXAqHbcjMyDBtxCZFUF5UQ0Ou4dMlNeDQ4IsPxVJeh46amWic8Uj1WoWLbHXj3/IrXvyhGxwaGga6r+63KR1Weqa4N9R4EUz63h1HFIjin6rwo81F1rcS2KzCovuCh7+gkrkTViEhn7sq/5Yk1f8eTi2aQoBnK81oUEUagrpoA9Rx5ey3bL2nK3FDNQVbXH3CS3D/AqX3VxCT3RTMaLtBsIVqpl1NVF0Z0dIiSIajNO0paSM7roOqvai1sn7ZE4NRrqfOE3qgIPk/ZlmtpFlPzeFi+n6K/rVmzgsc81LxhtW4ImUPihlLNBaFyKnhsLdcICtez7lh9Xnu3S1mHW2yf6lhbx8GWspDV//As4yK/P9n03inqMtW1VuPXJjdg3m8PPTm/VOeFqgNU+WV1/g++NtQz2nX+7yb59b2GeqDWra7nRQusjndEBEZdDYbuot5tJzwC9NpabIPGMbRXLQfXv8Nxbwt52FJNK25KVj9fN9VBGRSgoryauMFpxEaNYHC/corOehr+U/QMFj7/MP010K58tAw6prsqqK6D/rPuIc17mKPnPeb7nfN0TNPbSPP7CSgWPOPyt2zb7WPykocZ4jAIFOwiv98iVv/kOdJLd3KyHpypcxnb107i3B/y6D3jidW+H8mozLFE5e/jcpMPQE2PKZ8bPYmpwwrYkxtO9vz7GeIwlG25GWmaTnWZi4RhQ3DaEhiSVMf5Kz+BCJ/MA0/eyZUfAKvGKlRsu5PItHvJ1HM5UtWYOEH9VuVjqPwOvjbkeSpB1/Y0qlgE59QplzofVddKbLsGvTgP94BMrtRhtkgbZVt+w7q1L3E0bjJpMTblea0Vcq5SzEFW1x+cQxjgLKEg7yyBpBScAD434aMWsfz5n7H4vvHEaG2d02zEZC5k+ZqfsmL5HfS3GSGOacRnL2fZmp+y4pmHSQ01l15jzlWtj81ZfAY2ErKWsfz55xhTvpPj9aGuVZ1ntS0KqvFQ3s9aPyyvWaHGXDFvmOsGRVvaPYfE9brWOhGco6FqwpZqhJCuc92x+rz2alNSNjYAACAASURBVJfyPWlN+0Ica6o14xAo2Mxn6z/llPv7c4LHJtTnBNW1luN3k+iJ+aU6L1TOmXKkFfN/8LXKZ9y083/zeuBEiHpedJxAwUa+Otqb2U//Ez9YMJ14LVS9KURorfp83ahDvtapaQYVOz7kYNpSVv4slrCij/lNUYCw8UD9t3z0ahnpi8cxkMakbnJsEAaGoRE1ZjHzZ2nsfeV9LugaWtD9flsUAOvf8el0RuVJvttyDnvqGgZF2SjPuI+U0y+x9osaxixdxbTBhzmaOoDKb9by5qY60hf9kBnDD/PZGT+GEcPI9BjOfXnh6jdBVMeaPc/QiJs4hagjb3EuEMGwxL5c+VMPTdsyOMZGQeXNObnU537IwfmPsODpeGIrPuCVar3hJwuevWx8I0Dyfc8Qr0PsZPNY7UtRx7a70OKnc89dceS+sYVqQyMCTP3uHSIflZpcm9DadGrLtd2QYWimnJqefJivFflIW78xfpPF9kbS/Kc4672H0dFQBKBFM3DmUtJnBIjp6+SYPcR51yF4rnq5SidujvU5KHjOL9SHkzQwnX4LfPSKLWKQczv5Zzfw2n+BofVh+g+WMy7hIN+q7mUbwrTFjzIq1oZ+/gve+uhAiKfq1B5+mz9+cKJxjdKwKY45MKj+7k3++PGZq8eCn/HHDw8QHWo9C1oL1Z91W35GQz90Kg6+zp8+r2Ps0hVM63+EHYprHYrztlwyTG2xGitblGI8/Kq+qdoS1FPF/BJqzdIVY74flPNGcA5dVLQFxf12tPA3gcWNpawnFTVhSzXCNdeT61h3rD7Pynkh37sWarvpyYf5+uJg07V+TTM9V9WWto6D5i8m/yg0/WwT/NnBHaIuU11rJX43i56cX5bPC8qR1sz/yvwKorrfzTH/m+uBzR1Rz4uQNM3F+a0v8+q2eLKXryR74G42K+tNIdpXh31PyXAd5evf/BfbCsrI27aFCmzU17mI6NMfzZ9E3zg39TWYj9WCPekWHnpkNCUf/YGdFwJommG+XzcpAAxDI2bmcyyelYDN1ouocB9un44jIgx/fT0B3Y3L7SAi0kZ9XR0ejwt0L16fgb3xgzjRWYyMOsmxoiY/0VIdC+LAT/S4J1i+ehlje9vRDcxt8d5cP5FuSvNfYP87v2PP5RKObjuEV9Pw13sI69WbgC+M2DgbbpehHKvg2HYnhiOZ6Y/OovbTdRxoLHJU/Q6Zj0FM117jO/FGxHDGTs8gTgvx3NZ8n74bU+WUKh9bQ2J7o3k4nR8gaaANw4CEibOJP/4H3n7tDQ5f1pXnWeL2YI/uhZ0oMhc/x8xETZEb1uYg5frj1bEPS8a3+ze89fv/x+bieAbG2Qgbu5C7J8Rh0z14vBq2pre09aZXtJe6Oh1NL2D3m7/gtV//X974+CB+TVO2uS2CnxG4Vn+D10KLbVH24wq9jnqXk8iYFub24POC2nLNZzSJqWo8lH1TMfVXPb+o4qca8+B5w1VvWK4brplDomtoklOh5gdLNULjetIe647V51k9T/XeWa3tVNeqnqs6dr3j8H0ckhiePoxIzQj52SFUXdb02tbET8nrxR4dj2aLJToigMcd4nNCO8/7HaUn51dr8jA4R6zM/1ff86BrVSzP/z0sv65qUg+0tZ6/KVkdb7cbW0wcmi26MX8gctpqFs3ug02vx+0J/Xn1qib1lxBtYU9MTPxHh8NBINC+Xzs3DI3YCct4YORpPvvoO+oAX2kdsdMe48H7phBx+i98uT2f6sv1zY59viUf57RF3JU5mP7jbidn3jwSy77iyEWj2f1U/3phWFgYXq+3XfvRWrYRD7FkyX2MGDCIwekZxFXuIe+0h8G3L2X2jEn0KviMLUcvUVfqYcBty7g1J4dk7w42bTlDxaVaEm9dzq05sxji3cmmrWeoNzSixt/HeM8WduZVYTROxsHHVM89mrubfbu3c2DfOaLSh1F34ABFZX5TW/xBP2HsCnG8UZxDH+DuEaf4akcBPjQC5dX0mrGQudOn0b9yM5v3n6dGMVZl5/Y2i23tgQOU6t0jjs5xj7Ngaj+cA7MZP3kc0cX7OJtfZe63Ih/dqfOb5VlsxR5Onaxsfu2+8/hHmM/LL9OxD76Nhx5Op2b3Xkr8injvO4+3h+Wj6t08nldvyql6QzPlY/C1sRV7OJfwgMS2k9n6TyAjKo+DBx2MnDOMil3bOVMTT+ZtDzB+9FB6xYZRdXA3F+PN5xW6mt8reAwC1bVET13InbNnkFS3g23fFuCmeW74AXfBHtMcVJ4yv8X1Z/Phy/SdPIc+57dy4nKAQNJ0MiP2cyTfwYi7HidnxnT6V29l654CvImTmDU7h/QJE4g9s5HNRy8TUHwgULXZ03s8M26dReb4GWRPGo3zXC5FEVmmY8VRWWQmFHAor+Lq+hZM09T9LdXN66OqLd5+41t8BoAtcQKz5sxizIRZpLKPzVtP4upjvlZ1Xp2iLcpnJE1sFtNNR8pIVIzHsaKAeZ3vZ46Vqb97CqiyuGaV1IWbxryurMa0FtRVmOsGXRFT3W2+n7sb/eZQU919blStHfllerOcQgNfpc80tlipERrXk/ZYdyzVJPvOo7eiXcGs1nb1is8WqvYVDVtsOlZYbd5ksjIOV94f+7B7WfT4OGp376HErx6buhCfE5pfqx4HVfxUbQ5U1hA3YyG3z5pC7+Iv2XqoqCGm9sGkZ0dzbn8eLtRzbVd432+m/FJdeyHxQXWNGJQjqvnaNP9fec+DrlXl9ekLTkvzf0/Lr1D1QHA9L5qzUvu6bIPJuPN2JmRNIWvqDAb5j3D86GXiZj7OHbMm06uoIX9clT4GzlvK3OnTGejawZYdZ3EratDimImWatqeqLvXNDdCqPW6qeA4ahkZGUZ4eDgeT9f8m6OtERMTQ21tbWc3o9uTOLYPiWP7kDh2HIlt55MxEKLrkfey40hsRUeS/BIdSfKrfUgcbyyJd/sIjqP8EyRCCCGEEEIIIYQQQgjRAtlIFUIIIYQQQgghhBBCiBbIRqoQQgghhBBCCCGEEEK0QDZShRBCCCGEEEIIIYQQogWykSqEEEIIIYQQQgghhBAtkI1UIYQQQgghhBBCCCGEaIFspAohhBBCCCGEEEIIIUQLZCNVCCGEEEIIIYQQQgghWiAbqUIIIYQQQgghhBBCCNEC2UgVQgghhBBCCCGEEEKIFshGqhBCCCGEEEIIIYQQQrRANlKFEEIIIYQQQgghhBCiBfbExMR/dDgcBAKB676JYetH5iM/4ckVdxCXv4VTFbryGIAWO4tF/2slA89s43SVjmPiD/nJj1dyyx33Mfu2Mfj27uCCbSy3PfMTFsy/h4x+1Zw5UognKpNbf/ATHnvoHsYOdHPu8FnqDa1ZO8LCwvB6vW0KSEewpS3hmdUPMXb8DMZn9KL0cB7VuoZhhJH66E+Y49jP8RK/8rwqWwo5y1dz+6zZZA6s5cyJIrxoGI5U7ljzOL2O7aXYC7YRD/H44w8xaeqd3HrncMp27KfUlsrM5au5fdYcxg31c+5YIW7FtcG6ahw7gpUxUI2VETaSOctXccuMWYwdVHd1XJq6meIYzJG1mr9ekULB7jwGL1zDyIt7KHRd33k3cxxVJLadryPHwHAMZ+aKNdw5K4exw3UKjhbgChvJ7OWruGVaDuOGuMk/frFhHQialwBsqYt59sdz8O3+lmK/pjymXC+MBEY++CNWLJ1KYPcOLvo0DEeKcg1RMc2RjuGmtUsf8wTP/uABMsfPIHtyJpFF+7mYtITVzz7E2PHTyZ40Gue5XC7WqeNu5Rmq9dFqP1TnuRzmdVSf/mOeXzqP9OyZTL7tETL07Rw8H2WKn7IPYWmmsURxv+ODnzUdOxq/nDVP3c2YCbNIT7hM3snLGGnzzWPpMOeLJ2yUac3ypy1V1Bzm/voV41Y85EmeXXUfYyfMJXuom1NHz4fMye6oJ86NYdN/ZMqp7wq95vdKizfPBYpjKqr8bqk2UtVTHsWc59Guf45StUt1v9b0yUqutyWWqnq0NtX8zlbrFvvrUH+eCObIWsXj4y5y6LSHcSueJ6VgL8aM1Txy333ceu8dZI6dQN/6/ZwqTzatVaHWhxtJ8qvj8wtU67G1WPW0/GrPevBmYqn2dU7j4VXZXN5/Alfj2BvOFHKe+CF35OSQMaCWM3lFeByp5Cx/httyZjG2fzUn84rR05aZasuSlFWmGiqgdX5O3Qg9saZpb1bmTtP73x4PDpu0kNsGlVJUOfCaxwzDRv+cWxhSsoPPCn2Ahn/fWv59byQpD/yYO2K+4VCFTvy8uxnr2chv/93DvOfvZMKg3RwYdT9Z7k/49b+WMuu5FeSM2cGGw772aP4NoFO+/3XWb8xH1zRonAxsCTOZnHiCzRvqG4+Zz3NmzmFE+XpeXVfKpJUryIg9wK4qiM66nZTLO9hUrYOmoZ96nzd+GcHQe59hSuUnnPJB1LQ7Sb34Gq9+UU3m8jVMGbqHz/IDpmtvZlbGQHVeeNY8hp5fx7ov65n01EqyEg6wvdzoxJ50NQHqHAMYkaRR0i7nie9JbDtfx42Bc/hM0qre49WXzzJq0ZOk99vJt4NvYfjFN3nt0yrGrlhJVt/9bLtsmOYlw9CISY6n8oLGgGQnB/L8ymOq9cI59i6y/ZvYVzDtaluiJprXkM/Pqj/QBbfFOdq8du3DoGL/Ot7aeK5xfgVbmk7Nobf44wcnrh4LxcozVOuj1X6oztuaZD72dW0xJz79iL/k2sh+8lni8+txZiwwxU85vpnmsdyluJ/ex3yMPjoVua/y5ud+Zjz9CBnRx8hVjeVE8zO+HWZes3Yq1ruoqYr+KsbNEa9Tse9l/vR5HZNXPUlmr2/ZWWnOSdF16Io8A8V7lWGeC1THVFT5ve3ytWsjVT21e5jiPUm6/jlK+d4p7teaPlnJ9bbEUlWP2kLUqNb6a54vd1e3XLdqWoALX6/lla1TefjJfmz53UeUGRrONPNataOk69XBkl+hXH9+gXneaE290FR3zy+pyduHqvbdXqE4Ly2HlNK3eeWVEiatXEF6zEFyB+eQUvoO69ZVMPaR2xnqPEge5trSkaSooepvcEdFl2V97vxeu/xqf+Dsx/zptxu56DGueYzILGZMiuPMru1UNPk2aWTWEh6apHNi1zHqgKqdv+P3b26lrLYKl0/DZnMQ3zuOqsIT1NTlUVjiIDK2XfaAbxjN1nwxMgwHA3Mmo+/bxKVA6PP0+noCYVE47NFE2NzU+3SwD2bKzETydx3C1+SDp33kI9w7ppqjx0sJYCcuIZLqohICeh2XLrkJjybktTcjq2OgOs+751e8/kUxOjYwDHT9Bja8WzCovuCh7+ikq2WYEZHO3JV/yxNr/o4nF80gQTOU54mWSGw7XweOQUQYgbpqAtRz5O217CgxcESG46kuQ8dNTbVOeKQWYv5yktw/wKl91cQk90UzjBDHmq8XuqbhO76e9Z8cxd24ZBuGTb2GqKKhaIty7WoDy88IWuOs9kN1XliUprzWf+htPjlQD9HjSYs8ybHigCl+oajGUnU/1bGr9HKq6sKIjm4o4YLHUvWMUGtW0/WuNWP+vQicei11Hj3kmiq6BlVOqcZMlcttye+WqHJTdZ+2zFFW7teaPlnN9dbE0paykNX/8CzjIr//D8H1aKhjwdeq2tzec7JqreqKJL8atGd+Bbfv+taOFnST/JKavJ1YHe+ICIy6GgzdRb3bTngE6LW12AaNY2ivWg6uf4fj3hYiHFRDCQHW65ym2iWD9JKzXPK0fCw6K4cRMQaJt/wtq1fdS3JYQ0v12tMcOaqTtfwJsuJs6K4Kquug/6x7SPMe5uh5DxXl1cQNTiM2agSD+5VTdC7o5l2Zz034qEUsf/5nLL5vPDGaAdGTmDqsgD254WTPv58hDkN5XqBgF/n9FrH6J8+RXrqTk/XgTJ3L2L52Euf+kEfvGU+s1riwXf6Wbbt9TF7yMEOdAarLXCQMG4LTlsCQpDrOFwRCXntTsjgGyvMaRabdS6aey5Eq2UkNphfn4R6QyZV1yhZpo2zLb1i39iWOxk0mLcamPE+0TGLb+W74GIRP5oEn7yThyn1U85JzCAOcJRTknSWQlIIT1Mdovl4McRhofj+BJtOYpunKNURJ0RbV2gUa8dnLWbbmp6x45mFSHQZgIyZzIcvX/JQVy++gvy3EmmTxGcFrXJxNvRYGU/X3QqH/mtdGZY4lKn8flwOY4teqsVTc71rHggWP5bWe0WzNClrvYkPGSj1uCVnLWP78c4wp38nxevUYia6nWU4pxkyVy+2R3y0x1VNB92nTHGXhfq3qk8Vcb00sAwWb+Wz9p5xyNx5Q1aOqY6prFW1Wz8k3D8mvdsyvoPaF+sx5s5CavHMFCjby1dHezH76n/jBgunEa62oLYVo1Ko5u9EN+1qnYTjonzyAur2v8/KGMqY8+zdMH/sFhfu8eM98w2dnT+P70TMM6m8ntzpA1JjFzJ+lsfeV97mga2g7PuRg2lJW/iyWsKKP+W1RQ3HfHehnN/Daf4Gh9WH6D5YzNv4ghzOnEHXkLc4FIhiW2Jd6TX3eodH3kXL6JdZ+UcOYpauYNvgwR1MHUPnNWt7cVEf6oh8yY/hhPjvjx6g8yXdbzmFPXcPgGBvncj/k4PxHWPB0PLEVH/BylU7vmeprbzaGoRE30doYqMYKQIufzj13xZH7xhaqje6RizeS5j/FWe89jI6GIgAtmoEzl5I+I0BMXyfH7CHOEy2S2Ha+Gz4Gnr1sfCNA8n3PEK+jnL9skcNJGphOvwU+esUWMci5nbNR5mP5fkzrRUGlucisD1pDXqnWMexDmbb4UUbF2tDPf8EfPzxAdFBbaoHYyc3XrunJh9mKQfV3b/LHj880+1XC2sNvN/n1Kw3DNuS6nhFqffzUQj/e+uiAsr8exTE0DcOIYWR6DOe+vBDyTxIE9+Otjw6YxjLh6refzPcLPhbqs1fwWJaEeIZpzQpa78YlHGS7qr+KcXOgU3Hwdf70eR1jl65gatIRDoxSr5Wi62iaUwFsynmkzRS515Lg3IyweB8rc9S13rtgVt7ZUPNvW2n+YvKPwpXPNsH16LiEg+xQHSs3TNeq2qyak785f3N8CUDyq/3yK9TnJ1WsbpY/Hyc1eefSNBfnt77Mq9viyV6+kuyBu9msqC271+8yi+6gXXLK0DTstsYi32ZD0wx0bM2OgYfa2nqIt6Nhx2YzCARsJN35Mxb028SrHwRIiPJS7daxJ93CQ4+MpuSjX7DzQgBNMzBcR/n6N/9F7co1DN69pdmfBujqwsYuZJ5zI5/u8+DxakTZwIGf6HFPsDzdSVxcMcWhzosIw19fT0B343I7iIi0UV9XhyfgAt2L12dgs0HMzOe43/Ymb21zEBXuw+3V0fwX2P/O76h9ZAX9dx3Cq5mvtds7Ozqdx/IYKM4zHMnMeHQWtZ++yAH526gheDidH2DOHeFcNCBh0mzij6/lrd0Opq5ahV1xnhQWVklsO18HjYHbgz26F3bKGb14Jb2+eond9R7CknoT8FURG2fD7TKU85J9WDK+3b/h3W9qGL34aQbG2Sgc3PzYgFgbl8esMa0Xqh9MmtcQDU0vYPebv2B34zmGZjO15SLqtcuqtjxDtcZZ6Qeapj5PcQyA6CxGRp1kyzV+qKt6BsFjeeV3iFT3C/UMW296RXuprdWJmflXprH0K56hWrOC17voELG6ZqGo11HvctI/xq7MSdHFNMsp83vV2jEzIoYzLjuKc7sOU21oytxr8R6K3LR6H6vvdsj3Lvh+Vq4NMf+2leFIIiUtkuLj+bgMTfl+qo6prjXFz2WEmJMVG6leL/boeDSbl+iIAB63en1QrVXbu+CvX0t+XYlD++RXvaEp2xdyrQzWw/KrgdTkbaYY722Kv5GK240tJg7N5mnMH4ictpoHw97l7c01uD0W9jYaa6i6uhC5J4RF7bKR6pz8V/zPRzNx2DSMp/8fAz79R16rXsj/fKz5sVe2fcTJJ5fw/D87qT31Ge8fdlFSsImCJxbwV38H5QfX83VBgJh5U0jp1Q/7kn8jY3E9x9/6Ce/s8xM74RGmxx7knSPd6x8x8J07CY8/xxMzbXD5a94v16nYupbfbG346eQtq24NeV7V3k2ULXmOVRMhULaFj874qDn/NSVL1vDkRDtG2VY+PuOj7tJ2Kpc9x1MTwHvmfdY3/kuAzqF3My3qIH8uCqBpGjV7gq493fCPft1sNM2wPAaq85yZ9zIzOY6yO5/nyduryfvw12wvvDl+st8anuOnqXpgCmhQfeIotvnPs2x0Cf4onXOK87pqidQVSWw7X0eMgS9/BydnLeGpH4G35Gs+uKzjq/yGs+OXsvyHNoySL9lQrlMTNC/pho3E5DjqzlSjE6C4xMHooeEkDmx+LH24k53fmdcL24iHWHzXGBL69YNVf0Pcpy/wVZ6/2Rqi3GxVzKU2DfPaddoHo1U9thE7dhErhnohUMrh9X9gT9CHJcvPUK2PjWtcS/24QnWe6lhUxjii8v/S8OvRWuj4mcb3SNBYljYU8sH3Uz0DbCRkP8GKUeDNe4/19eBTjKXqGc4s85q1I3i9a2yLtVjZ6J39BCtG2nDW7OLDAh8VZ8xrpehamuZUqDpIlcvf6Pcp89vefyIzbu8LuYc55A6d39eiqqe2Ke5jGzH/uuYoULcr1P1avFYx/4bSqlgOmcNdC/qw7T/WcsilqEdLdXwe9TtrulbR5lrVnKyIl+/kNs7MfJynntfwF3589fOE6TzFWtUVP09IfrV3fqnnDVCvlab+9rD8ukJq8rZRjrcDbIkzePi5TPzolGz/LR9/t40zM5aw8nkd97m/sKFWx314B+VLn+WpcTr+si18XBiAEebaMje4hqqjK6eUuMGs1vFNaRkZGUZ4eDgeTzf6m6MhxMTEUFtb29nN6PYkju1D4tg+JI4dR2Lb+WQMhOh65L3sOBJb0ZEkv0RHkvxqHxLHG0vi3T6C4yh/7lgIIYQQQgghhBBCCCFaIBupQgghhBBCCCGEEEII0QLZSBVCCCGEEEIIIYQQQogWyEaqEEIIIYQQQgghhBBCtEA2UoUQQgghhBBCCCGEEKIFspEqhBBCCCGEEEIIIYQQLZCNVCGEEEIIIYQQQgghhGiBbKQKIYQQQgghhBBCCCFEC2QjVQghhBBCCCGEEEIIIVogG6lCCCGEEEIIIYQQQgjRAtlIFUIIIYQQQgghhBBCiBbIRqoQQgghhBBCCCGEEEK0wNFhN57wLH+9KJsIm4bhP8an//yf7KnX0GJnsfBvbqP85X/h8wI/RuQY5j25gkkD7FQd3cC7b22jInIc855axqRBTioOvsM7b++gwtAwtFjGLf97Zlb+lt+/fxK/pnVU89tV2PQfsWZONJV1Oo7YJNyb/57X9gxg9pL5pIRr6CVf8v6GvVTbU8hZupBRsTZ8hRvZ8MF+auypzFy6kNGxNgLFX/PB+h1UkMDIB57hvkk+tv28Ia7KZ+xONF1bPWIpTz+WgqfGh1F7iC9f/5jz/u4Rx/ZmaPHXHcdKQ8NwpHLHs3dR+upacmuMzu5Ol+LIWs2P7yznrV9sIO6x1SR89iLby80xsnpeT2OEjWTOkvmkRGoELn7Ghg/2U2toGEYYqY/+D8blvcD7h1zKHDUcw03zRK1hfoeNsDTTHFOjOE+0Xkfmt2rMbWlLeWZBCu5qLwRKObz+D3xbmWbKIXfmD3j23iRq6g08ee/x543HYMaPTXPamyUPmtaB4nTztfrYlTzzwCBcdRoUfca77+5S5pAqn2vsKcxc9jhjYnR8JZv58J3t1Cjap2c8wTMPDaG+xgd6Jcc/+C07z+vq2AS9H46xq0z38480r3EXh1tb91TvVo1iXa4NMf/bUhezenlvdvzbixxwqd811Rrz+vZa87vvSDGtO7WK+Cn7O2w+i+8aTZgWTUJ8Ph///A+cnWzOg7f1lYr1rp85Bs6RynoleHzLFefJnNM5rNY3qhxQzQ+W36HrWHeU84cq5xS1r+o9qbS4HtZZrIeV16aa37E81bWqNVxxTMU24iHTM06gno+sjoOVutWRtYpFiR/z5udljF2xhuiPXqQg+2luz0iid18nNaUVnPvml3x2fIBpDqjogu+75FfoMTGtOxbf37a0uafll6rO29nncdPYlyjW4Ne313Z287sMwzHcXFM4pvHwk/3Y8ruPKGsce8OZQs6yxYyO1vEUbOT9D3OpsaeSs3QBI2M0/AV/Yf1HB/GMWGaqm3OTVppqKG832UsSHa81c+cVHbaRCuA9uo7/fmM3fj2AEQADG/1zbmFIyQ4+K/QBGlHjb2d84HN+/X9Kmfvj+UwYvJN9aXcz1rOR3/67h3nP38nEwbv5slDHPvh2ZgwtZPeG091mExVAry3mxKcf8ZdcG9lPPkt8fj3OzFsYfvFNXvu0irErVpLVdz+7kuYwonw9r64rZdLKFWTEHuC79DtJvfgar35RTebyNUwZuoevY+4i27+JfQXTrvmMqInma79Ep3z/66zfmI+uaUD3iWN7c2Zcfxw/yw8QnXU7KZd3sKlah26UjzdGgDrHAEYkaZS0y3k9S3jWPIaeX8e6L+uZ9NRKshIOsL3cwJYwk8mJJ9i8oR7QlDnqHG2eJ3ZXmz8QqeaYbZd7/ib1jdFx+a0ac9CpOfQWf/zgROO8DeGTzTm0G52K3Fd583M/M55+hIzoYxxSzGlEm9cBh+padCr2vcyfPq9j8qonyez1LTsrzTmkyufdfWaSVvUer758llGLniS9306+VT7DoGL/Ot7aeO5q30IJfj9Q3O+gYo2zWVz3VO/WviHmY7uqMM3/hqERkxxP5QWNAclODuT5lc9QrTGqvqnWna8t9pdT7/PGLyMYeu8zTKn8hFM+sCmeq/dR1CaqGIxQ1CvxivEdLHNOV2G1vlHlwBc4TAAAIABJREFUgGp+sPwOXce6o5w/hqlqZHOfVO/J52fN756qXTva0ifFO6a6XLmGK+d4M13xDOfY61//t5aY5y0rNC3Aha/X8srWqc02NZxp5jlgR0nXe98lv0Iz1ZwW39+2tDlYd88vdZ2nqLFCrP2igXO4eby3VyjOS8shpfRtXnmlhEkrV5Aec5DcwTmklL7DunUVjH3kdoY6D5KnqJsdSeYaKleGQTRqzdx5RQf/ar+O7vOh6waGpkFkFjMmxXFm1/c/VQq4PAQ0Ow67DZvhxuMxqNr5O37/5lbKaqtw+TRsdhuGFk/mvGloBzZyqEr9bZWuyn/obT45UA/R40mLPMmx4gCOyHA81WXouKmp1gmP1NDr6wmEReGwRxNhc1PnhbiESKqLSgjodVy65CY8GnzH17P+k6O4jdDPOFpkKK8F0Gyy6QdtjKN9MFNmJpK/6xA+2URVMKi+4KHv6KSrdZQRkc7clX/LE2v+jicXzSBBM5Tn3Qy8e37F618Uo2MDw0DXwTAcDMyZjL5vE5cCDeepcjR4nqj3qedD1Rwj2kvH5bdqzFVUOXSVXk5VXRjR0Tbl+gPXWAeaXPu9CJx6LXUeda4p2xIRRqCumgD1HHl7bfMPQMpnXJvq/Qh1P1XfrKx7qndL+b4p538nyf0DnNpXTUxyXzRDPYCq8Qjum2HYQq7fVvtrH/kI946p5ujxUnRNUz5XdUzVX+VcohhfmXO6Div1TagcgOt/h64nB1Tzh+o+wX1q8T2x0K629Cn4HVNRjUOoOd6WspDV//As4yK//w/Bzwi1/gdfq2xze9et15rjuxDJrwbBOaJaU0O1xVJ+WWyzZd0kv0LVecFjH2quFY2sjndEBEZdDYbuot5tJzwC9NpabIPGMbRXLQfXv8Nxbwu5dx01qOj5rH7+aqrjMsgwCBu9nJ/+2ws899Qd9HcYRGflMCLGIPGWv2X1qntJDjPwnNjJ6fgHefbvnya1bDdHLuvorgqq66D/rHtI8x7m6Hkf9uTbmD6kgF1bw8j5wXIyY7pfgR6VOZao/H1cvjJ3hk/mgSfvJKFxFAIFu8jvt4jVP3mO9NKdnHLpVJe5SBg2BKctgSFJdZwvCKD5/QRC7CVfeUaprr4Wn5vwUYtY/vzPWHzfeGK0rrowdby2xNGZOpexfe0kzv0hj94zntibOI6h6MV5uAdkcmWdskXaKNvyG9atfYmjcZNJi7Epz7uZRKbdS6aey5EqHaInMXVYAXtyw8mefz9DHIYyR4PniZPX+mlq0Bwj2k9H5bd6XrIRk7mQ5Wt+yorld9Df9v180yyHrqHZ+mN5HbCRkLWM5c8/x5jynRxv4Sf3VtvSnEZ89nKWrfkpK555mFRHiLYo3g8lVd8s9lf1bqmOKed/5xAGOEsoyDtLICkFZwu9bjYeQX0b6gyo12+r/QWMy9+ybbePyUsebhYrUx0SdCzk/GJ1LpE5p0uwUt+EyoG2vEPAdeeAaf4Iuk9wnzQtRJ1rtV1t7FOod6wp1TiEGptAwWY+W/8pp9yhnxHq/VRdG9zmm71ulfwKypFQa6qiLVbyy2qbeyJTnXeNsVfNv6JtAgUb+epob2Y//U/8YMF04jWDa9XNQqhcq24KpcN+td+f+2v+Ixe0yLHc+6NFZA/dxInkAdTtfZ2XN5Qx5dm/YVrmV3gT72foud/zX/9ZxpRn1zAnYxvvHfITNWYx82dp7H3lfQp9ToZMGIfj8J84/P+zd9/hUVxpov+/Vd2t1IoECUSWiApkMJIIzhHnAJhogw0Oy3h39vfMzLPP7N274c7evTthPTbjbGMbR2yMjQNOmGgwUeQMkogCZanVre6u+v0hYUtdp1EBEknv5y8/5Tpdp97znvOeLnU31THcldoZX6v+KEHLM81Y+g6IpeDbo7/8lc63gS/fDtJt/GwSDYgbMZ60A88z75sqMqbMIqfbdr7f/Cn5997PQ48nEle2mNfP8nWc0Gt4FG2NqkW8+WcwtfbkPDaNgUn5rGkDv0l5LpqL42sVBu3yOlO+bB4LfqhhwMQnye21naUH1V/lbKu0wH4O191OfzccB9DcpOZNYUBukNgOLnY5wpzXRmiJOdx+azyb315BhaETP2wkMTveoyAYRc/kDqh+msU0NeU6sSzMb0o2XmOSZJq3qIub3wbV299v9BWlhk+7NMqhSlMLW9At9eewtQ78FOa6Zflv8e7XNWRPmc6oTjtYfqoboyY9QL84HePIN7z32RYCmma7L4reUbl1Ae8sOfjzvZl69ybXeOfTLbhtzA8AQ3FvaxTHVpd3s1wjJmRujeq6nQ3drcd2plvX/69P9yIldQAdH/KTEHecLq7VHDS6K2PVeDyCqOe+qn7bvt9SE7N8H1tXFOBIf4qusTqF5aZyHxLaF9X68iPYX0tkzbmsNZcD4dYH1RwKu3c8jxwIXT+ibL6Oap6Yjh6Weafql2ruhK4L4doCyjl2IbTACQ7thMbfh258jS4xOqWZ6vqvahv6HqOdYt1qK/tWya+m+WWaWvg9p6IvzeVXa/X5ShG6zwtbl1XPAsQF07Rajqx8jTdWJTJk2kyGpK5juWLffIU9OhJXgFb5zIBpaiTlPsbUe4bg1jTAxMSgutoDDgcaDnTdxDA0XBEuNNPENA1M04EzQsORch333N+f4s9e5cejQcDAoTlIHDmX3/z7LDLCfLXisuYeRN+Yfew6Xv8nqIDHR0RCO4L+COLidby1Js6oCAIeD0HDS63XSVS0jhY4yqYPXmb9qWJ2rtp29h9FDrmGqm1E9gRuGxqPbvjw1Wnojotx81eYZuOo46mpweerBaOOOr+JQ+Ko4OPAoSApqTqmCUnDxpK4+1Xef/Nttp8ylOe1FaazGzkPjKH6q/lsaXgz6iSAe+AMps2ZSna78AmlWicAzKheZOdkEt/wl2/LGnMu31UQNlza/Fbl0M/0diS466ipaehHyJp21joQ2hbAqMFT6yI61oFmFLJuwZ9484X/5u0l+fUPBlV98fpwuBNwEEPWpKfJS9bOfo1GQq8R1PSzz49Gr6e6N9Ux5TUUc0t1TLX+O3p2w7/uRd575X9YfiKR1HhdGSvVeKju7ay1/yz3q2kQm/c0k8YkoesJxET68dap80DZF8X9KtcSxfjKmnMFsJEDducQtEzdUa0fdl9HNU9U8071enbWBVXbWo8Zfo5dANOZQq8BPYnWzPrfXA69ht8IX/8btVXGr9a0v2+tq8PhTkTT43BHBfF5w9zb2db4y4jk15k4NM0RVd0JF5fm8uuc+nyV5Ve9pvu8sHss1for6tkdb68XPTYeTXc35A9Ej5rDxLHt0Q0PXp+N9+TN7EGFsKtVHs5rmkn5np1U5Uxj7v/Sqdy9hA8L/JwqXsK+GQ8z919dVO9fyifbPRwr/IqCaZOZ+69Oqvct5aOtPmLHjiQtoSOOyf9J5iQPu9/7Rz5c9E/8xyIwXcO4/3c3tEa3W1VM5kBiDn1e/1F+Dfw7lnF48BSmPaljFn/LolKD6g0/UDL5aWYNg2DJCj47UP9L3a4etzEqJp+Pjtc3rv+XPDNI6tgRZv2a+K+e5bu9Acs1AEtbf8E+ePhpZuTpcOp7PjltQJv6dcpfnG8cNU2jav33FE9+ikeGOTBLVrLkgM1fVW9jfLsPUHHXSNCgcs9O9HvnMrV/MYEYgwLFeW3lbbcr6w7yusVTcstcHrmpkr2fvsDqlfN4cSWYeneum3U9oM7R78OsE45Ow8i9qQNs3s42r2KNacNzvbW0Rn6rxnyZqROXPZHpPRr966Op1hxah07SkBlM7wd1ez9mYQ2gKeqPqg50UrRFp92QGUzvq+OqWsunBep1TpXPqw6tYd+YyTz6K6gr/p7FpwxIUV2jeZpmUqaYHyjuV3Vvfl/zdU/TTCpC59ZBPxUnrceqjjRd/z/dHyT59nhqDlZiEOREsZMBPV1QWqe8n8bjEf7erPXb1v2WGtRsXU351Kd5dCjUHfyEhbXW6565/dC+WGJwwI/faV1L/GXW8fWXy5pzuTiX/Y2d9SHcHGqJuqNcPxSvo/e+V3lP1nlipeqXnXVB2fYsc8zOOCwzxivvw9F9HLc+1J5V/zWPbbWm9Rpe8Iar/03aqvtsd9/q37eKg3kP8+hcjUDRkrD35let8ZfhfJf8UueXqu6Em7928stun6+2/Dqj8T4v3Htt1for6inH2wl6ci73PZ1FAIPi1S+xZOsqDuZOZuZcA2/B5yyqNvBuX0PplCd4dKBBoGQFS4qC0Fuxbw6zRxYCwu+bzkbLzMw0IyMj8fl8F6mbrSc2Npbq6upL3Y0rnsSxZUgcW4bEsfVIbC89GQMhLj8yL1uPxFa0Jskv0Zokv1qGxPHikni3jNA4tp3v0gohhBBCCCGEEEIIIcR5kgepQgghhBBCCCGEEEII0Qx5kCqEEEIIIYQQQgghhBDNkAepQgghhBBCCCGEEEII0Qx5kCqEEEIIIYQQQgghhBDNkAepQgghhBBCCCGEEEII0Qx5kCqEEEIIIYQQQgghhBDNkAepQgghhBBCCCGEEEII0Qx5kCqEEEIIIYQQQgghhBDNkAepQgghhBBCCCGEEEII0Qx5kCqEEEIIIYQQQgghhBDNkAepQgghhBBCCCGEEEII0Qxna72wFpPNDY9OZXgXF2X5H/DB+2soMzW0uDFM+PWNlL72b3xdGMA57En+4aGBRGiAeZDv/vD/WFuXwXUzpjG8i4vKXYv56J0fOGVomFocA6f9nrzyl3jlk30ENK21ut+iInJ+xVPj3JTXGDjjUvAu/z0Liu/m8QfT8FX5Mau38e1bSyginbwpE+gfpxM88T2LF66hzJHG6CkT6Ben4y/6kkWLN1HlsJ7nGfWM5RrvGzMtx95cl2xpW25eGXFsDaYZQfoDf8/Avc/yybZa9N73MOnW/kRobpISD7HkD6+yv+e9lmOHR1jj/dbq6kt9O5cN56A5PHNLKe/9aRHxD84haelzrC41z/s88QuJ7aXXmmOgqhfvlt3P7Hu646nyg1HO7sUvsS56kqWGHOs1xVpX9L6MnXwvaZEaRvG3fLJoA7WZM5l9VxdqazQ4vpQPP1xLTe+pzH4oDW9lHQRPs33hq/xU3odxk+8lLVojeGwpixZvojpMvTCd6dz8xK2cfmMem6tM5X2o6k+Zy9q/qnDXCFmv7R7T+0y2xOVIwHoNZ9ajlrhUuvpZYuBJt9aEPYo4q+7DmT2LJ+5Iocpj4tv7MR99uYtAH8Xr2dwP1Clq/4LieyxjubnDNEsOrTnRU7kfCI2f6exlua53wAzF6/Ugb+rDZMQa+IuX8+kHqylrw/uLy1HoPFUdM51ptvJC+foRfWzP51/a9LXMsSrFulBJEn3vms344X5W/eGPrPdoYftqt1+qeLRoWy3R2mfFMftxsa5HqjVZteap6oNyHRw0i4nJS1jwdQnZ05/C/dlzFA55nJsyU2jXwUXV6TIKlv2Vpbs7XxHzXfLLfn5V25znqvdKe7DWJ1VuXm35JXvylmE6e1nGu9Q5ivse6ciKlz+jpGHsTVcao6dOor/bwFf4JZ98upkqRzqjpzxE31iNQOHnLPwsH59iT7s5ZaZl/1V3hTxLEq3P7trZWKs8SDVNjaRRt5Ht+5KX/q+PG+bewrCu6/imEDqNvo7uxWtYWuQHNAIb5/F/N0STdtcz3By7jG1lBu1uvJNB3i944T9OM+bp6YzOWMOi7X4cXW8it0cR6xYduGIeogIY1SfY89VnfL5ZZ8gjT5B4yANug9JNb7Hwy0MYmgZoxFxzC+nH3uSNbyrJmvYUI3us5/vYcfQuXcgb808zfOZ0MuO2sHWA4jzFNYz21mMxw6xtvz4cuNQhumT0pDxGJO9h+SIPoGHs/4S3/xpFjztmM7L8C/b7UR7TVWMqGglS4+xM7xSN4hY5T/xCYnvptd4YKOtFoknZpvm892VBQ70AvY+1huhYj7mGXkevYwt486sKsqfPZFCHTazFoGzja7z7dQ0jZj1CVsJPrMOgatt7vLN4z8/XiBxxAz2OzGf+tx6GPzqTQUlblBt/09RwD7qJtFNr+KHSAE1T3oeq/nzfztq/VafUby5C12v7x6xxCRN9S1w29lHEQFETXMPs3odB2eY3WPB1gNzH7yfTvYvNiteLGWVvP7AxzP4idCydHaw5pNpzfH04YImfq7/iulhfz9Unjz4VH/PGa4fpN/ERBnT8kTXF8kbxcqGap6pj4faJqrkWypVlfz6fETnIOsfW9VSsWym3MiTwAxsLR/3c1u6eVtWvlcVY7t3uPdlum2nts+qY3bisT7e3JqvWPFV9sEPTghz9fh6vr7ymyUONK2W+S37Zj8vqUtPWPFe9L3JlW+vEusrm8+FKzy/Zk7cMVy/reK8uU5zXZzRpp9/n9deLGT5zOgNi89ncdTRppz9g/vwysu+/iR6ufPYq9rTOFMX+S96+iwZ2187GWuWr/ZpmUvHjy7yyYCUl1RXU+jV0hw7Rg8gdHs/BtU3/qhQ9aDL3DDfYs3YXVaaDxHbxVBTtoapmL0XFTqLjnJhaIlk3jELb8iXbKozW6HarCWx7ny+2eMA9mD7R+9h1IgiApv8SA9PUiU+KpvJ4MUGjhpMnvUS6wfB4CEbE4HS4idK91NShPE91jdBjO4+byrZtlWk6SR09AmPjD5wM/nLc0fd+7sioZOfu0z8vvqHHwo2pOMOk8qiPDv1Tft6GmVEDuHbmb5nx1D/xyMRckjRTeZ5ojsT20mu9MTiXtaVxDQl3zBkdia+yBAMvVZUGkdGN/38ULqOaGp+6ptat/xtvfXMCAx1MEyNc6XV0ZWReMofWbsPfsGbarT9n798vVOu13WPhYhXeL3EJF4PQmmD3Pn5mlFJRE4HbrVteL4jD1n7A4zfOuxaF23Oo4qe6rjpsEQRrKgniYcf78y7TN71tmGKehh47l7xQOed5gHqdUb2Of/dCFn6xE29DWoXrq+1+qeLRwm1D+xzuGICeNoE5//wEA6PNsHEJtx6FtgV79eGCXCHzXfKrnp38CjfPVfkVWgNt1wm7rpD8kj15C7E73lFRmDVVmEYtHq+DyCgwqqvRuwykR0I1+Qs/YHfdue2/hIDwa+fZtFoGGbVlVNZApzG306duOzuP+HEPGk3vWJPk637LnFl30C2ivqdG9QF27DQYNG0Gg+NNykorie/ah7iY3nTtWMrxAh+ObjeS072QtSsjGP3YNLJir7xlKCYrm5hDGzkVBPxeIvtNZNrc3zFp/GDi9CCVJbUk9eyOS0+ie0oNRwqDBAvXcqjjROb849MMOP0j+2sN5XnKa4QcO22cvW2b4x7ONT0LWb85kiH33kl3Z8PX3E79xKp1fkZMvu+sx0Adb1HPOLEXb+csztQpPVqnZMWLzJ/3PDvjR9AnVleeJ5onsb30WnsMmq4tGolDpjH1qd8wffZ9pDtNSw2J1cIcA4gcwV2P3ELSz33QSRo0lWlznyaj9Ed2e+qPxWZNYNpTv2H6tJvppP+yzkX3uYMsYzM7wvwR05V+LdkdHCRf+yQP3D6YOM26Rp61/lj6p6Bar+0eCxcXC1Vc1DFQ1gQ79xFG49fr4bK3H9jXqH9N80U1lk1zqHeYa6jip76uIifFZU01T0OPxYfZi4bbLymd5zywrDMhr6MFAgQbLUGado572pDXO9u61VJtQ/sc7hhAsHA5Sxd+xX5v0+Oq9Tf0mKXtudSHNkLyy0Z+hZnnqrahNfBs9elqJ3vySytY+CXf7WzH2Mf/N489lEOiZnK2Pa0QKuHWzrNptd9INU2NmIxJ3DtGY8Prn1Dkd5HerTM1G97itUUljHzi1+Rkf0PRxjrqDi5j6eED+H81m66dHWxd8yn5faYw83dxRBxfwotHocu9A3Fuf5ft1THcldoZX6v1vHWYZix9B8RS8O3R+k85Hl7Em38GU2tPzmPTGJiUz+rNn5J/7/089HgicWWLea3CIC5vPGkHnmfeN1VkTJlFTrftfB9y3us/f0Ur5BqK63rCtG1rTFMjfthIYna8R0Ewip7JHTjzUxhm+T62rijAkf4UXWN1CstN9TFFvMUvtMB+DtfdTn83HAfQ3KTmTWFAbpDYDi52OcKcJ5olsb30WnMMQtcWHZPKrQt4Z8nBX76SqaghaxTHNgH4NvDl20G6jZ9NkglgUJb/Fu9+XUP2lOmM6rSDVRhUb3+/0deg6tc0LTGH22+NZ/PbK6g0NUy9O6MmPUC/OB3jyDe88+kW2qV3pnzZPBb8UMOAiU+S22s7Sw8GbNUfXdE/1TXcIet1NVjWcNUxjwaGqt6Wd2tyjfc+26KMy4qTpiUGYK0TxTbuo/4aYcY85PUKbO4Hlh0xFPliHUunIodMxTXix1ljGjfCet2Vite7wrZlbYppapZ5mtNzO1sUc/crG3lx1p8Os6w3zQudY1E2X0e1ppiOHup51+j1Eg2U69ZXh1PPu+3Sgxf2M1la4ASHdkLjr1Or1h7lsZC2qjVPVR/WtJHfaJT8aj6/Kgw97PsiVdvGNatLjE5ppro+tQWyJ7+0NK2WIytf441ViQyZNpMhqetYrtwHCdGyWu1vIo6U67jn/v4Uf/YqPx4NAn6qqz3gcKDhQNdNgkGdlFt+x99NySHe3YmkmDp8XgOzdiffv/hnVhWWsHfVCsrQcWgOEkfO5Tf/PouMK/Hr6O5B9I3Zx67j9X/NjMiewG1D49ENH746Dd0BWuAomz54mfWnitm5aht1mo4zKoKAx0PQ8FLrdRIVrSvO05TXUB0L27YNchLAPXAG0+ZMJbudA8OE2LynmTQmCV1PICbST63PsBzz1jVsDFTxFo34OHAoSEqqjmlC0rCxJO5+lffffJvtpwzlecIuie2l14pjYGNtUdUQ1bGAx0dEQjuC/gji4nW8jb+zYtTgqXURHetQXsN0diPngTFUfzWfLQ1vuDWjkHUL/sSbL/w3by/JJ6jpeGpq8Plqwaijzm/iOPNyNuqPqn+qa4Su12Bdw8MdU9bbkGs0+d31RnEJjYFpasqaYOc+mlxDb0eCu47qanWNsbsfsJsvKsprqGIa7rqhvD4c7gQcxJA16Wnyktvu/uJypJqnqmN28wLAjOpFdk4m8Q2fmDvrehOGap2x+zqqNUU17yyvV2uq7/0C2l4o05lCrwE9idbO/CNg1riojqna2q0PSnV1ONyJaHoc7qggPm+Yh2FXyHyX/DoTh+bzK+w8b9RWWQP9hv06cZXlVz3Zk18wu+Pt9aLHxqPp7ob8gehRc5g4tj264cHrszFfGvZfNTVt40G/aD2t9o9NxWaNJC2hI47J/0nmJA+73/tHFq5ewr4ZDzP3X11U71/KJ9trKS78gcIZD/F3/wSl+QtZdiSIaerEDb2fnLh8PtjhQdM0Di/6J/5jEZiuYdz/uxtao9utKiZzIDGHPq//2p0G/oJ98PDTzMjT4dT3fHLaADRcPW5jVEw+Hx0PomkaFRt+oGTy08waBsGSFXx2wG8578xfCEOvEe6Yqm1bo2kmZSvn8eLK+k8NXTfrenQNaraupnzq0zw6FOoOfsJCL3hDjzX8I5aq2IqmfLsPUHHXSNCgcs9O9HvnMrV/MYEYgwLFeW3jsxEtQ2J76bXWGNhZW1Q1xO9THKtYxuHBU5j2pI5Z/C2LThuQotNuyAym99VxVa3l0wI/9NKJy57I9B6N/oXT1DvI6xZPyS1zeeSmSvZ++gKri5puPDXNpGr99xRPfopHhjkwS1aypKFO2ak//h2K/oXcdLj12s6xcLFSB9YaF1eWNQZrFDXBzn2cuUbSkBlM7wd1ez9moQf8YWqM3f2ANc6KsQyTa6HXUMVUed3+ipw8tIZ9Yybz6K+grvh7Fp8KFwNxsSnn6UE/VUfUc7e5vDjD0WkYuTd1gM3b2eY9l3nwC9UcW6V4Hb33vUy6NYOkjh1h1q+J/+pZvtsbsLWntfSr1Ai7brVk2/p/3bxpn5cZ45X34eg+jlsfas+q/5rHtlp1XNa1V6/JoW3t1gfl/e5bxcG8h3l0rkagaMnP65HlvCtkvkt+2c+v1eHmeZO2pvq9Upj6ZLnfqyy/zpA9+YVRjrcT9ORc7ns6iwAGxatfYsnWVRzMnczMuQbegs9ZVG3g3b6G0ilP8OhAg0DJCpYUBaG3ah8Usv+q4XJOKXGRqdbT7/ae/ZsAWmZmphkZGYnP57tI3Ww9sbGxVFdXX+puXPEkji1D4tgyJI6tR2J76ckYCHH5kXnZeiS2ojVJfonWJPnVMiSOF5fEu2WExlE+Wy6EEEIIIYQQQgghhBDNkAepQgghhBBCCCGEEEII0Qx5kCqEEEIIIYQQQgghhBDNkAepQgghhBBCCCGEEEII0Qx5kCqEEEIIIYQQQgghhBDNkAepQgghhBBCCCGEEEII0Qx5kCqEEEIIIYQQQgghhBDNkAepQgghhBBCCCGEEEII0Qx5kCqEEEIIIYQQQgghhBDNkAepQgghhBBCCCGEEEII0Qx5kCqEEEIIIYQQQgghhBDNkAepQgghhBBCCCGEEEII0Qxna764qcUxcNrvySt/iVc+2UfQPYgbH53CkFQXlds/5sN3V3A6KpMbHpnO8M4OKnYu4sP3VlGiOqYlk3XfE9wxIpJtL/0vvjwQaM2ut6iInF/x1Dg35TUGzrgUvMt/z4KTNzLp1v5EaG6SEg+x5A+vsoc0Rk+ZQL84HX/RlyxavIkqV1/GTr6XtEgNo/hbPlm0gZreU3j8wTR8VX7M6m18+9YSjgQ0TGc6Nz9xK6ffmMfmKhMzoi/jJt9LWrRG8NhSFi3ehCf9Xst19wa0Sx2iS8LUEul712zGD/ez6g9/ZL1HU47Vm+uSyZsygf5xOsET37N44RrKTWu8xS+cg+bwzC2lvPenRcQ/OIekpc+xutQaI7vnXW1Uc7Pa1DDNCNIf+HsG7n2WT7bVKnPUdPZnwkorAAAgAElEQVSyrBPVpnUOmxF9LGtHleI8ce5aM7/13vdY1uj9vaxrfvGIZ6x1pfgeZj+UhreyDoKn2b7wVTYnP8Lsu7pQW6PB8aV8+OFaajNnWo9lPcYTd6RQ5THx7f2Yj77chU9PsuSfSricDM1n1b3t0fsp54LyOqHzQ1Xjek+1xqDDNGbf0x1PlR+McnYvfokfjxiK+0izrPWeUfbivL7YtFUT9D6TLWN5rKe1Lu9XHNujK/YDipp+sL91fKsUNUt1v+WKcXNmz7LkRp2moadPYs60dqz5z+fYUqs1xFDq4uVAWTsUNaHSodp3Wuekai+qqifnU3dU81h1vUqs61G4HLbTr3B7aTv9s7uXVo6D4ljY2FjWPHvxvZDrOgfNYmLyEhZ8XUL29Kdwf/YchUMe56bMFNp1cFF1uoyCZX9l6e7O5E19mIxYA3/xcj79YDVll+EeQ/KrFfJLFVNHuq1YXW355cx+lImpS1nwVQn9H/4VPdf/kS8OxCrWX/W+X9Qznb0s413qHMV9j3RkxcufUdIQK9OVxuipk+jvNvAVfsknn26mypHO6CkP0TdWI1D4OQs/y8en2gumzFTuZYQA9XranFb9RKqj603k9ihi3bID+NFxD7uRjKpPmPcvf+NQ5xsZ1sNFzOCbGBz8mhf+z1sc73kTw7o5lMcihk/gxi6nOV5+5W3MjeoT7PnqL7z27HOsP3aMokMejP2f8PZf/8J3B05T+N0X7PeDq/84epcu5I3n5rGnw1gy43RcWdfR69gC3vzb8+THjmZQBx0wKN30FvOf/QNvvP55/UNUU8M96CbSTq1he2X9G8TIQTfQ48h85v9tHrvbX8ugJF153bbKlXkrQwI/sLEw+PMx1VjFDLuF9GNv8sZzz7I5Zhwje7iU8RaNBalxdqZ3SnOLkN3zri6quQmgJ+UxInkPa3d4AHWOqtYJFfXaIVpG6+W3eo22rvmqtQoMqra9x/xn/8Dr815hfbEJGJRtfI3Xn32W7Qm5ZCXo4Y9tfoP5f32Vwh7Xk+lW559KuJwMzWfVvYWbCyqhr6duq4qBSdmm+fXHnn9B+RAVUK71duNsvyYoxlIRF+UeQTGnw+VL6Piq+qe6X1WcVblhmhqx3RIpP6rRuVt9O6mLlw9l7VDkj2ruquaV3XpyPnXH7vVU9xQuh+31yzoX7fbP7l5aOQ4211VQ7AnsjsMFXrcxTQty9Pt5vP7CFxw6uoaPn/svvt7uxdUrjz4VH/PGs39hA4MZ0PHy3GNIfoV3vvml6rPdWIW60vPrDC3+GrITdrPxgF85Buey12mL7I63q89o0k6/z+vPPc/ejmMYEKs3HPuA+c+/wNaI/tSnXpj9cMheRogzzqdGttosNrVEsm4YhbblS7ZVNGza3dF4S47j8RVxuiqKmFgI1voIag6cDh3d9OL1mupjh5fw7ktfcsx35T1IDWx7ny+2eMA9mD7R+9h1on6AHH3v546MSnbuPo2haRgeD8GIGJwON1G6F4/fwBkdia+yBAMvVZUGkdH1hVjTQwqyoysj85I5tHYb/oa/rtSt/xtvfXMCAx1ME6PhfU3oddsq/+6FLPxiJ95GKRU6VjuPm8QnRVN5vJigUcPJk14i3SjjLRozqTzqo0P/FM5Ex4wawLUzf8uMp/6JRybmkqSZyvPaAtXcNE0nqaNHYGz8gZMNa7gqR1XrhEq4tUO0hNbNb9UaHbrmh6sr4UXhMqqp8RlnP2aUUlETgdutK/NPRZWTqnxW3Vu4OhVK9Xp229phmrpyrbcd53OoCZb6jXrMQ4+Fm9Pha3qj8Q3pX7j7DTduQJPcABfdOgXZv7GS2G4d0ExT6uJlRDV3VfmjmruqeWW3npxP3bF7vdB7CpfD59Iv1Vy00z+wt5dWjUO4dVVPm8Ccf36CgdFmw/1Z52K4+whtey7XPW9REQRrKgniYcf781hTfHm+P5P8qteS+RXa52BAsx0r266Q/KrnoP3IIWjbVnDKUI9BS+5Xrkp2xzsqCrOmCtOoxeN1EBkFRnU1epeB9EioJn/hB+yua2beNdnLCFHvfGpkq2WQo9uN5HQvZO3KCEY/No2sMwuqO5cJc++jkwYaGr49P3Ig8W6e+P3jpJesY8cpQ3nMKD7MSV9r9fbiiMnKJubQRk41FCzz1E+sWudnxOT76O40CRau5VDHicz5x6cZcPpH9p35MEjkCO565BZ+/uOV30tkv4lMm/s7Jo0fTKxm4kq/luwODpKvfZIHbh9MnPZLFkT3uYMsYzM7Gh5oh163rdICAYJhCtmZsTptGFSW1JLUszsuPYnuKTUcKQyeNd6innFiL97OWZypU3q0TsmKF5k/73l2xo+gT6yuPK8taTI33cO5pmch6zdHMuTeO+nuNJU5GnadUAldO0SLac38tqzRijX/jKZ1RSc2awLTnvoN06fdTCfdBHSSBk1l2tynySj9kd0ewhyzOtsa2ZgyJxX5rLy3BqF1yiLM61nbqmKgkThkGlOf+g3TZ99HuqLuaZp6rbcbZ9s1IcxYquKijJViTlvPs45vaP/i9aD6fs8S5yZc3ensKqZw72GCKWm4sF5D6uKlE3buhuTP2eqJZU7arSfnWXeau17oPTU3Z5vt11nWVTv9s7OXVo1DuLEJFi5n6cKv2O9tOBBuLiriG9r2XK7bVkh+tVx+hfZ5Z1WYetIm6CQMfpj7cpwU7ijH1LSzzrVm9zrinAULv+S7ne0Y+/j/5rGHckjU6vdB1r2gEOGdT41sld9INU0nXYYOxLn9XbZXx3BXame8TjgF4PmJz94oYcCkgaSa0GncnfQoeIU//7GEkU88xdiM1fzYremxcZmrWLT9yv4OumnG0ndALAXfHv35L4tm+T62rijAkf4UXWJ0SjPHk3bgeeZ9U0XGlFnkdNvOjwC+DXz5dpBu42eTZIJxeBFv/hlMrT05j00jOzGfA+mdKV82jwU/1DBg4pPk9trO0oMBtMQcbr81ns1vr6DStF63a6xO4RX4cwmtKXSsPJs/Jf/e+3no8UTiyhbzWoVBuzx1vMUvtMB+DtfdTn83HAfQ3KTmTWFAbpDYDi52OcKc10Y0npsVhk78sJHE7HiPgmAUPZM7oPppFtPUiBthXSeWhfmqcujaIVpOa+a3ZY0OWfMHJuWzptS0rFU6BtXb3+edxXsa6oyGE4Oy/Ld49+sasqdMZ1SnHaxRHrPZN707oyY9QL84HePIN7zz6RZiQnJyVNftbExT57Oq/oTWKdU13GHmR2hbdQxMKrcu4J0lB38+FnqN9z7bYlnrX680QNOajbNp6qQoavBXh1Mt1wiEG0tFXEKPFYNyToeedyxkfK9J2cEeVf8UtS1+XPPrEIAe04uU1AF0fMhPQtxxUh2r8YTZh4jLSKP8STQIW09C51VUSNuz1pPzqDvnez3VnDUdPSzzTtWv0L30wKR8Vpd3s85ZTbsoe2ktcIJDOwHqf64r7J5AEZfGbYWV5FfL55elboepn1c/g4ot77A08AC3DO7I2mUnMcPct2qcxYXTtFqOrHyNN1YlMmTaTIakrmO5ci8oRMtqvU+kag4SR87lN/8+i4yGT6N6amqJat8JLZBCh3gvnioNV4QLzTQxTQPTdOCMcCiOaZiahkPX6jus62hX2icd3IPoG7OPXceD9b8tlvc0k8YkoesJxET68foNnFERBDwegoaXWq+TqGidgMdHREI7gv4I4uJ1vF6TiOwJ3DY0Ht3w4avT0HXw1NTg89WCUUed38ThANPZjZwHxlD91Xy2lJrq69bJX8QsGo0VgBY4yqYPXmb9qWJ2rtpGnaYr4y1C+ThwKEhKqo5pQtKwsSTufpX333yb7acM5XltRejcBHASwD1wBtPmTCW7XfiEUq0TAGZUL7JzMolvWBtVa4doSa2T36o12rLmn0mPkLXqrIwaPLUuomMdZz+mtyPBXUdNjbo2aEYh6xb8iTdf+G/eXpJPUNOVORmaz4apvjfVXFBeQzE/VG3tCr1GQNMUa71mO86qmqC6RuhYapo1LrU+Qxmr0Dld6zHPXtMbja+yf4radtZ1qFFuOHp2w7/uRd575X9YfiKR1ASpi5c7S02oNZVzVzWvwtWTlqg753K9UKo5q5p3tvbSYebsxdpLm84Ueg3oSbQWfk8QdhxC2l6Qujoc7kQ0PQ53VBCfN8y9eX043Ak4iCFr0tPkJV+eD4Ykv87EoeXyS1m3w9XPUFdZftULUvLTT/iyxtElzE/DXsh+pU2wO95eL3psPJrubsgfiB41h4lj26MbHrw+G3uPZva5QtjlSE5O/hen00kw2HIfwdc0g/Ld37Py289ZsfwEHa9Jo/qnNRw6UkPcqAe5e/xIog58zrerD1J8ykdK3gTGjx9N4olv+ObbXRw72fTY19/uxjtsLr/5u/voER9H6rBbSA9uYMvB6iZ/7YqIiKCurq7F7qMlxQwez2DfCn7cWwEa+Mv9dL1pCmNzh5NQuJQVO09Sc9pH5xuncv3o0XSrW8MPKw5SVVJFQu4Ers0ZRafy5SzfeARvbSS9b32Y0bk5dKpcycoNhVScrCb5+mlcP3oM3et+5IeVB6nLfpiHrumIK3UIg0cMxH1iIwcL6izXDYT8BftyjmNL0nvfw+TJ4+nduQtdB2QSV7aeQyVGk7E681dFV4+7uK33fr5bU0gA8BVb4+0x22YcVfROQ8mM2Ut+vpO+43pStnY1B6sSybrxLgb370FCXAQV+es4lmg9r6i26WtdjXF0DbTOzb3bfmLjutVs2VhAzICeVG/ZQmnavU1yNL58Pbv3eizrhMfUcHS9kXvuG0DVug0UBzSCpZWWtaOujc71ltaa+a2qDXWha/76QrxolrVKaz+I3OvHkDU4lyHD++Mq2MwJ91DGjBtDxtAxpLOR5Sv3UdthmPVYx+GMGTuaAUOHEnfwS5bvPIXZ517lGtmYpoGvxGvJyZKCDU3yuWbLFo6XBCz3hmIuFFWalmt4C9db5kdFlrXtEedAawxiBpGVVMi2vWVhPylyRuO13t8wX5qNc+FmDh2qarYmABhea/2uKrPGpVZxzBe6H9h0hBrFeUZy0/FdsXIfpSfUNSu0tqniXNqhaW78sKOE5BHjaH9kJXtOBQmm5JAdvYkt+RW2YnAluNLXRtX+Zv++ckv+VCn2naq94+FDFcp60hJ1R1UPVdcL9FavR6o5G0rVL8teumFdDaXqn529dLhxKEi6S3kfjp53MPHhgVSvW09xQD0XT56yvieoQwtpq53TdS2xKq8iPncCN40ZSbsT37Jy2/H6MXR0ZcAQNwWb9lKLRrCyGvc1E7hlbC4pNWtY9ZM6fheb5Ffr55eqz0WVpr1YXWX5pacMISvuAFt37MPXYzxDtI3sjR9vGYOiLhOb3eu0JaFxVI13rd6VzFtuYuigkQy6JpcugR3s3nmK+LyHuXnMCBKO1+dPbbmf1BumcG1ODqm1a1ix5jDedoOte8HYYZZ9brBNfGr6yt/TXAzhngs1FhpHLTMz04yMjMTnu8J/gBSIjY2lurr6UnfjiidxbBkSx5YhcWw9EttLT8ZAiMuPzMvWI7EVrUnyS7Qmya+WIXG8uCTeLSM0jm3nu7RCCCGEEEIIIYQQQghxnuRBqhBCCCGEEEIIIYQQQjRDHqQKIYQQQgghhBBCCCFEM+RBqhBCCCGEEEIIIYQQQjRDHqQKIYQQQgghhBBCCCFEM+RBqhBCCCGEEEIIIYQQQjTDeeY/IiMjL2U/WszVch+XmsSxZUgcW4YnZeKl7sJVKbZmieToZUDGQIjLj8zL1iOxFa1J8ku0JsmvliFxvLgk3i2jcRzlE6lCCCGEEEIIIYQQQgjRDHmQKoQQQgghhBBCCCGEEM2QB6lCCCGEEEIIIYQQQgjRDHmQKoQQQgghhBBCCCGEEM2QB6lCCCGEEEIIIYQQQgjRDEdycvK/OJ3OC3oRU2/PgLufYcrkG4g9vIqD5SZadCbXPjqXe8bfQkZKDYd3FuEf/Bi/enI6Y66/jbzr+uHf9BPHfGBqbjIm/TN3dS8gf28pRkx/xs14hnvuuImM5BoO7yrCi4YWm8P9/ziNTofWcLjStN6Mw4FhGBd0LxfK1BLofceTPDxxOMH16zge0OqPmxH0vHsuox357DsVwIxIJ3fSdMaMyCGzi4+CfccJpE1gxszxZGZfQ/aAeEp27KfK1KxtHb245uFZXJ+XR2Y3P4V7juLDep7quhEjnmDOhGvpO2gUQ6+7m/7GGnYc8Te5h8shjhdLaHz0tIfsjUFEb/ImTWfMyDwyOns4vP8EfrQmr92W4hhKz3qUpyf14siGvaTeP5v0Yxs56j2/8xwOBzURfS9Oxy+SiOxsfntnV7L6dyInpzcDg0fZ4krnmQm9GNKvEyN6uzi1p4JyRyzX3Z3NHUM6M7iDj72HPfgUx+pCcg/AdMVx410Z3DKwM4NT/Bw45MEXcp7bv7fN5uiFaOn8bjwGpqNH/fqem0dGpxoONqwteq8HmfnkaOo2bKA4TF3R0+7ggQfvZMiIGxl3fQ9KfsynVO+pfD1bbV29LXVKlWuqthX9pjFrxm1kDhrLoG61HNxzjEC/ycx65HYGZF/DwKEZRJ3I51iVqaxdKnbq2fZjnblm8uPckJNLRo8gRbuP4E+byKOz7iIzeyTZQ/rhLMrnhEcxXv2nWvpcp4h9uPXfdPTiuscfJH73Zk76ra8f7j7s1nQ9YzqPT72ZfoNy6Zdwiv0HSwhEWscooLjf4m4PW2J/ouODlnpXqRhz1bgd9aVbYlAXYS9frgRXY/0Ot/+z5KNiHxtubxtKtbcNzQHLmqeYT6pc8kX0Oe+cU/XL50hTzju792Rn3WrpWPq0RFttwbrOhDsWSs+azoOZJ9h5qI6MSXPoWbQJrpnFnbfdxribb2BAxiDae7ZwsLSLZa1Vxe9ik/y6gPxSxCD0vc2Ftr3a8gto8T1CW2CZp3p3y3h7HcO5c/ogTuXvw9sw9qajF6OmPMb1ubkMSKnk0P6T1DnSGPXwTK7LyWNAcgX7DxRjqvZBPa17qKB26XPqYrga9zQtzc7aGRrHFvlEasSQB7i20ylOlNc/3DRNjZjB19O/egkv/+EVClKuY0hXJ8Etr/Dn3/+W91YXcXrrSnZV1nfEkXo9o3ocZcOqQxiaRkzW9QwMfsvr//0OJ3pcz+CuDkxTp2POOLoWr2PT0fBvtC41R7+bGBhYwebCYJPjeuI1DEvey/rd9e/enAPG0uPY+7z3yktsjx1FVjsdMCnf8g7vvvBH3nl7KceCmrJt1OAbSDv+DgtenMfWqDEM6+pUnqc6FqwpZu8383j7hRfYeOw4Rw8p3v23IdaY2RuDyKxr6X70Hd599WX2tR9NZoJ8uLspA48rhV7JjhY67+pi1tawc2U+897ZytriaoqOBAGTkp27ePGdTfztkyIKTA1njy70K93H397dxs52XRnsVh9TiUjvSvrJ3bzw/ja2uFMZlnBx7/Hq1nr57egzmrTSRSx46WX2dshlQJyOaWrEdkmg/JhGpy6/vFboumQc/JwPXnye5QdPU/TDUg4F1a9nt626TinuUtEWDMo3vcnbL8xjR/woBsSfqXELePeFP7Lg5VdZf8xQ9iUcO/XM0SuH9IrFvP3C82xmIP066IBB1Y4PeeeFP7LglTfYfMr6h9iGO7H0WRV71fpvmhoxA6+n1+l17Ko++2b1/Gu6QdmWt3n3xfkUdb+W/u5wY6S6X1XsrfUu/N6kaVtVDOzmi7g0wu3/QvNMtY8Nt7cNdT45YDeXLiTnVOeFm3d278nOutXSsbTbNlz/7K61jWmawbEVL7Pg5a84fGwtn770F77f5Quz1l5+JL/U7MagpduGutLzqzX2CG2R3fF29B5Fr9MfseDFl9jXYTT9Y3Qc6aPoeXoh77z8Cjsi+tHdBep9kHUPJcQZ51Jfz2iRVSlY8AUL53/Ncd8vb06iY6LwlRyn1neUkqpoot31/y8qawJ3Dg2y96c91BhgavEMGHcN5H/N9or6hSVY6yOgOdA1B7rpw+c1ISqbkUPiObx+LRXm5fvXg+C+RSz+ejeNH0+apoPOOUMxNq/kVMPYOKMiqasqxcBLVZVJZEz9PWl603sLbWuaOvFJUVSeOEnQqKX4lJfIGFN5DdWx4M6P+Ga7B2IG0TtmP3tO2U+Wq40qPtD8GADUbXqF95adxKg/ATPc+/I2y6TyqI8OfTv+ciSyL3nT/oGHH/v/mHz/NSRopvK8tsC//yCL9gYhqj39osrYVlqfQFrIX9tNb4BApAOn5iRa81PrN5XHVBwRDnzVdZgEKK+CyKjLd9288rRiftfWYkRG49TdRGleav0G4CI1JcjBLRXEdumAZqrXfABH+t3c0r+K3XtLMDRN+Xp224arUyqW6/4sEpdZQ02d+o1DuL7YOU9ZzyIjCNZUYeJh98cv81PYh6Zn07jP1tgr139HKkOvSabgpx34z/IJhwup6T8zyqnwuIiJ1s9pjFRC653d11PF4EL7IlqXar4o55ViH6s6pnI+OWA3ly4k50LPi4hWzzu792R33TqXWOo97uPR384iI9oMe127be2+J7ggLbLWtj7Jr3p28ivce5sLaXverpD8auk9Qptlc7y1qCgMTxWmUYvHqxMRBdTUoKVm0TW+iu2LP2ZfXTPxbbSHEuIMu/ucxlokg4zTRZzyKf6HexT3PXEnyRpw5iPZ1QfZtdsge/IUMuN0HF2vY2T3Itb/6CR3xiT6x2j4DvzE4YTxPPa7R0grWc+u0wYxWTmkx5p0HPsPPDL9FrpEXJ4LqhYMEgx9vxgzhKHdj7JxayQDx99GV0dD3yOHctvkG0k6M9/9tUT0eYiJc37NA7dk4dZMS9tuziDVpV4Su3fHqSfQraOHY0es53V1hDnWICojk6jDWyhpu89R1fGxMQZN4ph+KwOC+eyplL8uhjJPHsDXKQN3wyqjR+uUrn6Nd195kd1xQ0mP0ZXntSUxvTvgPlLMCQMIBIhM68fsh4fyyJgk4jEJHj/BwXb9+fuZg8kqP84OH8pjYUV05MF7utG+Dca2tbVWfgeP/ERBhwd59Fez6VfyEwc8gLMrKa5ijuwrJJjSCxeEXZfMko2sWe9n6MS76eow1a9nsy1grVPh4mFpq5M4cBIT58ymf8k69nsANBIGTWLCY88w6ZE76aWffX1t4oLqmU5sxv1MfOwZJk28nmQ93P5B0WdV7M9ct9H67+g1hqz2Gh3GPsbdN2cRq9m7j3Oq6eFYxkh1v4rYq+qd8vUUbRUxULcVl5sm80WRZ6p9rHJvG8555oDdXDrvnGt0nqaZ6nln955szs9ziWXwyCq+XfQ1Tb4oFnJd223P8T1BWyD51Xx+nREagwtpe9Vr6T2COGfBI9+wYnc78h75PdPvHUG8Vr8HtbfvE6LeOe1zGlzYj6M2x7ORL98qpe+D2aRSn8B1BSv4vugggSdm0jnZSdmAbBw7PmBnlZvbO6fgdWokj7ydbkXzee65EobOnE1uvx/Z0a0Tns3v8NbiMoY9PpcRGcs4uqWuVbvfEkxTI27wcGJ2LeRIMIoeHdtTc+Z/+rbw9XtButzWi0QTjCNLeO/5JZhae0ZMn0hG/A52ZVjberZ8zva77+a+GYnEli/h7SqDuLym51WbhL2uabrp08/NkWXHQz451HaEGxejyN4YAGgJI7jpxnjy3/uQysv4U9KXihY8wOG6m+nnhuMAuEm9ZiL9RgaI6xDBbme489oG03SSmR7B4TW19fPwRAEvvVWASSRj7+/HoNgyNvfqSXrBFv57bZAh4wcwrmM5qzs3PXZtcjlfnQpzkbpTLPoUeo1LpN3FvLk2oLXy2z30VnoefJGXltUwYMI0RnbZxarqHiR3HkDH+/3ExR4nxbGWsnDre8UBdq4pwtXrMTq7dUr7NX29Eam72NKz+bapsTqnwFKnTL0rwx+4lz5xOsaR7/joq20ENc3S9hgG5VvfZeGyGjImTGZ4ym7WYlK5/X0WflWAoWmYpq5ch0OvsfDLbcTYrGdhfnyA6p0fsfDzfQ01T1Peh6no84/eprHv5FxLYbDp+l9h6HTs2YmKFS/z4SoPfe+fxTXdd/FtUWdb92Gnptco76tByBip7lcPiT1oEFLvMhN2kK98PUVbrDUwUtlWXE4az5cg6vl3wc4jB+zmkp3zVHNb1a/Qebeg2sB0dGu2bYIRfn99IbRgMYV7gMbfTLEZy8ZtVfvbs70naAskv+znl+q9zYW0vdrp7vPfI3xX0JY/zdRyNK2WYz++xTtrE8ieNJ1BnTayWrkPEqJltciDVFPTcGgO6vPUAQSo9XiJTEtGMxy0j6/FU+2g4/X/wH0dl7Pgc4OEmDoqvaDjIHHEk/zDCA2Ng5xAwxXhQjODDT/m6sAVoVFTXQMJDtB0dEzMK+gPXQ6CuLMmM7FfBPHxJzkBBGp9RHRMxAxWEh+n4a01ici4j7Gub/lui5e6Oo1oXd1WM46T//F8au6aRPJPO6nTdGJCzjse5roAuLPpHbOf1SeDcBn8cPelooqP3TEw9S6MvCcXz7cvs71c3i2q+ThUYDDmBo1jJiQOHU3C3pf5aKPOsGkzcCjOa0sPUolqR//oMr4vqf+0WETvNG53FvHJriC+ALh1k4hIJ0GvQdAM4KnT6RKJ5VhUZP3LmS43w/o7ObitnHI0gr4gEe0jCBoBEuPA662/jmgprZPfzqgIgp5aTMOL1+cgMkpDT+qKf/2rLF5ZSZ8HZtIpTqcydM03wT1qNrdp7/PRWgdRkQG8fkP5eqFrmqqtz28o65RmHGHjB39lY0N/TXRiRz1uafszo5ZabwSdwnwkV13jQq6h6fbrmc+Hwx2PRjn9HphGwvKXWK+4bug1aPwQtlGf9Y7W2BdUpoas/xq1Hg++oA8MP34/6E7792Gnpp9o3Hk9kYQYP55a9RgRYcmOjRsAACAASURBVCPRsNa7GId6b4Lid8RUNVDZVlxemsyXs8wrm8zI7mQMjOHohl1Umtp55YDdXLJ7nmpuozwvdN5p9tp6zAuOmzIOjo70SI/i5L5CfOcYy8ZtvaZijecs7wlC1flwxMSj6XW4owzqfAbKvYNirV13GX79WvKrIQ428ivce5sLaWtxleWX3u389wiiEcV4ry21nmZ6vejuRvnjhcjhMxkf8TEfr67B5zObj22jPZS8LxIXwpGcnPwvTueFzWbnsDn8/Zy76R4XS+chN5BubGLjxpPEjrifO24dRtShr1i29jBlZQGSc+/n1psy0fd8xQ8/FVC8dzlrln3F6hUnaTeyBzUb1rL3SC3JOQ9y6205JJ78jmU/7OXU8UoSciZw5+2jiC/+jh++30t1yF+7Lod/kUxPu4MHH7qNtE6ppPbLIK5iPXu2bmTLhnVs21JIdN/uVG/dyunSKuJH3c/okSNJrljF6vxjeH1RpN34ILmjriG5cg1rNhdRUbTJ0rbU1HB0u52b0w+y/KciAoDvSNPzarZu5Xihum1M9q1k+VazYX8lpuITqZdDHFubplljVr11K6e99sagIuNB7huRjKvTQLKHZhJ9cgtHq5oW+LYQx3C05MFkxOxj+zYn6aN7ULF+LYdq4sm49nay+3UnITaCim0bOJ4wqMl55T+tVf6r5jURfS/NjbSimH49GOE/xooCP6amEfRp9B/dj+sHd6Jz9TG+31FDaZmfbrn9uWVoZ3rWHePrTdWcVhyrQcOR3JWHbkmiMv8Uxw2NYKWPpCH9uGVwJzpVHuHbXR7Lv3jq9u9tszl6IVo6vxuPQV1JLZ2un8TYUTl0rVvLytWFxA/Jo93R1ewvMQl2HElmdD5bN6y3rPnFpQFSr59I3jVDSSj6hjV7TuE57W3yeqvWHKasyFovLG13n8JXZq1Tof9isaZBoMzaNthhMLljcuk3OJde5iZWrT5AbbtsMhKL2Lm/AlPTwq7Dpab1GuHOC61nRkUVMSMf4MbckSTXrOPHjUXUJWVzzbjRZDT611tPKP79Di2kzytXHbLGPiqf/R3us6z/hw5U0v7ahxmXO4qu/nWsWnMYzzncR3M1vXrrVso6DCFvdA59Bw0m9vBSVu8uwV9uHSO/4n5PRmc1iT2A4YtsWu82FeFRjLm/fbalrSPTWgOLCiubzZcrxdVavxvPF8LkY3mv8U33seUbKEq83XKsoNTEkXot4+/qR+X6zZwOahg21ozQ2NrNpeAF5Fy4fjWdd+pctbTdeoyqMHvzUJb3BGeLZfdbuX9CNjUbNnEqoI5lIM06NqFtTwfO7T2B5X7Lq4gb9QDXjRpO0skfWL2z4V9f11PpN8hNUf5+vKjX2svxX1WX/LKfX6oYHK26sLaW+73K8qvT0NEttkdoS0LjqBpvr5bKgBuvZ3DWMLKGj6RzYBf7dp0mLuchrh81lIQT37N650l85XWkXDuR0SNH0sm7jtXrCvGp9kHuwZY9VLCNfDP3at3TtCTVelpQevZnO1pmZqYZGRl5sfvaKlwuF36//1J344oncWwZEseW4XK5KHaPv9TduCol1yyRHL3EZJ0Q4vIj87L1SGxFa5L8Eq1J8qtlSBwvLol3ywiNo/xchBBCCCGEEEIIIYQQQjRDHqQKIYQQQgghhBBCCCFEM+RBqhBCCCGEEEIIIYQQQjRDHqQKIYQQQgghhBBCCCFEM+RBqhBCCCGEEEIIIYQQQjRDHqQKIYQQQgghhBBCCCFEM5xn/sPn813KfrQIl8t1VdzHpSZxbBkSx5bhcrmIOfnepe7G1Sk2VnL0EpN1QojLj8zL1iOxFa1J8ku0JsmvliFxvLgk3i0jNI7yiVQhhBBCCCGEEEIIIYRohjxIFUIIIYQQQgghhBBCiGbIg1QhhBBCCCGEEEIIIYRohjxIFUIIIYQQQgghhBBCiGbIg1QhhBBCCCGEEEIIIYRohrO1XliLyeS6GdMY3sVF5a7FfPTOD5wyNEwtjoHTfk9e+Uu8tOgAyeN/z8xrU9EAMDm94r946bODmPFjmfDrGyl97d/4ujBQ/5pxYyzHLjemlkjfu2YzfrifVX/4I+s9DXdmRpD+wN8zcO+zfLKtFtPZi9FTJtAvTsdf9CWLFm+iiiRLW73PZB5/MA1flR+zehvfvrWEIr0vYyffS1qkhlH8LZ8s2kBN+r1MurU/EZqbpMRDLPnDq+wNaNbrhulfW6QcA5citr2nKMagH+Mm30tatEbw2FIWLd5EtXllxFKVA6pYVJvW/FHmI2nWODrSyZsygf5xOsET37N44RrKFfExI/pY4l11hcTRrrBrgjOdm5+4ldNvzGNzlRlmXNIscSyT2F5yzkFzeOaWUt770yLiH5xD0tLnWF1qnvd5ofT0ScyZ1o41//kcW2o1InJ+xVPj3JTXGDjjUvAu/z1vrutomXfezJnMvqsLtTUaHF/Khx+upcrULK+nmscn+s5g9j3d8VT5wShn9+KXWJ/0KE/ckUKVx8S392M++nIXdZo1h5wZ0y1t10VPsr1uhs6FcGzVUYd1PapWxEA5rlmPWuLnG/WMJfYLiu+2VZdV882ZPcsSU5/LOqcrFXXnSMAaq3Brct7Uh8mINfAXL+fTD1ZTpoiB6exlOa/UZvxUsaodYM2hH48Yzea7aHm2647dvWjve5R7TMt1z6PumBF9LeuCai9W6bKuH6rzVNdT1lebfVX1zxNmz23nuvZjef7XBet6qRp/FeegWUxMXsKCr0vInv4U7s+eo3DI49yUmUK7Di6qTpdRsOyvLN3dWbnOXG7aXH4pasIRm21Ve07l/tLme12Vqy2/VLVQlUtXynvES0W5H3GO4r5HOrLi5c8oaYif6Upj9NRJ9Hcb+Aq/5JNPN1PlSGf0lIfoG6sRKPychZ/l4+s9ldkPpeGtrIPgabYvfJXNKTNt7WlF23Q+z8ha5ROppqnRLudOBnm/4IX/eJWi1DsYnREBgKPrTeT2KGLdsgMENQ0wKV/7P/yf3/wbK49WU3L8JEEcpIy+ju7Fa1hf5G94Td1y7HLkyryVIYEf2FgYbHJcT8pjRPIe1u7w1J/Xfxy9SxfyxnPz2NNhLJlxepi2BqWb3mL+s3/gjdc/50hAw5V1Hb2OLeDNvz1PfuxoBnXQMfZ/wtt//QvfHThN4XdfsN8f5rph+tcWKcdAEVvVGEQOuoEeR+Yz/2/z2N3+WgYlXTkf7lblgCoWYM0fZT4q2sYMu4X0Y2/yxnPPsjlmHCN7uNR9Ucb76qKKt2lquAfdRNqpNWyvNMKep4qjxPZyEKTG2ZneKc0VWbvn/cI0NWK7JVJ+VKNzt/qxNapPsOerv/Das8+x/tgxig55wsxZg7KNr/H6s8+yPSGXrARd+Xqqecz/z96dx0dVpYve/+1dVZkqI0LCPIRBAgnzlDDZKGorbYvaDApBG1RsvHafe/rz2v2ezzm3z73vuX1Of+7p7mMrbdvdKiq2A7edRRwZA8gsIUIYQsIUAknIUJWqStXe7x8BTWqvTTaQSCDP98/NWnut/axnDbVTJJhU71zBiqd+zQvPPHv+BZhB9a4XWfGHv1LWbwbDvba9VtZ1sm6q5oIdR/uo4po6BirW+Kli73Rftm0jKqbqOW1tQx0rRV8GTGZwzd958anfs51RZHVTx0BVznn8rLFS54G4GhzvOw7PonZnTEu7l7HvqNYF1X2clnMaD6d1Ve06jscVxPJK2gXrenkpa21zmhbhxOfLeeHZDyk5UcDfn/4NHxcGlOtHR9TZ8ku9vzur6/h86fCzrhPXen6p9sJr+TPi1eJ0vD2Dp5B59nVeePoZirtNJStRP3/tDVY88yxfxQylKW0N6va+1nQeWf4XtlWYOD/Tis7oct6RtdPMdpHaJZmaYweo8xVzrMJNfJIbU0sl++ZJaLtXs7fGQNMMTn/8Hzz33n7oOZGhyYco2ueD+JHkjUvmyJZmP31SXeuAGvevYtWHRQSa/aDXNN30nDIeY8daTp8fG8PvJxKTgNvlJU4P4G80lHUBNL3l87rjYwnWVmIQoK7WIDa+6d9dQ+7lzmG1FO0/i6Fpynbt2uiMVGNgF9voMQht+yMvf1KOgQ6miXENfV5U5YAqFqr8AWssouv6QpCcFk/tqQoiho/TpwPE2mxWdvG+nijnnKs3EyanU7JlL43nfxoaXc40dUscYxI0iW2HYFJ7IkjXoRlciKoZl8VNi3/Bg8v+iYfm5ZGmmcpyrfPQp3uEQztqSezTFc00Ce99nQ93+8E7isHxB/m6PKKcs9+Kw2PU4wsayvuBdR5flFFFjS8Gr/fSjgyO1k3FXFBxuo+q46KOgb1v46eKverZLnm+nY9pQrzLdk5bxsgmVpZycTFEfLVE8LPv9eUUVJjqGCjKXXr8muea6Cic7juXchaNPmOqXM6+o1oXVPdxWs5pPJzWtTvvOYnHpcRSz5zL0n95jBHx5iW3G11XeX5zuNY6plxnOp7OmF+q/T06R5ycOS/sRa3Vbaqv/sxw2a6R/PrWt3vhtfwZ8apxOt5xcZi+OkyjAX/ARWwcGPX16L1G0C+lnj2r3mB/yNn561LPtOL6djnvyNopgyJUV9WS3HswSQmD6N2tilOlQVx9biG3bxlbNsQw5eF8shM1zHCIUEij+5gRxB/5kuIG8I6cwqBEk/Tv/YKlS+6kT4ypvNYRaeEwkegF0zuOif3L2LYrltGzf0Bft0mkbAsl3eax9OePk3V2Mwf9NnUbA8TeOI/8J37J/FmjSNTOP3fseO566Daa/5DLPPMlG7c2Mv6Be+jrNpXtKtvopFRjAFhjazcGQPzgO8k2drGv5toJqioHlLFQ5I8qFtF1DzUY1FY2kNa/Lx49jb4ZPo5f7Kc7ily+nqji7Rl4EzldXaTf9BPuu2MUSZp1bmqaNY4njoUlth2EUV5MoEc2F85herxO5fo/sWL5MxQlj2dwoq4s1ypPX3p4KigrPkokI5Pm3wdJyM4hoWQHZyJ265dO2siF5D/xOMOqNrPfb3M/5ZqmkTo6n4XLnmTRo/cw0H0pe6yirsN1UzUXlBzuo8q4XCSmLSnip4j9pezLrUZON9VzWtGGMlYXiXMLDmPgPH6qWF1JDom25HTfcXwWRXHGtHOZ+47lPGVzH6flmrM9+15CX6PbdRKPS4llpGwda1Z9xKHApbdrqatYLx2vtdepTpNfNntCdI44OXNeOF+2VhdQf2boFOzPDdfiZ8RrUaRsNZ8VdWHaI//Kw3NySdVMQCcxey75y55kUf6tdNc7Sz6Ky3U578ja5XekappJdcG77Bm8gMW/TCLm1Pv86QT0mj0Cd+HfKKxP4K6ePQheaN0zkJyseEo+KCSEhz59euDb/jLPv1XJhMf+kUnZn7Mj6lpuzicc2xFqj+63KdPUSB47gYR9r1EaiaN/elfqgaTxs8g8/AzLP6lj2IIl5PYp5AvFf4Mzjr7FS78DU7uB3IfzGZG2h50Awe2sfiVCn1mPknbhp4nnDvLV+lJcA5fRK0GnemTLdjvxr0O1ME1NOQabwRJb1RgUVJloqbnccXsyu15ZT20H/pZ0a1SxmNS7kB2Z1vyJjkVO6h72DrXG8fNd77Jn9r3MeSSVpOp3eKHWALtvQChy+XpmmhpdBvbg3BfLWbnWR9a8n5A3oJA1R6y/99mviGNQYtshaOFDHA3dwVAvnALQvPScvICsvAiJXT187bIp1wo9YQAZPbPoNqeRlKRT9PJsoiQMppnIkKxESj89QQRduX5twKB6z8v87WMfOQsWMan7PjY0KO6nWNO+xKT2q5W8+v6R899+0ZQHBFPvy6T593Fjko5x/BNee283KOriYN2sMXQyFHPho6M9W7Tx6ru78TrYRyf1LmR7X2tc1tZaY3DEUD2HNX7rT5stYm9o6mdT7cvqWFmp5rlRZ11rDyvXDdVYOsurY9Fja7MvquJ3TBGrAlUeiA5Bte/k9i+koLuzsyi0PGP2TtQpO2ezqVzGvhN9noqzuY+Tcqp5F3a4R9rVVZ33HMfDYSy1cDklRdB83jhtt3ldu88dTs8d16POlF+2n1kU+RVNtRehaa3WVeVc5/nMqT43XC+fEa8FmtbA8Q3P8+LGVEbnL2Z0z62sw6C+8HVefefARc+0QlyJdvuektlQxOd/+h0byyop3rieanRcmovUCU/w5P+3hGHN/juqZ8AEBrn3UVgcAiLU1/vB5ULDha6bGIbqWnv1vO25CeMd8SD5SxeS06Xp07U7Loaw30/ECNAQcBMXrx6KmJy5fH9MMroRJBjS0F0Q9geJSelCpDGGpGSdBr9J4uTHmT81DV1PISG2kUCjoWxXfEs1BtGxDQRM5RiY7j7k3jeV+o9WsNvBH4/p6FSxUOWPJRa6uq4WPsHON/7MtjMVFG3c+80v8zbjBpCTO5zk8z8hV8W7M/D7fASDDWCECDWauGympyqOEtuOIsjhkggZPXVME9LGTiN1/195/aVXKDxjKMs54erfh8atf+K1v/wX68pT6Zl8vp53JEMSDvL1qaZviFx0DzF8+Bs8xCe6lPdTrWkXpXchxRvC5zPQjDK2rvwtLz37f3jl/T22HyCdrpuquRDdRkRTr0fKdUtxTRWDiz5Hs/ipYu9kXw4EzIu30TymijmtWmtVsVKOZSCIy5uCiwSy5z/O5HRNnVeWcuqY2uakKlaiw1Llj5OzqGlq1jNm6Py35tpg31GtC6r7OC3ndI1yWje63YvFo9VnvVgs3RkMyOpP/PlYXkq70XVV66XTcwehEC5vKpqehDcuQjBg82yKdaYj6kz5BTZ7AtYcUbE9Xzqo6/gz53WWX99othdeb58RvxNOxzsQQE9MRtO95/MH4ictZd60G9ANP4HgRda2C5qdv4S4Eq709PRfud1uIpG2/eNDpqmRNGYhdw05zJr3vsKHybn9n7Ph0w9Yv66cbhMzqd9awLEGD5kz5jDozEd8VngGUwP/6VpSJ9/P3XdNJrX8Yz79ZD+nT9VZrtUZLSdZTEwModDV/ZaqPuhuHnhgFoN69KJ31nCSz22jaNdWdmzdxO4dpSRk9ce3ezcnKoL0uGUhM6ZMoU+ogLXrjxAYOLtF3aTqbRw+4WHQ7fczJS+X7rUb2LCtDF9lHSl5c7kpdxLdz61j3c7j+KrD9J65gGl540gpW8P6otPUlW5v0W797t1UZVrbKKlsuZB0hDi2N02DYGXAMgZ10bHdcZxAQ6xlDMIj7mfOxG54eo5m1PgReMt3cKy25WbZUeOoytH9xX5LLCoV+VPhi4rF9jJqzlpz2W9qePrdxfcHHeKzgjIaz/8U29X7Fu6+J4u6rdupCGtEqmot8Q7R8eb1lVDG++ta0mfkM2PKVPqGNrN2g3r+l1QayjhKbK8uvfsYhicUs2ePmyHT+1O9ZRNH6lLJvuUuRg3tR0pSDDV7tnIy1VruWNQfso0eg+7jpnPD8Q0cOBMhkpFLdtxOvj4VIWHULEYF17O5uAZs1q9At7FMnT6VYWOmMpAdrF13mKSx1vvtK3Fb1rRQt1Fkp5Wxt7ga88Lv3csYy9RpU8gaM4akI6tZV3Tm/B+JjIpHt5GWukbA2bp56GCdZS74o769oWkQKNvmaB+tjlqPPl93lBSbmFqeI31Mi/it23AQn6G1iL2pacpns+zLivl2sZhGz2lLG9vLqDldb4lVvWJ/8tXU4504l9um5ZHhK2DDluOkjrfGoPBATYtyG7dZ13O7+B2IjLTEquEGaw5dq671tdHpvhM9X1Rn0eRz2yg+HLScMcNobbLveBTrwtGSGst9DIfllPMuKh5J1ds4dPCco7qq/h0pDSnj4WQcbGPZ/07m3T+C+q3bqAhrl9Ruy7o26+Up6/oRvdYCRM7VkZw3l5lTJ9Cl/FM27D3VFBdXb7JGeyndWUwDGpHaluvMxi/LCHSAb6F35vyy+9wYUOSXqq7dmbO1uqrPuvW7d3PWuP7zS3VuCGa3/hmxs4uOo2q8G/TeDL9tJmNGTmDkxDx6hfexv+gMyZPv59ap40k51ZQ/Deca6XnzAm7KzaVnQwHrC44S6DKKvBlTyR6Vx+hxQ/GU7qI80dmZ9np0rZ9pvgt2a2Jz0XHUhg8fbsbGxhIMBr/r/ra5xMRE6uvrr3Y3rnkSx7YhcWwbEsf2I7G9+mQMhOh4ZF62H4mtaE+SX6I9SX61DYnjd0vi3Tai4yh/gkQIIYQQQgghhBBCCCFaIS9ShRBCCCGEEEIIIYQQohXyIlUIIYQQQgghhBBCCCFaIS9ShRBCCCGEEEIIIYQQohXyIlUIIYQQQgghhBBCCCFaIS9ShRBCCCGEEEIIIYQQohXyIlUIIYQQQgghhBBCCCFaIS9ShRBCCCGEEEIIIYQQohXyIlUIIYQQQgghhBBCCCFaIS9ShRBCCCGEEEIIIYQQohXyIlUIIYQQQgghhBBCCCFaIS9ShRBCCCGEEEIIIYQQohWu9PT0X7ndbiKRSJveWEsYzoyHf86P7r6DnJ4BSguPEhr9E37+D49w8213MW3GYBoKCjjlGcEtj/6cObPvYHi3Wo7sO0Z47DJ+/rPFfO/WWUy7ZRiN2ws4oY9g5qP/yH1330FOhp+SwlIa0Fq0GRMTQygUatPnuFSmlsqQH/6URQsmEtlawMlGDTNmMNPyl/C9SVMY0TdAyf6TBN0DmZy/lJlTpzOiX5jSr48RQMM0Yxh438+Z7t7J/oowZswQpucv4Xt5U8np5ePIgVMEtTRLG/qgu7n//rsZN/E2Ztw2gMqCnVRnzrZcO6tnMiV/KTOnTiO7Zz1HDpwi1AHj+F0w3QMssQjGDLGMVXjwAh5dejc5o/IYNTyFs4XF1LhvtIzLtRJHZY4qYhFS5KM++AFrLHRrLje4W88zQDk3rpU4Xi3ukUv574syKdtaTO+5yxhychvHGi6vnMT28rT3GFj2AcWcVa75Axey9LG7yRmVy+hxQ/GU7uKkz3o/d84Slv34+wwbM5WstDMUHzxD2KPek/SB83nsZ9Np3Pol5WHrHL4gupw7+8c8tmQWOWNuYnS/AIeKjjetKe6B3LrsflK+3k55CNtyKpb1SBGDSsPahunOVD6b5f6qPUGxloUHWfdWVbvKZ1CMpXvYIh57+C6yR+Uxenw28ad2Ut4733LteK1paSMm96c8seBmskZPZvwt9zLc2ERh7B2W/tVN/Jml3FfHQpZxU92vKGWBcoyi66rOK3Zj2dFd62ujKs8AxdxQ5LzDM2al0TZ7uvKcqziLqfrleG4rz+bO8tVp/5R1lectZ30GxV5wJc9rkxPR3COXcP+Ik+w9HGTEoifILNuOmbeUe2fNYsadt5KdM4au/p0cqurD5EXLuG3qFHIGGJQVldk+x3epU+WXoq7d/uSkz07nuarcWQefi+D6y6+2PA92JpZ56h5gGe8GzyTuWTKaMzsPfPPOx/RkMuXBn3DrlCkM71HPkeJTBN0DmZL/KLdMmUpO91oOFpdjDLaehysyrWffiHb1c+q7cK2fab4LTvbI6Di2yzdSTVOjS+4PGBn4kGf/7a8c63knU4bFABAqWsG//+Ix/u3//R1f1kPqpO+TE1zNc//xJlVDbmNsbxfhHcv5j//nH1i5oZQzu79gb7WBd+wtDKt7m+W/+iMlPW5hbD9Pe3T9inmG387o8Fp2lH37YtqT/T0GnFzJS398hj2JUxjZVSdh7G0MPPkSLz79FLsSpjPh/PPoaZMZn36ALfv8AMSOvJl+x1ew4o/L2X/DTYxM05VtGIfe5pU//J7PDp+l7LMPOdSovuYZOp1BVat48enlHOg6jeFJnfdLyapYqMYKDKp2vsyKp37Niy98wPGwphyXa4UyR23yIjofVbFQ5bLTPFPHW1xcBJ+7B4MyWtv8nZYTl659xyB63jld88Ggbu9rrHjq17yw/C9sqzCV9wOD6l0vsuIPf6Ws3wyGe1HOY9PUSOyTyrkTGj362O+56nIG1Tue54WnnqIwJY/sFB3T1PCOnEnmmQIKaw3bck7jooqBqg27/Taack9QXHParrINxViCSfXOFU3j9syzbD5uKK+p2jDqyznw0e95/qmn2XbyJMdK/OrzgKKcatxU5ezGMrrutbwvXm9UeabKH2XOO15vFO1exp6uPOcq7qPql+O5rajrNF+d9s9pu077DNY170qeV732tE7TIpz4fDkvPPshJScK+PvTv+HjwgCeAZMZXPN3Xnzq92xnFFndOuZ8v57zS1XX8Vy9gnmuKne56/+1nl9yJm8bTsfbM3gKmWdf54Wnn6G421SyEvXz195gxTPP8lXMUJqmqeo8bD37CnHB5eyR7bQquUjtkkzNsQPU+Yo5VuEmPsl9/t8MjMZGDMNE0zVqNv+Zv6zcQGV9DQ2NGrqrqUvxIx/g7nEGB7Z8TZ0JCd54ApWn8AePcbYujoTE9un5lWrcv4pVHxYRML+95o6PJVhbiUGAulqDmDgXyWnx1J6qIGL4OH06QKwXTNNNzynjMXas5fT5MQxt+yMvf1KOgQ6miWGo2wBwDbmXO4fVUrT/LMb5n7BEXzP8fiIxCbhdXuL0AP5G+w981ztVLKLHKja+KY6a3nLjU43LtUKVP6pYqPIRWsbCNHVlLjvNM7t4i4sxqT0RpOvQjG9+Nm/GZXHT4l/w4LJ/4qF5eaRpprKcaCvtNwaqeXcpa76T+33DqKLGF0NCvHpPAg99ukc4tKOWxD5d0UxT0UJr5eLwGPX4gga4ejNhcjolW/bSaOlvs3KX8ByWGES1YbdGqajWLbu1rLV27diNpSOKNsJ7X+fD3X7wjmJw/EG+Lo8o+6cuZx03u/s1aT5G1rrX8r54vVHmmSJ/VPl9JevN5ezpqrxR3Se6X5cyt1XP5DRfnfbPSbsX67OeOZel//IYI+LN82VbrnmXUlf1vFe09qjExRDx1RLBz77Xl1NQ0VY3blvXseeKWwAAIABJREFUc37ZtaGaq05yxGldVbk2X/+vkfySM3kbcTrecXGYvjpMowF/wEVsHBj19ei9RtAvpZ49q95gf6iVCJ8/+3q9HfXlvLgaLmePbKcMilBdVUty78EkJQyid7cqTpUGwTSJGZrPk//+FI//+Fa6u02MhmpqfdB96h0MDhVSdLzpx19G/WH2FRmMzH+QUcnnu+nNY+4T99BdA62DLkNaOExEtXnEjueuh24jTQdNM6itbCCtf188ehp9M3wcL4uAdxwT+5exbVcso2f/gL7ub0cyfvCdZBu72Fdj2LZhnvmSjVsbGf/APd/Ujb4WKdtCSbd5LP3542Sd3cxBv/U+nYVtLJqNFQCNAWJvnEf+E79k/qxRJGrqcblWqPJHGQtVPkbFIkmPKHP5kvIsOt6iVUZ5MYEe2Vw4A+jxOpXr/8SK5c9QlDyewYm6spxoO+02Bop553zN10nMnkv+sidZlH8r3XXzovvKBZpuqvckT196eCooKz5KJCMT2+9NKcvppI1cSP4TjzOsajP7/eAZeBM5XV2k3/QT7rtjFEmaqSznNC6qGES3kWyzRqmo1i27tay1dpM09UlMPZYaqaPzWbjsSRY9eg8D3aby2sXaSMjOIaFkB2ci6v4py11kfFveTzFGF6l7Le6L1xtVnqnyR5Xfl3LGVLrMPd2SN1H3ie6X7VlawfZsrmr3MvvnpN2L9TlSto41qz7iUOB84ag1r5/Hfi2Lrqt63ovFoDO4HvPLrq5qrjrJEad17cpdyvNeT+RMfnVFylbzWVEXpj3yrzw8J5dUzeY8LMRFXM4e6W69yGV0RDOpLniXPYMXsPiXScScep/nTkUIn3yW3+wCLT6HO386jzH9P+eDgxEShs1n9lSN7S+8zfHzv4MtdOQL1hw9TONPH6VXdxenAPxf8t6LlWTNH0EvrrEJEdzO6lci9Jn1KGkm+He9y57Z9zLnkVSSqt/h+RqD5OkTSNj3GqWROPqnd8V//l2xlprLHbcns+uV9dSa9i+QzXMH+Wp9Ka6By+idqFN2zmxxrVeCTtXwWWQefobln9QxbMEScvsU8sXxzrPZXWCaGknjrbHYDJaxMo6+xUu/A1O7gdyH8xmRtoeCKtPxuHR0qlhM6l3IjkxrPqpisUmRy0mTLyHPouItWqeFD3E0dAdDvTStjZqXnpMXkJUXIbGrh69dNuVEm2mvMUgeq94HVKLX/OMY1Be+zqvvHMC48G1Mh/eL3pNeqDXQUwaQ0TOLbnMaSUk6RS/PJo4YfZk0/z5uTNIxjn/Ca+/tJpJgLXcMg+o9L/O3j33kLFjExIx9HBjYg3NfLGflWh9Z835C3oBCPosqN6n7Ptad6dOijVff3Y3X5jmi97iAoo2PFM9muvpZ2khQrIPb+6rXMkftHu1piVVY+U0+k9qvVvLq+0fOfwNIwx11zTR1MhRtrDkSxjQTGZKVSOmnJ775BpHyPBBVTleMW0kYaznFGG1oUNe9XvbF641panSJyp/c/oUUdHe+V6tySuky9vTovIlzeB/VuhU9t+3nnbVdU7eub2FNu+z+Oe0zmoYWLqekCEDDNDXl2u2krrC6nvNLteaq5qrTHHFaV1muk67/cia/ujStgeMbnufFjamMzl/M6J5bWRd1Hm46VwnRttrtZyJmQxGf/+l3bCyrpHjjeqoMnbS8h1l492i8mgaYmIAr43vcfe9QKt77K5tPRDBNjYzbfsl/W5BLsrc7aQkhggEDv6+BuBu6o4Uz6JocwF/fXj1ve2F/kJiULkQaY0hK1gkETLTwCXa+8We2namgaONeQpqOmzDeEQ+Sv3QhOV2aVl3T3Yfc+6ZS/9EKdlepd1LT1Eic/Djzp6ah6ykkxDbSEDQs1wKNBu64GMJ+PxEjQEPATVx85/2xmCoWqrGKyZnL98ckoxtBgiEN3eVsXK4lqlio8lEVC2Uu2+SZGTeAnNzhJJ//JpUq3sKJIIdLImT01DFNSBs7jdT9f+X1l16h8IyhLCfaWvuMgWreRVOt+YGQza/PuNj99C6keEP4fIZiHmu4+vehceufeO0v/8W68lR6JutoRhlbV/6Wl579P7zy/h7CNuW+YfjwN3iIT3Th9/kIBhvACBFqNHE1706zctFtRBT7o2Gi3ONUbaieTdmGah2MuhYbpztvVxGrK2EbP+9IhiQc5OtTkYvnRrNygP24RZVTjZGq7vW2L15vVPnj5Ex4sZxqiz1dlTdO7+NkbtvNO1W7qrpX0j+nfW7qTwYDsvoTfz6WqrXbad0rEgrh8qai6Ul44yIEAzY/BA8EcXlTcJFA9vzHmZzeMV+cXc/5FV33onO1lRxxWteunOP1/zrLryZyJr9iTsc7EEBPTEbTvefzB+InLWXetBvQDT+BYNTZUqXZ2VeIK+FKT0//ldvtJhK5tF8+3hrT1Egas5C7hhxmzXtf4QOC/ngGzJjPrDvHEl/6CZ+uPYg+YR63Z/em+4iZTLn5ZjKqPmVbUYjuk+cw6/s56Pvf59PNpdSd8ZM06Uf8cNYE4g5/wCcbS775C24XdIS/SKYPupsHHpjFoB696J01nKTqbRw6eI6UvLnclDuJ7ufWsW5H01+89fS7i+8POsRnBWWEgUDZNnZs3cTuHaUkZPWnfvduarLvZ87Ebnh6jmbU+BF4y3dwIv2HLdpIPreN4sNBes9cwLS8caSUrWF90WkaqsOWa76zQXrcspAZU6bQJ1TA2vVH8JsdL47tTdMgWBmwxKKuss4yVoGGWAbdfj9T8nLpXruBDdvKCI+wjsux2pYHh44ax+gcTT63jf3FfkssKku3W/KxwmeNRUCRy6rY+k0NV+9buPueLOq2bqcirBGpqlXOjeY6ahyvFr37GIYnFLNnj5sh0/tTvWUTR+pSyb7lLkYN7UdKUgw1e7ZyMtVazslfjBeta88xUO0DVZmzHa35kS6jyJsxtekvvY8biqdsF4e/Vtyv6zimTptC1pgxJB1Zzbqipr9c2nweh0wXPcZP44bjGzhwJkIkI5fsuJ2Wl2umqSvLHYiMZOr0qQwbM5WB7GD9hoNUldeTPiOfGVOm0je0mbUbjhDoNrZFuXUbDuKL+ivBmmaNi2/3bk5VKva409Y2/GbLZ2tUfCPHbk+oVuyZNaq91aZdS+4ozgileg7ZaWXsLa7GvPA76bqNbHFN0yBYoW4jYdQsRgXXs7m4BjRoPNdo6V+YluUM7Me3eTlT09DTx7QYo7XrDpM0drql7qFuc1vdF68V1/raqNznv6615I8qvwMDna03YdpmT/cozlNHS2os9wkPmm2ZOyWVRqtzWxWPpOptHOs1z1G+Ou2f6i+Uq9q167Or/53Mu38E9Vu3URFW7wVnDfVa1rKupl5n0u5S9iVa5FwdyXlzmTl1Al3KP2XD3vN/fd3Vm6zRXkp3FtOARqS2Hu/Eudw2LY8MXwEbv+yYf1X9es4vVd0jpSH1XG0lRy46z6NyU7XH4OBzEVx/+dWW58HOJDqOqvFu0Hsz/LaZjBk5gZET8+gV3sf+ojMkT76fW6eOJ+VUU/40nGuk580LuCk3l54NBawvOEog+jxcuovyxLHKs29ncK2fab4Ldvt1c9Fx1IYPH27GxsYSDAa/6/62ucTEROrrr6GvqnZQEse2IXFsGxLH9iOxvfpkDIToeGReth+JrWhPkl+iPUl+tQ2J43dL4t02ouMo3y0XQgghhBBCCCGEEEKIVsiLVCGEEEIIIYQQQgghhGiFvEgVQgghhBBCCCGEEEKIVsiLVCGEEEIIIYQQQgghhGiFvEgVQgghhBBCCCGEEEKIVsiLVCGEEEIIIYQQQgghhGiFvEgVQgghhBBCCCGEEEKIVsiLVCGEEEIIIYQQQgghhGiFvEgVQgghhBBCCCGEEEKIVsiLVCGEEEIIIYQQQgghhGiFvEgVQgghhBBCCCGEEEKIVsiLVCGEEEIIIYQQQgghhGiFuy1uYurdyL7nMe4cH8ve5/4Hqw+H0RJGcMuPFzC6p4fawr/zxsqNxNz5zyy+qSdaUy3Orv8Nz32WyM2LF35T7s2/reds3HBufmgR43q4qCl6izdeLSBWVfe9Ixia1haP0GZMLZUhdz3KrHGNbPz1f7LNr2HGDGbaA7PJjNUwKj7l7be2E5z0M5ZN93LOZ+BOyiCw7p95aWs3piyYy41JOo3HVvPWOzupc2Uqrg1k8oK5DE3SiZR/zjurCjhnaphmDAPv+wdGFD/F23sbMN2Zjsp1ZtGx0Ac/wCM/yiRY14hZv5dPX36f42FFbGOGMP2B2WTGa0ROruGtd3ZSb3asXLya3COX8rPbqnjtt2+R/KOlpK15mk1V5mWXu97E5P7UMv9XVvzQknvHUM1/6zVV7qnWnTrJ0TbRnvltugcweeH9DEs0aKxYx7tvbKLKc6NlvfEPWsijczIJ1IYgcpbCVX9lV/pDPHpXLxp8Gpxaw5tvbqFWuYdkWtqoGbRAkX/qvSaaKp9f3lSP6R7IrY/dztkXl7Orrum59YHzWZrfhYJ/f5rdDRruYYt49O6++OsawTjH/neeY/NxQx0bxd4V3YbpHmB53pBiv315U70i9tY9sz7rQUv/Csr7W8sNX2yJvd18i+6zPniBZSx3pDxgubatwrTUtYufpVzOEh67M4M6v0mw+O/839VfY+RY++wbOJv5tw8lRvOSllrC+7/+Kwd0Vf5Z86V8iDVWdmMpvnu28zT6fKM6xyquqVzOvqM6T9V5hljuU0uatV8251xLG8qzubNzXJvXdRhLfdDd1rnocE0G63rptM/ukUuYl/4+Kz+uJGfRMrzvPU3Z6EeYOTyDLl091J2tpvSLP7Bmfw/LPlLdAc8Ykl/2Y2LNEWfz90py83rLL7Cea+zGT3UmEk2UZ1/3JO55qBvr//welefH3vRkMmXhfIZ6DYJlq3n73V3UuQYyZcEchiRqhMs+YNV7ewiqzsgZiy3noFAHe48krp5LWTsvaJNvpMaMm8stvc5y6lzTomCaGt6xtzCs7m2W/+qPlPS4hbH93IDJuS3/xf9+8n+x4UQ9Z0+eJmHczKhyHhJGzWRU5GOe/d8vc6r/TMb2dVnqVp463eFeogJ4ht/O6PBadpRFvr2W/T0GnFzJS398hj2JUxjZVceoL+fAR7/n+aeeZtvJkxwr8eMZOp1BVat48enlHOg6jeFJuvJawtjbGHjyJV58+il2JUxnQj8PAHraZManH2DLPj+A43KdmTUWBlU7X2bFU7/mxRc+4HhYU5aLHXkz/Y6vYMUfl7P/hpsYmSZf7m4pgs/dg0EZrc1Rp+WuL6r5r8o9p2uCimrdEW2l/fLbM2Ayg2v+zotP/Z7tjCKrm26z3hjU7X2NFU/9mheW/4VtFSZgUL3jeV546ikKU/LITlHni6oNVf7Z7SHRVPlsmhrekTPJPFNAYW3TyzTT1Ejsk8q5Exo9+ly4l0n1zhVNz/HMsxd98Ra9DqvaUD2ver5ZqZ/X2j91OWvsVVR9thvL6Gvqutb+2bVRvetFVvzhr5T1m8FwL8o+G4fe5pU//J7PDp+l7LMPOdRot9+p9krnYym+e3bzIHpeKc+ximsql7PvqPJLdR9VH5yuUaq6Ts9xbV3XaSxVc9Hp80LbnVs1LcKJz5fzwrMfUnKigL8//Rs+LgzY7CMdj+SXPcvcdzh/rzQ3m7vW80t1rlGNn3pfFhc4HW/P4Clknn2dF55+huJuU8lK1M9fe4MVzzzLVzFDaUo9mzOy5RwkRJNLWTsvaJNVKXL0ff723GpOBr/96UqCN55A5Sn8wWOcrYvDm2xy+uP/4Ln39kPPiQxNPkRRoc9SLiERIg1BIpoLt0tHNwMEgxFr3X2+tuh6m2vcv4pVHxYRaPaDJnd8LMHaSgwC1NUaxMZrhPe+zoe7/eAdxeD4g3xdHsHw+4nEJOB2eYnTA/gbDcs1XwiS0+KpPVVBxPBx+nSAWC+YppueU8Zj7FjL6QiYpu6oXGdmFwtN11otF9r2R17+pBwDHUwTQ/bEKCa1J4J0HZrBhWiacVnctPgXPLjsn3hoXh5pmqks1xmo5j9Yc8/JmuBvVCefat0RbaUd8zsuhoivlgh+9r2+nIIK8zLWmzg8Rj2+oE2+KNqAlvlnt4eoKPPZ1ZsJk9Mp2bKXxm9+6OmhT/cIh3bUktinK5rp/BsZyvVa0Ybqee3mW8v7O3ve1st9G3slZVwcclr3YuWMKmp8MXi9zY9/LfvsGnIvdw6rpWj/WQxNs82/6PVKdGyqeaCaV6pzrOqayuXsO6r8Ut0nug+Xskap+u90XW3runax1DPnsvRfHmNE/Lf/0HwuRnDZPm903e/k3Gqzj3Q0kl9NnOSI3fy9kty8bNdIfqnONcrxu5K9vzNwOt5xcZi+OkyjAX/ARWwcGPX16L1G0C+lnj2r3mB/qJX4Ks9BorNzes5prk0yyKg4yumg4h+8ecx94h66a6ChYYZDhEIa3ceMIP7IlxQH1OWCBzZzOPWHPPbPjzCwciv7zhjWuh30f6Rr4TAR1YYXO567HrqN6B8qJmTnkFCygzMRiJRtoaTbPJb+/HGyzm7moN967VCDQW1lA2n9++LR0+ib4eN4WQS845jYv4xtu2IZPfsH9PNEHJXr6+6oG9N3QBWLxgCxN84j/4lfMn/WKBI186Ixix98J9nGLvbVyJvUaEZ5MYEe2VzYp/R4ncr1f2LF8mcoSh7P4ERdWa4zaT7/VbnnZE04eLEvltusO+LKXY38brne6CRmzyV/2ZMsyr+V7roJ6KSNXEj+E48zrGoz+y8lX6LyL0m32UMuonk+ewbeRE5XF+k3/YT77hhFkmaCpy89PBWUFR8lkpFJ03c3NFJH57Nw2ZMsevQeBtrtSYp1WNXGxZ63xXyLomk2e2tU/wbZ7a2K2Kso42IzltHX1HWt8VOXU1H32TzzJRu3NjL+gXvs9zvVXul0LMVV1WIeKOaV6hxre7ZVucx9x3KeirpPdB/s56zVxfrf2jmureva3S9Sto41qz7iUODba83nou25XlVXzq0Wkl8Oc0Qxf68kN697ynNNk+bj53xfFpcqUraaz4q6MO2Rf+XhObmk2p6rhLB3Seec89rkd6Ta8n/Jey9WkjV/BL04n8CegeRkxVPyQSGNmm4p19OE7tN/QL/Sv/C7/6xkwmPLmD58I28VNkbVvcZ+mhPczupXIvSZ9Shp3/y0M5EhWYmUfnqCCDpJ42eRefgZln9Sx7AFS5jUu5DtfVtey+1TyOe73mXP7HuZ80gqSdXv8HyNQfL0CSTse43SSBz907vi18DvsFxnZJoayWOtsTCOvsVLvwNTu4Hch/PJSd1DYbY6ZlpqLnfcnsyuV9ZT20F/b8/VpIUPcTR0B0O9cApA89Jz8gKy8iIkdvXwtcumXCfRfP4bmgaK3Ns71Nma8IXdf6FVrDuibXzX+R293ugY1Be+zqvvHDj/a2403BhU73mZv33sI2fBIiZm7GPXQGu+bFDcP3rtG5G2h01Re8gLtQamqx+T5t/HjUk6xvFPeO293YQ1zbKfdR3Yg3NfLGflWh9Z835C3oBCPj47gIyeWXSb00hK0il6eTZxDJPar1by6vtHvnkOU+/boo1X392NN2q9rge6RLWR27+Qgu7q+RE936LbeO293ZY984VaA1T9U5ZrGftJ3fex7kwfy3NE9zlvQCGfKMYyenxNUydDUfezqP7Zl1Ox9nn9aRPz3EG+Wl+Ka+AyeifqlJ0zrfudIl++VMRKdCzR81R1Drpil7HvROdXnMP7qOas3RrlpF3VuuC07pXSwuWUFEHzeRM9F0tVa4+mtahrd75tjz5fKyS/cJwjqrhcSW5e7/QE67mmJNxy/GoM9b685kj4anf/uqBpDRzf8DwvbkxldP5iRvfcyjrlGVmIttU2f2xK03DpWtPXW3UdaMTvayBuYHe0sJuuyQH85/+ug2fABAa59/FRcQjQreXqNDwxHjTTxDQNTNOFO0ZT1L12FuewP0hMRhcijTUkJesELnxn2DuSIQkHWX+q6dss7rgYwn4/ESNAQ8BNXLz6mhY+wc43/kz9vYvovmUvIU0nkTDeEQ+Sn+UhObmccnBcrrNyK2IRkzOXmz2r+WhHkGBII0FXlzPdfci7byr1Hz3N7k7wx5EuT5DDJRGm3xrLSRPSxk0jdf9yXtvqZuKSJbgU5TrTi9SW819T557DNQEMzLgBjBidQOmWQmpNzX7dEW2knfI7EMTlTcFFFUPnLybls2fYWNX70tYbw4e/wUP3RJc6XxRtbMuY0yL/vC7VHqKhGWVsXflbtl5o68IHpaj9zO/zEYw0gBEi1GjicoGrfx8at/6JN7+oY+j8R+iZrHNM0f3oNkxNt6zDJ0HZht38iJ5vqudQPa/qkHTRcudj3yPRhXba+hyqPjvltO5Fy+ldSPGG8Pma/fDlQr54XSROXsoP9JW8ttFNQmwjgZCB6e5ryb/o9cp7Cc8hrqLoc+cVngnbYt9Rnaec3ueS1igH7V5J3StlujPIHBxP+f4S/IZO0pRllrmoel5LXVO7snNrKITLm4qmh/DGRQgGDJSfuRT7yKYO+N+vJb8u3LP1HLGLy5XkpsV1ll+qc82R2ugzm3ZFe3+noDr7VqvKBdATk9H04Pn8gfhJS/lhzJu8vq6OQNBBbFucg66d90mi43Glp6f/yu12E4lc/lfwPROe4Mn/dg/9kpPoOfY2Bhnb+XLraZJyf8QPZ00g7vAHfLKxBL8ZQ+aMOQw68xGfFZ7B1KDxrI+kSd+W+3TTESrOBMmYPJdZs6aQWv4JH3+6n9pIy7qqPzQVExNDKBS6knhcMX3Q3TzwwCwG9ehF76zhJFVv49DBc6TkzeWm3El0P7eOdTuOE0IjYdQsRgXXs7m4BjQIVgbocctCZkyZQp9QAWvXH6H6bNByzW9qePrdxfcHHeKzgjLCQKBsGzu2bmL3jlISsvpTv3s3Zw3n5ZrrCHFsb5qmjkWFL5ZBt9/PlLxcutduYMP2MqpLt1vK1WTfz5yJ3fD0HM2o8SPwlu/gWG3LDb4zxNGO3n0MwxOK2bPHzZDp/anesokjdalk33IXo4b2IyUphpo9WzmZai13LOrXdlyvcWw+/01NwwhYc69GMf/t1gRX71u4+54s6rZupyKsEamqVa47zV2vsW1v7Znfkdp6vBPnctu0PDJ8BWz8sozwCOt6c9w9grwZU8kelcfocUPxlO6i3DuGqdOnMmzMVAayg/UbDlJ1xpovdTXWNvwNUfm3rYwALfeQxoscOC37WUU96TPymTFlKn1Dm/l8/VFSxk3nhuMbOHAmQiQjl+y4nRwIZ5OdVsbe4mpMu2/mKNZr3+7dnDjVso21G+znR/R8sxP9vHq3kcr+Wcqlt4z9ug0H8UXtrZoiLms3HKGhyyjLWJ6KG9nyWtkuSkrqLHUDXUe16J9dG4H0cUydNoWsMWNIOrKadUVnMDPGWvLlXFWY3jMXMC1vHClla1hfdBoU+Vd6OsaSL6Fuo1ody2vF9bo2Rs9T1TmoKnO25RxbmnaX5VpJpdEm+45HkV9HS2os9wkPsvarpNJwtEapzubHes1r9RzXHnVtY9n/TubdP4L6rduoCEPjuUbLXAzbrMnRdVXj6uTcChA5V0dy3lxmTp1Al/JP2bD3VNMYunqTNdpL6c5iGtCUe1WgA7yUkPxyll+qHDl9pk45f68kN6Ndb/nVXXGuOdRtrmX8Dh207t/+TvSt8GhOzr4Nem+G3zaTMSMnMHJiHr3C+9hfdIbkyfdz69TxpJxqyp+Gc430vHkBN+Xm0rOhgPUFRwkozlXliWMt56DINX5Wcep6PdO0JdV6WlLZ8n98RsdRGz58uBkbG0swqPolp9eWxMRE6uvrr3Y3rnkSx7YhcWwbEsf2I7G9+mQMhOh4ZF62H4mtaE+SX6I9SX61DYnjd0vi3Tai4yh/gkQIIYQQQgghhBBCCCFaIS9ShRBCCCGEEEIIIYQQohXyIlUIIYQQQgghhBBCCCFaIS9ShRBCCCGEEEIIIYQQohXyIlUIIYQQQgghhBBCCCFaIS9ShRBCCCGEEEIIIYQQohXyIlUIIYQQQgghhBBCCCFaIS9ShRBCCCGEEEIIIYQQohXyIlUIIYQQQgghhBBCCCFaIS9ShRBCCCGEEEIIIYQQohXyIlUIIYQQQgghhBBCCCFaIS9ShRBCCCGEEEIIIYQQohXudrvxmMf47/NGE6drmOGv+eh//ifb/Bpa0lTm/uMtVD3/v/i4LAyAqSUxIv+fmXzuOZ576zDps/6ZxTf1RGv6V86u/w3PfeZlxuJ8xvXyUL3nDd54vYBqU2uv7rcp0z2AKQvmcmOSTuOx1bz1zk7qXAOZvGAuQ5N0IuWf886qAs6ZGqYZw8D7/oERxU/x9t6GpvpR18yYIUx/YDaZ8RqRk2ua7ucZwrQHZpMZq2FUfMrbb22n1pWpaNd6rf4aiWNbM7VUhtz1KLPGNbLx1035GZP7U5ZN93LOZ+BOyiCw7p95aWu6eqzcA7n1sds5++JydtWZV/txOhT3yKX87LYqXvvtWyT/aClpa55mU5U1Rk7LXW9Uc7heMf9VOapaT1Rz2IwZbFkT6jrpXG9r7ZnfpjvTst7UZz3Io3f3xV/XCMY59r/zHNuSF1quFZxItuSLPuhu5t8+lBjNS1pqCe//+q8ciKQp82rywvsZlmjQWLGOd9/YRJUr03LNbt+17lPW/PMNWsAjP8okWNeIWb+XT19+n/Khi3n0rl40+DQ4tYY339xim6fRbajW65UVP7S0cbL/bEsMisPqNvSB81ma34WCf3+a3Q0a7uwfW/rXMNza51qbPd1y/8EPWPp3DGvd+uyHeezODOr8JsHiv/N/V39NSNOs/ctZYikX9Fjv55/0M0us/lZ9ryWHtsbfz6NzMgnUhiBylsJVf2VX13xH5b48k2LJK3Fio9dgAAAgAElEQVR1OD3fvG4sdjaHBljn7nHFHLqcfcfxmRbVumVdL1XzTtUv1RlZvZcq+ue0rmoPV1xTx0XRZ8+NyrODs5g6q+seuYR56e+z8uNKchYtw/ve05SNfoSZwzPo0tVD3dlqSr/4A2v293C8P1xNkl/O86vuEj7bONnzVXP/essv1Tlv8w33W/d53Zpzcib/lvIM6p7EPQ91Y/2f36PyfKxMTyZTFs5nqNcgWLaat9/dRZ1rIFMWzGFIoka47ANWvbeH4KCF1rNMxmLluUoIUK+nrWm3F6kAoaIV/P6VrYSNCGYETHS6T/kefSsKWHOsEc6/KnX1nklev2NsfeswEU0DTM5t+S/++FYtU5/4Gd1OniYl93Fygqt57j+C3PzEbYztvZVPjxnt2f024xk6nUFVq3hxxVnGLV7E8KTdfJV1GwNPvsSLn9SSnb+MCf228fHRMHraZManH2DdW34uxCf6WuzIm+l3fAUrPvUz7seLGZm2m639v8eAkyt56aMachYtZmTXnWzJsLa7o6/12tba6//FlYpn+O2MDq9lR9mkb64Z9eUc+Og9PtilM/qhx0gt8ZMw1jpWa0oieEfOJPNMAWtrDZCFOEoEn7sHgzI0Ktqk3PVFNYc3VZmWua7KUdV6oprDnmzrmrDxTOec622v/fJbtd58jkn1zhW8troU4/xa4x5mvebJVqxph97mlT/E0e/OR5lw7kMONYInR5FXAyYzuObvvPj8UW6c9xBZ3TbzZYr1WkGFOocsuavIvwIMqna+zKrVJef7rOHGoHrH8/ztYx/jlzxEdsqXbD7nrA3Veo3X2gaKGKBYsk1TI7FPKudOaPTo42F3cRgU/dumuLb7RvWebmXtX8JE1ZgbVO96kZUfh8l75F6Ge79mp8+mf1Hl9uco7qeKVao1h/TBBnV7X+PVdw58m2tdnZVT5Z+4Opyeb4wbnM0hXZG3ynYvY99xfqa1PpNqvVTNO1W/VGdk1V6q7F9Ph/uwag9XXHMayy/7q88OTvq8baCzutE0LcKJz5fzwoaJLV5qeAY73x+uJskvNVWfN1Tg+LONkz3fyZnzWs8v9TnPul56xsiZ/GJUZ9BN1Ypyg6eQefZ1XnihgnGLF5GVuIddvaeQefYNVqyoJufemfTz7KEYxVkmw3pe2uX/jh9UdFhO187m2vm/9hsYjY0YhompaRA/krxxyRzZ8u1PlUwtleybJ6HtXs3eGgNNMzj98X/w3Hv7oedEhiYf4usiHzWb/8xfVm6gsr6GhkYN3XXt/FYCw+8nEpOA2+UlTg/gC0FyWjy1pyqIGD5Onw4Q6wXTdNNzyniMHWs5HWmqq7oW2vZHXv6kHAMdTBPDAHd8LMHaSgwC1NUaxMZrlnb9jYbyWmfVuH8Vqz4sItBsHwvvfZ0Pd/vBO4rB8QcpOmUqxwpXbyZMTqdky14a5SWqgkntiSBdh2Z883HLjMvipsW/4MFl/8RD8/JI00xluc5ANYdVc12Vo07nsGpNEG2l/fJbud44pMoXANeQe7lzWC1F+89iaJq6XFwMEV8tEfzse3150wcW1TVVNBS5a5d/mm4XiTg8Rj2+oDqfVW1Er9dfl0ds24iOgZqHPt0jHNpRS2KfrmhmiwAp+td0rT5waePWvH+mqV+8rlFFjS8Gr1e/eP/Ol0uIdynvZxertmSXf+K75+R883V55JLmkP3c/dbl7DtOz7TRz9Tq3GmlX073UlX/nNZVjYPdPNEz57L0Xx5jRLxp22dVX1R1VeXs6l42h/vD1Sb51cRJftl9tomueyl7/mW7RvLL7pwXvV7KmbwVTsc7Lg7TV4dpNOAPuIiNA6O+Hr3XCPql1LNn1RvsD7US2xbnKiGaXM4Ztv0yyDSJGZrPk//+FI//+Fa6u028I6cwKNEk/Xu/YOmSO+kTY+Lqcwu5fcvYsiGGKQ/nk52oYYZDhEIa3ceMIP7IlxQ3gNFQTa0Puk+9g8GhQoqON7Zb19tapGwLJd3msfTnj5N1djOHGgxqKxtI698Xj55G3wwfx8si4B3HxP5lbNsVy+jZP6Cv21RfOy9+8J1kG7vYV3N+g40dz10P3Uaarm73oF99rbPSwmEiNgfJhOwcEkp2cNZQj5Vn4E3kdHWRftNPuO+OUSRpHXWDv3qM8mICPbK5sE/p8TqV6//EiuXPUJQ8nsGJurJcZ9JiDivmuipHL2kOR60Jou20V34r9wY0Ukfns3DZkyx69B4Guk3lNbs1zTzzJRu3NjL+gXts8+qK2O1T0fnXGCD2xnnkP/FL5s8aRaJmAjppIxeS/8TjDKvazH67fL7IXnhhvT4TsWvDGgMlT196eCooKz5KJCMTD9j0r+W1A3Z7ukpU/5L0iPO6yv61pOnmRe/XIlbKvNJJzJ5L/rInWZR/K911da6pyrV5XonL5uR8cyZic001h2zmldJl7jutnWmjn0nTLmHeKe53qefh5v1zWlc1DnZjEylbx5pVH3EoYN9nVV9s6yrK2V3rDCS/Ws8vu882lrpO9/xOwnLOs1svO2l82lukbDWfFXVh2iP/ysNzcknV7M4yQti7nDNsu/3X/vCuZ/nNLtDic7jzp/MY3W8tB/r0wLf9ZZ5/q5IJj/0jk7I/Z0vfEbgL/0ZhfQJ39exB8EKPPAPJyYqn5INCGjUN09RIGDaf2VM1tr/wtvJ3M3VEpqmRNH4WmYefYfkndQxbsITcPoV8vutd9sy+lzmPpJJU/Q7P1xgkT59Awr7XKI3E0T+9K/VA8tiW1y78ugYtNZc7bk9m1yvrqTU14gCC21n9SoQ+sx4l1cDS7qTehWzva+3LF8c712GqNaaZyJCsREo/PYGhafgVY9Vlcg/OfbGclWt9ZM37CXkDCllzRPXfODsvLXyIo6E7GOqFUwCal56TF5CVFyGxq4evXTblOonmc7jG0G3nenN264ntHG62JqTJGaJNtVd+R683L9QagEntVyt59f0jzf5LvPWaHfPcQb5aX4pr4DJ6J+qU2fzXeSdMvS+T5t/HjUk6xvFPePXd3Xjtcjcq/4yjb/HS78DUbiD34XxGpO3hSwyq97zM3z72kbNgEZO672PdmT6O24her1G0UVBlWmJQWtuyjdfe200kYQAZPbPoNqeRlKRT9PJs4piifwWqPivGzXT1s7QRVvRvk3LMrXRl/xzmkKZZYqUrckjHoL7w9Wb/HU6da6pyouOzzBfVNdUcsplXSpex77R2prW7jyrXVfMuul+qM3Jun0I+P9nbOmc1zbJfJ01q+7O0Fi6npAhazCVFDKJjZVdXWU5xrTOQ/Go9v1IN6DJQ/dmmeV3T1OzPq530zBl9zlOddXZCp41Pe9O0Bo5veJ4XN6YyOn8xo3tuZZ3yLCNE22qXnDJNjS6TlzArfTtvfRwBTEwM6uv9kOpCw4WuN/33BZfmInXCEzw5ETRKvvmg6RkwgUHufXxUHAI0XBnf4+57h1Lx3m/ZfCKCppmY18ghwB0XQ9jvJ2IEaAi4iYvX0cIn2PnGn6m/dxHdt+wlpOkkEsY74kHyszwkJ5dzEnBHXSsHTHcf8u6bSv1HT7P7/EE27A8Sk9GFSGMNSck6gQZT2a7qGsiL1Ba8IxmScJD1p5q+CaYaK7/PRzDSAEaIUKOJy3W1O90RBTlcEmH6rbGcNCFt3DRS9y/nta1uJi5ZgktRrrO8SLXOYU0511Xs5rAZN4ARoxMo3VJIralZ1wT5/7ZtrH3y27reXP7hzzQ1kqYs4wf6Sl7b6CYhtpFAyED50isQxOVNwUUVQ+cvJuWzZ9iquLapooytK3/L1gttaLoyd1X5F5Mzl5s9q/loR5BgSMPbfN00fPgbPPRIdKGddtYGYFmvo9tI0CBx8uOWGGhGyzbQNNz9+9C49U+8+UUdQ+c/Qs9k/dsXlc36p+6zddxUbahicNEx17uQ4g3h8xm4Bl2kf83Kqe6nipXohFQ50Moc8rqwnbttse84OtPa3EeV66p5h8Mzsqqucr9uh7O06c4gc3A85ftLaLCJpSpWqrqqcnZ1LUIhXN5UND2ENy5CMOB8z9jUAf/7teTXhTi0kl8Npu1nm+Z1/ab6vOp47l9n+dWk5TlPtV7KmbwVivHeqPgdqQQC6InJaHrwfP5A/KSl/DDmTV5fV0cg6OAzebPzkpyFxJVolxepmmZy7kARdbn5PPE/dGr3v8+bpY2cqXifgw/ezxP/00P9oTW8XejnxO5/4t/eAtMzlnt/eTMApumh38jhsP8VSkNgopGYPYHMlG64Hvh3hs/3s/+1n/Pmzo7/3/s1zaRm+1oqH3icJWMhUrme9w43/aULT7/vMylhD//3VARN06jesJw/bWj6xs/3lsxA17BcA/Bk38nkPslU3vYED82spfjdZ9m47wuOjlpA/k90zIpPeavKoD663SON1JxW96Uzavpr1sNI69YNlvwjyR89xWfFYRKGjyCh5IOm/+J2PjTRY1W37XMqHljGQ2NdmJUbeL8Tx/FigvsPU3PXBNCg9kAR+uwnWDi0gnCCQamiXGc5Vqjm8CbFXFfl6Oc264mr+1jyZnaFXYXsDUBj9JpwVg4Mba298rv5enMpY6bMl682cW7h4/x4DISOvM2qBnW5T48UcHDqA/z4pxCq+Jx3zhg0VlmvRfdH00zlPqXKv8bgQbj/cR6crMOZz3n7rAEZOl1GP8iiITqeui28W2pdS+3aACzrdWNpVBtVBj5FDKKZpk56n2R8R2oxiFBe4SarvwdCiv4NVffZybhZ+nd+Xlrr6qSNfpBFN0Ko+O+8WW/Tv8aW5Vb5mqqr+qLa2xRZRFLOPBb1a/aXbh2W25H8Q+WeKr57l3K+aXUO2c3dNtp3HJ1pzxrog2Yrn8nRvHNyRrY5x6n6V+CwrmocvjBmKZ/D1Xc6t8+5gY2/Wc7eBnUsPSMVZ4djhqWuqs9bb1DXtcTq4EaOTL6fHz+hET72vnK9BGgsaX1/6AgkvxzmV5Vh+9mmZV3ne76qz9dbfl3Q/JynXENr5Ex+McrxdoOensc9j2cTxqBi03O8/9VGjuQ9wOInDAKlH/BWvUGgsICqBY/x4xEG4cr1vH8sAoNUZxn1eUkIsD83XYw2fPhwMzY2lmAw+B11s/0kJiZSX19/tbtxzZM4tg2JY9uQOLYfie3VJ2MgRMcj87L9SGxFe5L8Eu1J8qttSBy/WxLvthEdR/l1x0IIIYQQQgghhBBCCNEKeZEqhBBCCCGEEEIIIYQQrZAXqUIIIYQQQgghhBBCCNEKeZEqhBBCCCGEEEIIIYQQrZAXqUIIIYQQQgghhBBCCNEKeZEqhBBCCCGEEEIIIYQQrZAXqUIIIYQQQgghhBBCCNEKeZEqhBBCCCGEEEIIIYQQrZAXqUIIIYQQQgghhBBCCNEKeZEqhBBCCCGEEEIIIYQQrZAXqUIIIYQQQgghhBBCCNEKeZEqhBBCCCGEEEIIIYQQrXClp6f/yu12E4lE2vTGWsJwZjz8c3509x3k9AxQWniUhvj/n707j4+qyhP+/7m3qrInJAhh38IigawoAklYXBBbkMallc2AigriYE+Pr8fumd/Ma2Zez4zT/Twz3Q8NqDPdCi49ajPt0rY7KlsA2SVECEtMWBICJGSvqlTd+/sjQUPdU6kLJCQh3/efl3vuued7vvd7Tt1UQorlWF3EWG5/4ll+MvsuUvrWUXSwBHeU9TzvuOU8+9PHuPXOWUy5YwyNu/I46b60z7CwMLxeb5uOoy2YziSyc5cyffJU0ob4KP72BMakn7Ji4e0kZ2Yz/o77GWtsZX/pQMt5DWE3MjV3CbdmTSZ1QB3HD5fiG3Ev8+fP4eYJM7htxjDO5+3hvKFhOodz5/L59Ph2F2VeMMNGMiV3CbdOzCFtsJuiQ6fxomGaYQx/4FmmOvdwqNxnud/OGsf2EBgLfeQCnlw6h9SMLDLG9uBcfiHVhjVmZtgoy7x40S65dneKYyBn+lJ+tiiJkh2FDHxoOaNO7+REw5Wd153jqCKx7XjtOQemcxjZi5YzY3IOqcMMSgpKaHAm2TumWi9GPszSZXNIzZhE5s2jcRXv5VSjdW1QnVc+ZBHLHp9NSkYWmeNTiCzdw8lq0zJO1RrnS32c5Y/+iDHjJpOccJbCI2fxuZLIyV3K9MlTSOlfy/HDpXgU9xxYS7/vx1KHreMwbPYbrA99+DyW/XQqjTu+psynETbpGcta/c0Jr2W9daY8yrIls0gdN43MIW6OFpxU9qGPXGiN8zBrW2PMYkvsT/eZb1mfapOs+4FzujU3lPMRro59YJxVMSjosVA53sD4dVXXY20MmsuBz5UWz6gfP8OihRPw78jjdKOmPKYSbN95yX0E1jzFfsoTNspyHY+WYL0vRe1xK5475Zhs3GuwtmCtR8p4tEMs7fSrj5hjrQumNX4qzvQlzE87zYFjHtIWrSCpZBdm1lLunzWL22beSUrqOHrV7+FoxSBLnVHF/lqT/LrK/ApY21RUn5Vqhy9Ufn4KdL3lV1vuB7sTW3tf10TuW5LJ2T2HaWiee9OVRM7ip7gzJ4ex/Wo5XliKxzmcnNwnuSNnMql9qzlSWIah2tMmLbHsg/xax+fUtXA97mnamp3aGRjHdvlGqmlq9Jx0D+nuD3nxX37Pif4zyU4OsxzLGRNGVMZ0Mvyf8uK/vkbp0OmMG+hQnufbvYZf/q+/5o3NxZzd9yX5VUZ73Hq7iLppBsNPv8raVSvZGzWVW4a4MGrLOPzxb3h55Sp2nj7NiaJ65Xnh6bcz5OQ61r2whkM3TCM9Qcc4+i6v//Y3bDh2jpINH3K0sSnm0enTSTqbR351U2xcKbcy7PQbvPrCavbH5JDeq2m69YRsxiceZvvB+o4MS6dgjYVBxZ7XWLfyeda+8hdONn8QDDxPNS+iJT91zn6M6BNqgbJ7nviBxLbjtd8cuIZlM7LqT6xd+Rt2kUFyb932MXVdMqg58CbrVj7PK2t+x85yM8jaYD0PTCr3rGs6tvpFtp1Ur7uqtQsMKveuZd1vf0/JkNsYGw2u0VMZUbGetavWcLjXFMbGBrtntcA6HGwcdvpVMU2NmEHxXDil0W+QC0C5VqvWWzCo3P0yr6xcSX6PLFJ6BBuHKs6qtqrYW9cn1X5AlRuquASLfWCcVTFQ3bMqfqLzUM+j4rkaexeZvq/YXfLDFyxUx1SC7Ttbo8pD1XVU96CuPYr7Uo3J5r0GG7udvXR7xNJOv8q6YLPfQJrm59QXa3jlxQ8pOpXHn1b9ik/z3UHqTOcj+RWkreL+1GubiuqzkvrzUyhdPb9kT9427M63a2QOSefe4pVVqynsPZnkGL352NusW/0i34SNpukxDbLXCtgHCXHRlayR7VSVHMT3jKPqxGFq6go5Ue4kMtalOObE3+DBrzlwOnR0043brSvPA4hMX8Ccmw0Ob/+W2i7yHtU0deISIqkuLcdv1HHmjJvwaPAdeIsP99VDdAYjI49QUGoqz/PufIHXPivDQAfTxGget2PU/cwcU03BoXMYmgaOgdySnUjR9gM0Nv90xRkZjqf6PAZuaqoNwiM1TNNJ/5zxGLu/4kzbfgm5ywkWC03XQp4XbF7ERSbVpzz0Gt3n+58fmxHJTHvs5yxe/nc8MjeLBM1UnidCkdh2vHacg4gw/HXV+Knn4FtryCs3bR+zW5dUa8MVRyLIGvc9o4KqujCio3WM+nr8YVE4HdFE6G7qGw3b96yqw62OI0S/ai4G9fVzdHc1MYN6oZmmZa3+tsyvXG9/EIHLqKXOcyWLQui2gesTKPYDqny5qEVcVLFXxVkZA+U9W+MnOg/VPKrmu/HQetZ/WIC7xfSpjqlcSW1R5aHqOoH3ELL2tKC6f7v3qmprdy99ObHUkx5i6T8sIy3SDHp/wfoNbAvWumB3Dm1rrc50IpJfTezkV7C1TZVfqrVIdeyKdZH8kj15G7E73xERmHU1mEYD9W4H4RFg1NaiD0hjSI9a9q9/m0PeEBFusQ8S4qIrWSPbKYP8VFZUEzdwJLFRIxjYu4LS79zWY8UePIe3cSz+xyz7+ycYfn4HB8sblecBGLXHOFhgkJ67mPS4rpH8mmZQfb6BhKGDcekJDO5Tx8mWP+1MSSWqaDfnjNbPixw5kxRjLwebv4lrnv2aLTsaGb/gPgY7TVzDp5Hay0HitKd44O4MYrXmLAgfz+xHZvD9l3yib2bC0BJ27g0n8957GOzsrAvTNaCKRaOb8BvnkrviF8yblUGMZrYas8B5ET8wygpx90vh4jqlR+qc3/QS69aspiBuPCNjdOV5IjSJbcfrzHNwaV3SiUl5iNzlz7Eo90766kHWBuV5GvGZuTy8/DkWPXkfwxXrRag1riV/yXaKes9l6bNPk3xuG0dafNEmZC0NVoct47i8fi/hGkw/Vzklhd/h75NEy+8eXVyrz/oJst7qJKQ/TO6KpxlTsY1DQb9EpIqzqq0i9qr1Cet+4HJdEvtW1ruWMVDecyvxE53HJfOomG/N58Mf8BiqjgVl45lUsdSAgOsE3sPl1J6g92/jXpVtbe6lLyeW/pKNfLL+Y462/LNlNvfwqraBdeGy5vA6JPkVOr+CfZa0tFWtRUHWp+6gM+8HuwN/yUdsKOjJlCf+iccfnER8855MufcVIogrWSOd7XIjmkll3vvsH7mQx34RS1jpB/znGT8Xqi499tIpk74/uochxb/j1/9+nluWLWda6hbeDWxb6gc0vMe/5JPvjtH4zJMM6OtgX436b8Z0NvV732f/vffz4BPxxFa+xyvVBmgaphnDqOQYij8/haFpQc/T4idx911x7H19E9Vm898IuXCEbzYV4xi+nAFROu7h/bjw5Rre+KqO5LlPkTUsn40Anl189LqfQbOeJN6AuJtuIergmxT7Ixia2Iv6bvpjMdPUlLEwvnuHV38NpnYDkx7PJTV+P/kp6pip5kX8QPMd5Tvv3YyOhlIALZr+2QtJzvIT08vFt44g54mQJLYdr7POQWBd0jGozX+LP7x3uOnbimhEwCVrQ4IJKM5zYlL9zRv84YPj3x8z9cFMnPcAN8bqGCc/480/71OvXQFMA2LHzyLp2GrWfFbDmIVLmDQony9PGpZ7DuzjD+/vIzrY2mUZh71+vzg90DIOf9Qw+vRPpveDjfSILWWAaytFPi5Zq/3o9FKstxswqNz/Gv/9aR2pCxcxse9BNp4dZOnDUMbZ2jZPEXsC1qe0hP3kVZiX7AcGxuicvsJ8qTL0oHuEwP2KrrjnzQ3q+InOIzCX22VPGOKZVAmsAeoaZaWqPaZjiOW58wX7O3gBfajqW2DbYPvHq6X5yigqAFp+X83mHl7VNrAulFzovi8SJL/s5VdPxdr2yXGfpW3gZ6W0hP3kBVmfuoPOuh/sLjStgZObX2btlngycx8js/8ONir3WkK0rXbLKbOhgC9e+jW1jy1n4I5NVJoaBB7DwaAwF5ppYpoGpunAGaZZ2lYYDvre9RwP9v6Kte/5SYjyUu3uOj9W1Xyn2PP2f1F7/yL6bj+A9+KiGZ3OqKgjbGp+Uaw6z3QOIuuBydR+vIp9FSamqRGbs5x79Dd4c4uTqPBGGhoN6uvq8PgbwPDibTRxOMBX7yGsT0/8jVXExum4G0yc+IhOW0xusou4uDLKOjQyHUsVi7DUh7jd9REf7/bg8WpE6erzAudFqHg4VuRn6p3hnDYh4eYpxB9aw5s7nExYsgSH4jzZWNglse147TQHbg+O6B44qGD0vMfosWE1O2we21Ix0FZdsqwNbpOmT5ahaUYJO974D3Z8f0C9dn2/udB70iPaS129gTMiDF99PX7DTYPbSUSkjukcYLnnwD5MTVfWYeU4bParGodz6CAad7zEH7+sYfS8J+gfp1NUYQas1bpyvf2eUUd9g4t+MQ60M9Y+Wv0iSou2Kpb1SYOY7Kcv2Q+4vYY6hwLjUmdgOgcHxF4LvkcI2K+o7tnRJ0j8ROcRkMtXuyc0I4aRlhlF8fZ8qk2t9Wcy2DUU+ym711HVHtWzraLqw27b9thLm84+JI2MpOxQEQ2qWLayh2/Ztt7QLZ8T3F4D7P5CsdeLIzoeTfcSHeHH4w7SVlFntnbCX7+W/GpiJ7+CrW2BbQPXomiHdX2KVi9j111+NZE9+VVT7WkrVee50WPi0HRPc/5A5MSl/Djsj7y1sQa3J2BPptJiH2S7Lgqh0H4vUk2N2HH3Myl2P28frAc0yzFN0zi15WOKcxew4p+d1B75hHcOeDBN3XJe+c6vKFn8IH/1d1Cxfz1fngzYzHdyriE/YmLUfv6nxYeQqLFpRBX9penXqzT1ea6UmWQPiuP8jBU8Mr2awvdfJO+brVx4+GkeHQfe4++y3g31O7+gfMFyHrnJgXl+Mx8ca6TR+SXfZSwk9ykds/xz3qkwqNm8hpc2N/1U9NYlt3VUODqcpplUKmLRWHwE5j/N4mwdzn7BuxWG8jzVvGw90XVe7l8rnkPHqJp9C2hQfbgA/d4VPDy6HF+UQbHivM66ReqMJLYdrz3moLEojyOTF/DoM+At/4L3zho0Vtg75kq31qVt6MSmzmXREC/4z5G//vd8fTBgbThnQLz1vL2XEQvrGqeTkLmYRTeCt/BPrK+Hxl1fcX7B0yy5CfznN/HnY4240kLX0qD1WjWOvvb6Ddw/mKZO4qA46o5XY+CnrNxJ8lAXVHgvWas1zaRGsd4yRqdn5mIWjdJx1Wzn/WJrH01UcVa0HaXIDcX6VBe4H2hQ5xB9AuJSB65MReyD7BGs+5VL7/m9Ij+JP1LHT3Qegbmseq70EXOYd9cYEnr3hiV/Q9zHK/nSmGU5tqHQh6PvTWRN7wV78zngDvJMhtirq/ZTWxTX0Ufcq7wH1f46kGpMn9u8V1XbDTb30pcVy8FTuevBG9jyqzUcaFDEspU9/KVtTWVdUI6j0PqV8cYjWziePZ9HV2j4TnzA+iD/s7iyzmz0O+4AACAASURBVHTCz2WSX5eRX6q1Dc3aNnAtOmfQ6LEeU433esuvi2RPfnWU8+0EPTGL+55OwYdB+db/5INvtnA8awGPrTBwF/+Fd2oN3Pl5VCxcxqNpBr7zm/jghB9GqPdagfugTpxS4hqzu0a2pI0dO9YMDw/H4/Fco9tsPzExMdTW1nb0bXR5Ese2IXFsGxLH9iOx7XgyB0J0PvJcth+JrWhPkl+iPUl+tQ2J47Ul8W4bgXGUP3cshBBCCCGEEEIIIYQQIciLVCGEEEIIIYQQQgghhAhBXqQKIYQQQgghhBBCCCFECPIiVQghhBBCCCGEEEIIIUKQF6lCCCGEEEIIIYQQQggRgrxIFUIIIYQQQgghhBBCiBDkRaoQQgghhBBCCCGEEEKEIC9ShRBCCCGEEEIIIYQQIgR5kSqEEEIIIYQQQgghhBAhyItUIYQQQgghhBBCCCGECEFepAohhBBCCCGEEEIIIUQI8iJVCCGEEEIIIYQQQgghQnBe085ueoqfPZhGmAaYx9nw/P9h2wUTU4slLffvyb7wn/zu3SNw83LLeTuTlvKzuZlE6Bqm71s+/ud/Z2e9di1v3xZTi2fU7CeZdXMjW55vukczbCRTFtxLUriGUf45776zi2pHEjkLH+LGWJ3GEx/xznt7qHHdyNQF95IUqeE//UnTMRIs19NHzGHeXaMJ06JJiC/ig+d/T6FPwzTDGP7AX5NWuJJ3DzRgho2yXk/RR63Z+eJ4LZjOJLIXPsToWB1/2Re8tz6PStcoW3NVa1rj3VWo88I67hpTw3QO585ld3Fu7Rr21pj28zvI9az3Ym2rOq8rU8bMOcz6/DuGW/NR8fyrrqfstxvEtqM405fy0xkVvPkf7xD3k6UkfLKKrRXmFZ/Xkqq+Hx+1mCfnDKa+phGMCxx67z/ZPeivWD41mgt1Bs7YPrg3/j2v7uynfo4DapUz5VGenD2AhjoNSj/hj3/cjmfiTy3Xe21rraUGKO955EKefDAJd7UX/OfIX/97vq4YSvbD8xkTY9BYvpH3395Khaq+2qwVgHWNcw6z9FFpaujD57E0tyd5/7aKfQ0aYZOeUY7Ncn3Fcxms1ttZb4OtrZb5GLPIMr874xdb5kgVK9W8qfKgWlVLFPGrcCQp5k2xN1Gsi+5ka55uO2m0mu+ia2jPmmd3T6LOYes+7oJqr6Hcu9h7ZlVtg+3DbY1NMQ4VfeQCnvhJEp6aRszaA3z+2geUj1fXaTv91g+/19Y9O9OXMDfxA9749Dypi5YT/edVlGQ+wfSxfejZy0XNuUqKv/wtnxzqp6y/nU13yy+786yMi2If2tbjvd7yqz1rY3ei3I84J3LfI73Z9F9/5nzz3JuuJHIensfoaANPyUe8+/5eahzDyVn4IKNiNHwlf2H9n/fjGfGwZV+6t89jLJvZh5p6E0/hn/ifj77Fq3W+nBIdw+7n65au6TdSfbvX8Mv/9de8sbmYs/u+JL+qaYPtGDidrCEn2PHlMXyaFvQ8b8E6/u3ny/iXv/01u+qu5Z3b5xp7F5m+r9hd4v/hWMqtDDv9Bq++sJr9MTmk99JxjZ7KiIr1rF21hsO9pjA2Vic8/XaGnFzHuhfWcOiGaaQn6MrrGUff5fXf/oYNx85RsuFDjjY2HdcTshmfeJjtB+sBlNdTHeuuom6awfDTr7J21Ur2Rk3lliEu23MF1nh3Fco8U4zbNDWi06eTdDaP/OqmZ9B2fiuOqdg9rytTxkyRU8p8VLVVHFP22w1i23H81Dn7MaJPqEXW7nk/UNd3k8o961i38nleWf0i204aGLVlHP74N7y8chU7T5/mRFF90Dm31iqDyt0v88rKleT3yCKlh668nqoGBLlrag682XR/a37HznIT17BsRlb9ibUrf8MuMkjura4Ll5OngeNQ9WGaGjGD4rlwSqPfIFfT3SnGpnI5td7Oemt3HKr5Vc2RKlZ280BZS1RzpDimXDOUsVKNQ1wf2q/m2d2TqHJYtW6qqNrafWYvZx9ua2w213AwqNjzGutWPs/aV/7CSZ9mu5ap+rV7z4E0zc+pL9bwyosfUnQqjz+t+hWf5ruVtaIz6m75dTVtr8V4A3X1/GrP2tid2J1v18gcks69xSurVlPYezLJMXrzsbdZt/pFvgkbTVPaWvelYFC5dy3rfvt7SobcxtjoazlC0dnZX5t/cM2rUmT6AubcbHB4+7fUGk1vf1Nun4i27yMOVBlBz2tiYDQ2YhgmZif9CULjofWs/7AAd4sfMjkjw/FUn8fATU21QXikhlFfjz8sCqcjmgjdTX2jgXfnC7z2WRkGOpgmhqG+HoBj1P3MHFNNwaFzGJqGaTrpnzMeY/dXnGmef9X1VMe6I9PUiUuIpLq0HL9Rx5kzbsKj7c+VKt5dhSoHVOPGMZBbshMp2n6AxubnzW5+K6+nYPe8rkwVs8CcqvOizEdV22A1IVB3iG3HMak+5aHX6D5cjKoZkcy0x37O4uV/xyNzs0jQTOV5dgTWdxXfgbf4cF89RGcwMvII35b5lXPeeq2KwGXUUucxlNdT1QDbIsLw11Xjp56Db60hr9y8qlqhHIeiD3AxqK+fo7uriRnUC8001WNTsFvr7a63tsfReiC/nyNVrOzmgbJuqOKnOKYamypW4nrWfjXP7p4kMIeD7eNUVPlv95m1uw+3O7Zg19OTHmLpPywjLfKHf9D0S68brJYFtg02Njv3bJuy/nY+3S2/grUNlSN+nxZ0vIFtr2a8tnWR/Grv/WC3YXe+IyIw62owjQbq3Q7CI8CorUUfkMaQHrXsX/82h7whImxUUFUXRnR0Z305LzqC3c/XLV3zDDJqj3GwwCA9dzHpcTqOQXcwaXAJ2zeHkfN4LikxmvI8TJOw0bk8928refrRO+nr7JwFVfP58KsWj/DxzH5kBhd/QOcv2U5R77ksffZpks9t40iLHypHjpxJirGXg1VG0OuZZ79my45Gxi+4j8FOE6JvZsLQEnbuDSfz3nuajimu19qx7kTTDKrPN5AwdDAuPYHBfeo4efEnEHbmqpV4dxWWHAgYt2v4NFJ7OUic9hQP3J1BrGbazu+gx1TsntdFqWIWmFNHG9T5qGobdA5UrvPYdiSjrBB3vxQu7sP0SJ3zm15i3ZrVFMSNZ2SMrjzPDkt9RyM+M5eHlz/HoifvY3iLehOVkkpU0W7OXnwpFzjnylqlk5D+MLkrnmZMxTYOtVh/Wl5PVQPUdGJSHiJ3+XMsyr2Tvnor9fBKa4XdmusaTD9XOSWF3+Hvk0TL79NYYhXAdq2/zPU29DhU8xtkjoLEKlQeXFbdCKLl2NR7mOB5Krq+9qx5EHpPEpjDre7jArSW/6GeWdv7cJtjC3Y9f8lGPln/MUfdzQca3YTfOJfcFb9g3qwMYrTgdd/SNsjYLueerzfdJb+CtQ2VIwU1/qDjDWx7NeO9HrV3bRSt85d8xIaCnkx54p94/MFJxGtNeyjb+1IhuLJ98jX9G6kA3uNf8sl3x2h85kn693FxPiUNZ/5/k18bxez+/fA4recN6Otg394X+dVe0CJTmfnMXMYN/YIPj/qu9e1fOc8uPnrdz6BZTxJvQOz4WSQdW82az2oYs3AJkwbl8+VJAy1+EnffFcfe1zdR3crfgjEvHOGbTcU4hi9nQJROZfotRB18k2J/BEMTe3Hxzzqorme3j+td/d732X/v/Tz4RDyxle/xSrXR9JOFEHM1cWA+u5PU8e4qAnMgAizj7jm8Hxe+XMMbX9WRPPcpsobl88nxIM9ci7YJZivH7La9jpmmpnz+v1DkI1f7jZFuFttrSfMd5Tvv3YyOhlIALZr+2QtJzvIT08vFt44g59nQsr4PjNE5jUn1N2/whw+ON3+7pPlvRZkxjEqOofjzUz98YyXgOY67SVWrDCr3v8Z/f1pH6sJFTOx7kE1nzEuu50enl6IGfPxdfybOe4AbY3WMk5/x5p/3YWBQm/8Wf3jv8Pf3F3RzYaNWmPrgS/r4w/v7iFaOw0qPGkaf/sn0frCRHrGlDHBtpchnjZWqjygbtb6WYDG11lX747DOr1MxR18HiV+oPGiLZ7/l2KoMndiJ1hq2OUieiutDe9a8UHuSYDms2seZjiGWGuULspaGemZbaxtYp0suqG/S7p5b85VRVAAXnxvju3d49ddgajcw6fFc0hL2k1dhKp/3wLbB+rV7z9eb7pZfqrZ2csQMsg9VtbV7L91Be9ZGEZqmNXBy88us3RJPZu5jZPbfwcbL2ZcKcYWuWU6Zpk7fu57jwd5fsfY9PwlRXqrcJg7NQfwtK3huAmgUcdrQ6DPj55ee12CQkPU4sxJ38c6nfsCkKy39vnoPYX164m+sIjZOx91g4owIw1dfj99w0+B2EhGpYzoHkPXAZGo/XsW+IH+A2jQ1YnOWc4/+Bm9ucRIV3khDo4ETH9Fpi8lNdhEXV0YZYDoHWa6nOtZdab5T7Hn7v6i9fxF9tx/Aq2k4bc6VKt5dhSoHVDlaX1eHx98Ahhdvo4nDob6epa3bVB4DMCOGkZYZRfH2fKpNLeh51ztVTqny8XJIbK81D8eK/Ey9M5zTJiTcPIX4Q2t4c4eTCUuW4FCcZ2fjHJP99CX13e1t5cej0emMijrCplI/oJjzBrP1WmXUUd/gol+MA874Aq6nK2uAZpSw443/YMfFa2ia+ldb3B4c0T1wUMHoeY/RY8NqdtisFYF9mFqQmqvqo+8gGne8xB+/rGH0vCfoH6dTVGFaYqXsw0atPw2211vb42hNizkK+kyHyoNgz74qfopjWyoGBoxNU8ZKXO/ap+bZ2pMEyWHVuqmqUXb7tdNWtQ9vqtOKcy9jz206+5A0MpKyQ0U0mBphqQ9xu+sjPt7twePViL4Y4IDnXdU2sN/LuWe8XhzR8Wi6l+gIPx53kPMUtWJrJ/z16+6UX621DZUjwcbb1M+lbe2OV+k6y68m7VMbuxXV3qNSdZ4bPSYOTfc05w9ETlzKj8P+yFsba3B7gn9e/Z7ekx7RXurqguSeEDY5EhMT/9HpdOL3t+8fetQ0k/pKP32zH2TWj1LRD33A59uKKPv2CzZ//hc2bSyj94Qkar/eyuFSX8B5xVyoj2TYbfOYNfMmIos/Y8OmI9QZlyZ/WFgYXq+3XccRij5iDgsWzGJEvwEMTB5LbOVOjh65QI+sh5g2aSJ9L2xk456T1Jzz0O+Oh7ktJ4dB3jy+2nQcb+p8HpzQG1f/TDLGpxFdtptTiT++5HpxF3ZSeMzDwOkLmZJ1Mz1KPmFTwRlqinexe8dW9u0uJip5KLX79lGVYr1e6dB5lmMnqi9dmDpDHK8V15DZ/GjEUTbkldCIhr+i2tZcnVfE+1wnzEcVV5o1L74rqrKO+0wtibflclvOZAZ7t/HV5uO4h98bOr93n6ThfI3lmBcNx8A7mHNfMjU7dlHuU8S7+byWOmsc7QqsCXEXdnKosN6SU/WmZslHVT0pTphtOVZ03uiWse0oet9xjI0qZP9+J6OmDqVy+1aO18STcsdsMkYPoUdsGFX7d3A63nreiYZLrxU4B40XGi313eidQUpCCQcKKy/5++BRGbPI8GxiW2EVpqauX1WKWlXR6yYmT53MmHGTGc5uNm5uWk9bXg8NPOXWGlCv+BCl3ZBO1m2TScnIIvPm0biK93KitIboCQ8xY0oWfery2PJ1CXWKuhCsVlxyfQ3cJTst4zhTWXtJH5u3nyR+/FRuOLmZw2f9+PtMIiViD9+W+i2xsoxBA895d8haX7dvHyeL7K23gWtrsHFU3GCdXz1xnGWOqs+pYxUyD3afxDdCUbuLqq1zVFVrOeZTrBlHjzdYYuXupc7Trkhq46Xas+bZ2pMEyeGi84Zl3VTev2ItPTFgbshnVtU22D7cp+hbNbbAff33a/jQmcydn0btjp2U+zQMdzgj7ppPTtYk+lZvZvPOEtyK5x2wtFX1e7zYa+ue/RdqiMt6iOmTb6Fn2edsPlDaVJMdA0nOjKZ4TyENaPirrbXC3QleSnT3/Ao2z3Zy5ES1qRxvYNurGe/1ll9tWRu7k8A4qua7QR/I2BnTGZd+C+kTshjgO8ihgrPEZc/nzsnj6VHalD8NFxrpf/tCpk2aRP+GPDblfYe7Z4ZlX1oWcxOTp+SQPG4cscc/YmPBWfxdfK9il+xpQlPVtaLzl36ZJTCO2tixY83w8HA8Hs+1vt82FxMTQ21tbUffRpcncWwbEse2IXFsPxLbjidzIETnI89l+5HYivYk+SXak+RX25A4XlsS77YRGEf5XSwhhBBCCCGEEEIIIYQIQV6kCiGEEEIIIYQQQgghRAjyIlUIIYQQQgghhBBCCCFCkBepQgghhBBCCCGEEEIIEYK8SBVCCCGEEEIIIYQQQogQ5EWqEEIIIYQQQgghhBBChCAvUoUQQgghhBBCCCGEECIEeZEqhBBCCCGEEEIIIYQQIciLVCGEEEIIIYQQQgghhAhBXqQKIYQQQgghhBBCCCFECPIiVQghhBBCCCGEEEIIIUKQF6lCCCGEEEIIIYQQQggRgiMxMfEfnU4nfr+/zS9uarGkLfrf3De0iH2HzmNoGlrsZOb+7WP0P76FY1UGZuQYbn/iWX4y+y5S+tZRdLCEBjRLWzM6hdsef5afzLmb1P5uivO/o97ULukvLCwMr9fb5uO4WvrIBTy5dA6pGVlkjO3BufxC3BN+yoqFt5Ocmc34O+5nrLGV/aUDyc5dyvTJU0kb4qP42xM0hN3I1Nwl3Jo1mdQBdRw/XIoXDdMMY/gDzzLVuYdD5T4AyzHTmWS5nnfEvcyfP4ebJ8zgthnDOJ+3h/NG14hjWzO1eEb9+BkWLZyAf0cepxs1wiY9Y2te3GiYzuHcuXw+Pb7dRZkiXN0ljirO9KX8bFESJTsKGfjQckad3smJhis7rzvHUUVi2/Hacw7MsJFMyV3CrRNzSBvspujQaXyKul05/GGWLptDasYkMm8ejat4L+XDHmXZklmkjptG5hA3RwtOYoxZzLLHZ5OSkUXm+BQiS/dwwj3S1rqij1xo6eN0nWKcYxZZ+igbmGvtt36YpZb6Uh6z3LMXzdoJ1jVOdUxV103nMHJylzJ98hRS+td+P17L9RVrZoMzydKWSfbWb7eqD8X8Kq93ZqhljlR5cN6wrkWmcxjZi5YzY3IOqcMMSgpK8Cny4GS1qWwbOF5Vv+fMBEucm2LY+rrYVXT12qh8DhS551Hkt0ex7/SEjbK0VT5Dij4Cz7PWvFG2+vNo1pxTPbN2nzvVOO2OSXUvtudBccxuW1DXQes9q2Jqb7zO9CXMTzvNgWMe0hatIKlkF2bWUu6fNYvbZt5JSuo4etXv4WjFIEudUcX+WpP8uvL8Un1erTYuYz22Uf+vt/xqy/1gd2J5ThX7lgbXRO5bksnZPYdpaJ5705VEzuKnuDMnh7H9ajleWIrHOZyc3Ce5I2cyqX2rOVJYhjFSsUdOWsLyR3/EmHGTSU44S+GRs/i1js+pa6Gr72muBTu1MzCO7fqNVMfA6WQNOcGOL4/h0zRMU6dPzq0MLs9j54lGAKIyppPh/5QX//U1SodO56ZBDkvbRnR6TrqHdPeHvPgvv+dE/5nkjAlrz1tvYwYVe15j3crnWfvKXzjp0zBqyzj88W94eeUqdp4+zYmieqJumsHw06+ydtVK9kZN5ZYhLsLTb2fIyXWse2ENh26YRnpC05TpCdmMTzzM9oP13/cSeEx1PePou7z+29+w4dg5SjZ8yNHGDglIp+AaexeZvq/YXfLDDxHszotpakSnTyfpbB751UYHjqKz8lPn7MeIPqEWKLvniR9IbDte+82BK+VWhp1+g1dfWM3+mBzSe+lB6rZBzYE3WbfyeV5Z8zt2lpuAQeXul3ll5Urye2SR0kMHTCr3rGs6b/WLbDtpXMa6oupDxdqH6piqlqrvWc3Ouqeq667RUxlRsZ61q9ZwuNcUxsaq+1Ddn6qt3XXC9vwqrqeaI1UeqNYi17BsRlb9ibUrf8MuMkjurc4DZVvVeBX9quIs62LnoXwOFLmnmm9V7qnaKvu1eV5LdvtTjelqnrtgddBOW9W9KNuq5uEq2oK6DgZSjc3ueANpmp9TX6zhlRc/pOhUHn9a9Ss+zXcHqTOdj+SX/baqz6vBBObhldb/rp5fsidvG3bn2zUyh6Rzb/HKqtUU9p5McozefOxt1q1+kW/CRtP0mAbZI+9dy7rf/p6SIbcxNvpajlB0dnZrZ0vtVpVMLZ6U2yei7fuIA1XNBTUynayb4zi+fSuVzd8m9Td48GsOnA4d3XTjdpuKtg7ie8ZRdeIwNXWFnCh3EhnrbK9bbxeafmnh9B14iw/31UN0BiMjj1BQahKXEEl1aTl+o44zZ9yER4N35wu89lkZBjqYJoYBpumkf854jN1fcaZ5rgOPmaauvB6AY9T9zBxTTcGhcxjd5CcxKo2H1rP+wwLcLd4N2J0XHAO5JTuRou0HaOzGMQzOpPqUh16j+3z/82MzIplpj/2cxcv/jkfmZpGgmcrzRCgS247XfnPgjAzHU30eAzc11QbhkU0tL69uR+AyaqnzqD/M2F1X2lJra5Kde7az7oG6rhv19fjDonA6oonQ3dQ3WvsIdn+qtrbXCQXV/AZe79syv3KOQJEHqrUoIgx/XTV+6jn41hrygr0AV7QNFqvAflVxlnWx81DNjyr3VPOtyr1gdSmQ3fNasttf4JhC15TW7yvYM2anrTL/FVTnBWurJz3E0n9YRlqkGfS8YHU6sK1qbHbHa5vdOtPBJL+a2MkvsH5eVbVV5mFb1/8ukl+yJ28jduc7IgKzrgbTaKDe7SA8AozaWvQBaQzpUcv+9W9zyBsiwkYFVXVhREd31pfzoiPYrbsttVsGOQbdwaTBJWzfHEbO47mkxGhEp+cwIsYk8dafs3TJTAaFmXgOb+NY/I9Z9vdPMPz8Dg6eNaxto/1UVlQTN3AksVEjGNi7gtJiT3vdettrdBN+41xyV/yCebMyiNF+mKGolFSiinZzzjCoPt9AwtDBuPQEBvep42SLN+KRI2eSYuzlYJUB0TczYWgJO/eGk3nvPQx2mpZjQ1z+oNczz37Nlh2NjF9wX1Pbbkrz+fAH2diEmhfX8Gmk9nKQOO0pHrg7g1it+8YxGKOsEHe/FC6uU3qkzvlNL7FuzWoK4sYzMkZXnidCk9h2vHadg/DxzH5kBi2/wGKt2zoxKQ+Ru/w5FuXeSV+96VhC+sPkrniaMRXbOFQPoBGfmcvDy59j0ZP3MbxFzQ+5rij7UFH1cemxEUHXJNU9K9hY9wY7TWVd95dsp6j3XJY++zTJ57ZxRNGHpqlrfWtt7a7fdua35fXOtmh6yRxhzQP7a5F1jlRtg403sF9VnGVd7DyC7m8Ccq+1/A7MvWB5G6oPu0L1FzimYM/s5d6XpV8bbVvbP7akOi9YW3/JRj5Z/zFH3a2cp6zT1ratjc3WeK9Dkl828ivI51VLfinysDvXf9mTdyx/yUdsKOjJlCf+iccfnES8djn7VyGa2K27LbXL1zpN08mAcWk48/+b/NooZvfvh1t30HdQP+p2vcbL75znlmV/w8SUDXgT72FI8e/49b+f55Zly5kyZhu7R17a1hMGBXnvs3/kQh77RSxhpR/wn6V+6CI/0zG+e4dXfw2mdgOTHs8lLWE/eRUmphnDqOQYij8/haFp1O99n/333s+DT8QTW/ker1QboGlo8ZO4+6449r6+iSpDJ+6mW4g6+CbF/giGJvaiFizH6jWCXs+8cIRvNhXjGL6cgTE6JRekuLQUal5erjLomd2PC1+u4Y2v6kie+xRZw/L55Lj6b1V1V5rvKN9572Z0NJQCaNH0z15IcpafmF4uvnUEOU+EJLHteO06B55dfPS6n0GzniTh4rdjAur2SQxq89/iD+8dbv6GqoYTg8r9r/Hfn9aRunARE/seJA+T6m/e4A8fHP/+PCDkulKvAYo+TH0wE+c9wI2xOsbJz3jzz/tA0YdTccxUrUmKe954dtAlffzh/X1E21z3ApmmRuz4WSQdW82az2oYs3AJkwbl88XpgZZxqGp9bLa17ZcnDVvrt+kYoohVkPkNuF7gHFU3/xZPyzwYEKXjHm5dizYok+rS+TBNnT4BbScNzSevb5Dxhtg3mKZGT8W9yLrYybTIvXgD5bPx5UnDknsRAW0TWts22j2vhSvt72qfu8B+1fXtysZ0uTRfGUUFEOyzjWlqQWueqq2qfqiOdQeSX6HzC4J/Xm3ZVpWHtdCt67/syTuWpjVwcvPLrN0ST2buY2T238FG5R5ZiLbVbjnl0BzE37KC5yaARhGn8VNbWw/xDjQc6LqJYWi4wlxopolpGpimA2eYZmlbCpgNBXzx0q+pfWw5A3ds+v5PA3QFYakPcbvrIz7e7cHj1YhuLqhEpzMq6gibml8Ka75T7Hn7v6i9fxF9tx/Aq2mYzkFkPTCZ2o9Xsa+i6Vs+TnxEpy0mN9lFXFwZp8FyrAws1/OgE5u9nHv0N3hzi5Oo8EbcXoOu8kL6mgk5Lzr1dXV4/A1gePE2mjgcIa/aDXk4VuRn6p3hnDYh4eYpxB9aw5s7nExYsgSH4jzZWNglse147TMHvnoPYX164m+sIjZOp6HeJCb7aUXdboVRR32Di34x6sJkZ10pC3JpzShhxxv/wY7vD9jfnKrWuO/btrhn7cylfZiabnvdU3FGhOGrr8dvuGlwO4mI1JXjUNX6aEVbMGyt36o+CJhf98XfIQq4XuAcmaZGbM6l63dDo6Fei9weHNE9cFDB6HmP0WPD6h/uoQVV28BYhUfoxGQ/ZWvfIOti5xZYW9wNpvLZMJ0DAuqDom1z3poRw0jLjKJ4ez7Vphb0vNZY61Hw/gJdzXOn6veyntk2Zjr7kDQykrJDRTQE+YwTrOYFtlWNTXVMyevFER2PpnuJjvDjcQf548H5owAAIABJREFUnKCoM1s74a9fS35djEPo/Ar2ebVl23pT/TnUdv2/zvKriezJr5pivrdUqs5zo8fEoeme5vyByIlL+XHYH3lrYw1uj429h96THtFe6urkHYi4Oo7ExMR/dDqd+P1t90fRNM3gwqEv2Pz5X9i0sYzeE5Ko/TqPwuJq4rPnM2d2NvFln/L5Z99y+oyHPtkPMWtWDvFln/HZ599y4mBA2x15nGjQiB33MLNHHeOTP39DrWIR6Kz/I5nhDmfEXfPJyZpE3+rNbN7Z9D8PRmXMIsOziW2FVZjN30BxDZnNj0YcZUNeCY1ouNLm8+CE3rj6Z5IxPo3ost0UHvia3Tu2sm93MVHJQ6nbt4+TRbsuOVa7bx/nDO2S6/mAxguNDJy+kClZN9Oj5BM2FZzBF+J/VL1e6SPmsGDBLEb0G8DA5LHEVu6k6LwRcl58gKe8lsTbcrktZzKDvdv4avNx6s3uGUcVve84xkYVsn+/k1FTh1K5fSvHa+JJuWM2GaOH0CM2jKr9Ozgdbz1P/mf51klsO157zoG/opoeWQ8xbdJE+l7YyMY9J6mr9Fnqtr9nBlm3TW76X9ib/0fSsuhxTJ46mTHjJjOc3WzcfISGGzJISSjhQGHlD/XMxrpSu28f5+OtfZyuU8Sjd7qlD9UxsK5xeqL1nusC/pdgTQN3yU5b615F0r2X1PW4Czs5VFhPvzse5racHAZ58/hqk7Veq+7PB3jOu5Vt7azfKpb53X0Sr2I/oJqj48VeSx7UnbGuRTVVtURPeIgZU7LoU5fHlq9L8Pa+NA80Tb2OVZ7zWMZbpcg/Y4Qizt9Wh1wXu4quXhtV+5ujRy5YakuNYr69qdbc+66oSpm3joF3MOe+ZGp27KLcpwXN75YCY6vKdVV/voCcu7hnu9LnzlD0e6La+qJG1TbYvdiZh+KE2cq2jqEzmTs/jdodOyn3aZa2cRd2UrB3h3KvH9hWFdPSofPsjfdCDXFZDzF98i30LPuczQea/7d5x0CSM6Mp3lNIAxr+amud6Yz/q7rkl738iq3cybFTLuXn1UvbqtfjU6WhPxfB9Zdfbbkf7E4se1/FfDfoAxk7Yzrj0m8hfUIWA3wHOVRwlrjs+dw5eTw9Spvyp+FCI/1vX8i0SZPo35DHprzvcKv2yDE3MXlKDsnjxhF7/CM2FpzF303+nntX39NcC8HeC7UUGEdt7NixZnh4OB5PF/qbo0HExMRQW1vb0bfR5Ukc24bEsW1IHNuPxLbjyRwI0fnIc9l+JLaiPUl+ifYk+dU2JI7XlsS7bQTGUf7csRBCCCGEEEIIIYQQQoQgL1KFEEIIIYQQQgghhBAiBHmRKoQQQgghhBBCCCGEECHIi1QhhBBCCCGEEEIIIYQIQV6kCiGEEEIIIYQQQgghRAjyIlUIIYQQQgghhBBCCCFCkBepQgghhBBCCCGEEEIIEYK8SBVCCCGEEEIIIYQQQogQ5EWqEEIIIYQQQgghhBBChCAvUoUQQgghhBBCCCGEECIEeZEqhBBCCCGEEEIIIYQQIciLVCGEEEIIIYQQQgghhAjBkZiY+I9OpxO/39+mF3be9BTP/vQxbr1zFlPuGEPjrjxOaGO4/Yln+cnsu0jpW0fRwRLcUSnc9viz/GTO3aT2d1Oc/x0NkdZj9aaGFjuZuX/7GP2Pb+FYlWHpMywsDK/X26bjaAv6yAU8uXQOqRlZZIztwbn8QmqHL7QcqzITGPXjZ1i0cAL+HXmcbtQAMJ3DuXP5fHp8u4syL5hho5iau4RbsyaTOqCO44dL8aJZzlO21eKVfbTUWePY1lSxCJv0DCsW3k5yZjbj77ifscZW9pcOJDt3KdMnTyVtiI/ib0/gDhLvlrpLHFWc6Uv52aIkSnYUMvCh5Yw6vZMTDVd2XneOo4rEtuO15xyYzmFkL1rOjMk5pA4zKCkowTviXubPn8PNE2Zw24xhnM/bQ6ViDak2rHXJOWYRyx6fTUpGFpnjU4gs3cOJ+qGWPhqcSeTkLmX65Cmk9K/l+OFSjNTHWf7ojxgzbjLJCWcpPHIWv2ZdM4KtK/rweSz76VQad3xNmU/DDBvJlNwl3Doxh7TBbooOncbjTLLcixtrHwCmGcbwB55lqnMPh8p9ynqdH363JVbndHt9mM5hlhh4NOu6rI+YY3s+7PShirPPNdyy7jSEjbLEz4tmiYuqD9V5+siFLF02h9SMSWTePBpX8V5O11njrJpL1Xw4Ux5l2ZJZpI6bRuYQN0cLTuINMpedXVevjapnMtjzZ8n5sBste0xPkNyz9KvoI/A8S81T7GlV/ameRdOZpNyf2bkv1fWUsVTGzfp8KvsNUhtD7R+/bx/4bNuIb7C2qnr5zQlr5870JcxPO82BYx7SFq0gqWQXZtZS7p81i9tm3klK6jh61e/haMUg27X7WpL8av/8Un2urXJa64aq7fWWX225H+xO7Ox9G1wTuW9JJmf3HKahee5NVxI5i5/izpwcxvar5XhhKR7ncHJyn+SOnMmk9q3mSGEZxsiHLfub8qQltva016Ouvqe5Fq7kHVm7fSPVt3sNv/xff80bm4s5u+9L8qsMojKmk+H/lBf/9TVKh05n3EAHPSfdQ7r7Q178l99zov9MspPDLMdyxoRhmjp9cm5lcHkeO080ttdttxODij2vsW7l86x95S+c9GnKY66xd5Hp+4rdJT+81DZNjej06SSdzSO/uunlcXj67Qw5uY51L6zh0A3TSE/Qleepjqn66K5UsTBqyzj88W94eeUqdp4+zYmieqJumsHw06+ydtVK9kZN5ZYhLmVsRUt+6pz9GNEn1AJl9zzxA4ltx2u/OXANy2Zk1Z9Yu/I37CKD5N46xtF3ef23v2HDsXOUbPiQo42gWkPUdcmkcs861q18nldWv8i2k4ayD9foqYyoWM/aVWs43GsKY2N1wKBy71rW/fb3lAy5jbHRQe45yNoVMyieC6c0+g1yNZ2XcivDTr/Bqy+sZn9MDum9dOW9BKMnZDM+8TDbD9YD6nqtipXdPlQxUK4TNufDbh+qOKvWHVX8VHFR92E9DwxqDrzZlBtrfsfOclN5nmoug12vcvfLvLJyJfk9skjpIb/01FFUeat8/hS5otpjBss9S782z2vJbn+qMameE7v3ZXc/rGpru1+b+/pgLM/2ZcTXTr20Q9P8nPpiDa+8+CFFp/L406pf8Wm++7Jqd0eS/AruyvPLut6p4mxHV88v2ZO3Ddv7tJE5JJ17i1dWraaw92SSY/TmY2+zbvWLfBM2mqbHRbW/sbenFd3Tlbwja9eqFJm+gDk3Gxze/i21BvgbPPg1B06Hjm66cbt14nvGUXXiMDV1hZwodxIZ61Icc0JkOlk3x3F8+1Yqza5XhDTdes+BxxoPrWf9hwW4zRYHHQO5JTuRou0HaGz+qYl35wu89lkZBjqYJoahPk91TNlHN6WKhe/AW3y4rx6iMxgZeYSCUpO4hEiqS8vxG3WcOeMmPBp1vEULJtWnPPQa3ef7nx+bEclMe+znLF7+dzwyN4sEzVSeJ0KR2Ha8dpyDiDD8ddX4qefgW2vIa3655Rh1PzPHVFNw6BxGc82xrCt265KiD6O+Hn9YFE5HNBG6m/rGFh/AjAqq6sKIjlZvGdTriotBff0c3V1NzKBeaKaJMzIcT/V5DNzUVBuER2pBxxvINJ30zxmPsfsrzjTvcQLr9bdlfnWsbPahikGwNdPWfNjsIzDOUZEO5bqjip8qLqo+VOfZjbNqLlu/XgQuo5Y6j/yQsaOo8laVP6pcUe0xlc+ugt3zWrLbX+CYTFNX789s3pfd/XBg27AI9fOpYndfD6AnPcTSf1hGWqTZPD7rMxYsvnbaBquXV8xmXe1okl9N2jK/wLreKT+bXo0ukl+yJ28jduc7IgKzrgbTaKDe7SA8AozaWvQBaQzpUcv+9W9zyBsiwiH2tKJ7upJ3ZO2aQUbtMQ4WGKTnLiY9TsdzeBvH4n/Msr9/guHnd3CwvJHKimriBo4kNmoEA3tXUPqd23qs2EN0eg4jYkwSb/05S5fMZFBYZy2oCo1uwm+cS+6KXzBvVgYxmqk8pvl8+AMWHtfwaaT2cpA47SkeuDuDWO2HcUeOnEmKsZeDVYbyPNUxVR/dVWuxiEpJJapoN+cMg+rzDSQMHYxLT2BwnzpOlvhbnRfRxCgrxN0vhYvrlB6pc37TS6xbs5qCuPGMjNGV54nQJLYd71rPgXn2a7bsaGT8gvsY7FSvIeq6pBGfmcvDy59j0ZP3MdyprlX+ku0U9Z7L0mefJvncNo7Y+7ISEKSWugbTz1VOSeF3+Psk8f33acLHM/uRGdj8ssoPom9mwtASdu4NJ/Pee5pi0OxivT7b/GHQEiubVDEItk7YmQ+7fQTSdFO57gDW+CniouxDGT+dmJSHyF3+HIty76SvbqrPU81lkOslpD9M7oqnGVOxjUOXkUOibQXd3wTkT2v52HKPqWob1BU+46H6CxyTpqn3Z3bv67L2wy3aXk6/l7Ov95ds5JP1H3PU3XxisJqniK/ttljrZXch+dWG+dXKemeJczcge/KO5S/5iA0FPZnyxD/x+IOTiNeC7G+EaMWVvCNr10fZe/xLPvnjW3xT3Y/+fZz0nXoPQ4p/x6//v+fZHXkX01LDqMx7n/3hP+KxXzxFau1O9p/xW47tPQV9B/WjbtdrvPz/XqAg8nYmpYa35623KeO7d3j118/zyqr/oqj/raQl6MpjgUxTo+fwflz4cg1vrHuZgh53kjWs6eOoFj+Ju++KY+/7m6gydMt5k4a6grYVrTPNGEYlx1B84BSGplG/9332R8zkwSeWM67ha/KrDImtDZrvKN95hzA47OKBaPpnL+QnufMZ28uFwxHkPBGSxLbjXes5MC8c4ZtNb7O/ZgADY6xrSGq8dR1oqksm1d+8wWurf8m6l/7EMcWvnJumRuz4WSQdW82aXz7Ptug7mDTIob4PfTATFvyM3KXPsnBWOk5TvTnVo4bRp38ytz54C4mJwxhwsUR6dvHR659RaQBB9rWBfeiGSdxNtxB18AuK/eHEJfYiSrt475fWa1Ws7PZhNwaqPlRr+tX0EbjuHLz4K5ot4mcaWOISAZY+Jg50BImfQW3+W7y6+pese/VTSv268rzAuezvsPZ78XqV+1/j1ZX/lx0xtzOxr3xa7HQC8idYPrbcY1Zf/C0wG8/uZZ3XwpX2p3pOgtaoK6g9wdoGfT5DaHVf7yujqKCIerPpz7QEq3mqcdhtq6qX3YHkV9vlF6g/1waNczcge/KOpWkNnNz8Mmv/z6/YGZlFZn8HgfubMsXfrBfiarXLLtc0dfrM+AV/tXAScdF9SYjy4nGDK8zV/CthBqbpwBmmYTYU8MVLv2ZLyXkKt2yi0lQcw6S2th4cDjQc6Hob/MrANRSW+hA/GheHbnjweDV0h/qYSn1dHR5PAxhevI0mDgeYzkFMemAytR+vY1+FGfQ81TFhQ3Q6o6KO8G1p00+ANd8p9rz9X+w8W07BlgN4NV1ia4uHY0V++vTXMU1IuGkK8Yd+z1uvvk7+WUN5nrBLYtvx2mkO3B4c0T1wEEXKvKfJ6q0Rk/008yYnoOs9iApvxO01rGuIfhk1P6CP7ERwRoThq6/Hb7hpcDuJiGxxv3pPekR7qasz0IwSdrzxH7z64v/l9Q/24wvyYdwxdBCNO17izd/9PzaWxdM/TsdX7yGsR0/8jWHExum43abiXjRLH35Nx4mP6LTF5C59mNSeLQbWol6bpjpWtvtoLQbNgvWhWtMvu4+WcbasO5o1fg2mMi6qPoLGL4DqPMtc9ghxPaOO+gYXkTGyMHYmyvxR5Ipqj6l8dgEzYhipk8YSp7V+Xmsup79AqudEVaNsX89mW1W/dgWr06azD8OShxLZHEvVMxZ0Hmy0BSz7WyWvF0d0PJoeS3SEH487yAcuRV3tjCS/Lsah7fJLtd6p4qx0neVXE9mTXzW78+12o8fEoenRzfkDkROXMnfKDehGPW6Pjc/kLfZaQlwNZ3tcVNMMynd+RcniB/mrv4OK/ev58pSXC/UfU5y7gBX/7KT2yCe8c8CDaerEjrufSbH7eftgPdD0k7KWxzRN4+zWDziyeD4r/tlF7dFPePeAB7rIXxlpLD4C859mcbYOZ7/g3XMGjR7rMX3Evcy7awwJvXvDkr8h7uOVfL7zC8oXLOeRmxyY5zfzwbFGXGkzyR4Ux/kZK3hkejWF77/IlsDzjjdSc9LaVtXHhkJfR4eoQ+gj5ihjETU2jaiivzT92lNzirmG/IiJUfv5n1I/mqZRo5iXrpKP15Ln0DGqZt8CGlQfLkC/dwUPjy7HF2VQrDhPfvHCPoltx2uPOWgsyuPI5AU8+gx4y7/gvXMGde6tXHj4aR4dB97j77K+QbGuVBjqujTaXh9Vu77i/IKnWXIT+M9v4s/HGmGsTkLmYhbdCN7CP7G+DmWZC6ylsR/9lkOD4qg7Xo2Bn7JyJ8lDXTTmf8l3GQvJfUrHLP+cd84ZNFYG3MtZw9KJpplUbl7DS5ubvtFz65Lbvv+3lvVa00zqvlHEKnC8QfpQxUC1Zn6h6kOxztvtI1icW647oNF4MCB+FQY1AXHRNax9HG+k8qgqfjqxqXNZNMQL/nPkr/89OwOuZ5g6iYFzOcxFnnI+dHpmLmbRKB1XzXbeL5Z1saOo9jefK/KnVpGPyj1mYNvm/Hb0vYms6b1gbz4H3FhzVPEcBHKl2Osv2P418DlRUd2X3f1wsDHZ6Vc5D0H2j47BU7nrwRvY8qs1HGhQ17xg92KnLaDc31rGe2QLx7Pn8+gKDd+JD1gf5H8Wt1NXOwPJr7bOL/V650q3xnnrCeuLqustvy6SPfnVUc63E/TELO57OgUfBuVb/5MPvtnC8awFPLbCwF38F96pNXDn51GxcBmPphn4zm/igxN+GGHd3+zF3p5WdE/B3gu1Rhs7dqwZHh6Ox+O5RrfZfmJiYqitre3o2+jyJI5tQ+LYNiSO7Udi2/FkDoTofOS5bD8SW9GeJL9Ee5L8ahsSx2tL4t02AuMo3y0XQgghhBBCCCGEEEKIEORFqhBCCCGEEEIIIYQQQoQgL1KFEEIIIYQQQgghhBAiBHmRKoQQQgghhBBCCCGEECHIi1QhhBBCCCGEEEIIIYQIQV6kCiGEEEIIIYQQQgghRAjyIlUIIYQQQgghhBBCCCFCkBepQgghhBBCCCGEEEIIEYK8SBVCCCGEEEIIIYQQQogQ5EWqEEIIIYQQQgghhBBChCAvUoUQQgghhBBCCCGEECIEeZEqhBBCCCGEEEIIIYQQITgSExP/0el04vf7r/gipt6blPuf5ZFFdxJXtImjlQZaVBrTn/wbHphzN6l96inKL6Y+ciy3P/EsP5l9Fyl96zh+4CTxM/+BZx6fx9Tps5gyfSZjwgvYHz2XZ3/2BLfPmM2U20bSkJfH6UYNLXYyc//2Mfof38KxKsNyH2FhYXi93quJR7sIm/QMKxbeTnLm/8/em8dHVWb5/+97qypbJSFBIOxLAkggIewCAXHXbmjbrVkEggoqiE33zPRrevo3355vz/x+M3b3zPRiK612q6DSotKCggKu7IvsEiKEJRD2kH2p1Hrv748ETeo+RS6QQIDz/vPhWT/nPOece1NVZDP8rocZYGxkz+kujMmZzd1jbyWjczVHDpzGpyXT94c/Yca0WwhtrTuzGdWXcTmzuH30WDK71HDkwGmCfabx9OwHyBw0mkED2lCcm0+loWE607hn7qO0+WY7Z+plULaZUaQ98jPGOXeyvyho3W8r1bElCNdC7zNVrW1YP5Vd/GiN5r6RdAzHmTWbf5yRSuHWfLpOmkvfU9s4Xntp/W5kHVWItleflrSB3vsBHn30AYbdci933NuLkk07qRjwJHOf+B79h4wlPfkc+QfPEYy+2RKDfM5US15R5YsKPY3snNncPXYcA3sEOfbNcWqjrPMFez9o2UuJoRGOqSVZcpez/wzmPHk/GYNGM3h4BrGnd3Lc28eyBqN+asmPXx9X+2R4HFau4elp0cCPNYZHQk+bwpyfjiOw9SvOBDVl/s5LmGLrbOE5IZJWqnWdmbMsNg9p1jxvOlMttvRir5+h0H7P2Z6KmmM6s+c8QOagUQwe1g/XsV2c9PWy1jBOq195FRpcC1yPsVHly18f91vrG4WPRvLbcMyoPtyaM4vbR45hYHcvBftPNVkbqeopX1RfyzzKGjmC/9vdl6pGtoxV6WF3XdVYGxoBynrUe4u9eKnUVKGfCmfWLB4deIq9h30MnDGP1MLtmKNn8/CECdwx/h4yMofQzrOTQ6XdyJ4xl3vHjiGzl0FhXmGruO/iX5fuXxW6tYZQjQX1s6SdPHu9+Vdz1oM3EpZ76uxlsXetayQPzRrMuZ0HqK23velKZcxjz3DPmDEM6FTNkfy62mNMztPcNWYsmR0rOZh/BkNRtxSlquuqG4HrsaZpbuzUOZZntuZYOGrYJO7qUszpcrNuI6aGe+hd9K9axvxf/ZmCTncxtIeLuEF3Myj0CS/915uc7nk3Q7s7AJPyLX/kv37+/7L+ZDUlp89iahr+vIX8+l/m8J//z+/ZXgOmqZMy5na6F21i2/FAc2z7imFUn+HAqj/w2vMvsO3UKY4XeHD1G0fv0iUseGE+B9rdyoAEHdeA+xgcXMOOwu9eakdn3UmPEwtZ+Of57L/pNrKSdcCgdOebLHz+ORa8/hEnglqd5ll3k3puE7mVdS+ZVW0AenI2wzscYMs+z5WWotVh1cKqraqf2i7Cd4SocXaid0pTCcpuP+E7RNurT8vZwDi0jLf+9Ac+P1xM4ecfcygAYFC2awEL//QqhT3uYIBbHYNUeUUV0+KG3kvaqTdY8MLz7Iobx4geLuV86r1YUeUuMCnbuZCFzz/H6y++xOYThnoNRX6MhDVeW9dQa2Av75mmRny3JMpPanTq5qqzh3J/9s5mVyvVuiqbq3K6ypZ2+6nOFqnmqNq7uO688//KtiJTqbNqDaH1EOmuhd8NlY+q77gVV8bt9Dq1iDf+/CJ74seQ1a7p2kgZyxTzqPZg1+dU80WqkS1jL2ddlZa2NbLGbrvxUqmpTRuGo2khTn4xn9df+piCk5t4/4Xf8kmuF1evbPpUvM+C5//AdgaR3r511sHiX/b9K1L+VKHKqZfyfHmt+5fU5M2DXXu7+owhtfgdXn/hRfLbjyU9Xq9ve5eFL77E11H9qLsu1rpFVVcJwnkuJUc2S1QKHV3B26+s5JTP/LYtzh2Lt+Q0Ht9xiqtiiIuHUK2PkObA6dDRTS8+X4izn/yGV5bvh8630C/xEHn7aupnMDACAQzDxNQ0iM1i9LBEjmzZSJl5bQWh4N53+Hi3B9yD6BN7kG/OhDA8HkJRcTgdbmJ0L56AQWD/EpZ8nIf3Oxnxb/szb356BgMdTBOjPhdrepgGjq6MyO5AwZa9BM7/dUXRZppOOo8ZjrFjDWcv/UPI1wWRtAjXVtUvkl2E85hUnvTRrl/Kt38/NmPSuW3mv/DY3H/l8cmjSdZMZT+hKUTbq0/L2sDR92HG968kb38xRsO/lhulVNRE4XbryhikyivQOKaZpk5iciyVp4sIGTWcPesl2h05pkXcSwNUuUuFag1VflRhN3epNLCf91x06xji0I5K4ru1QzNN2/uzmxPUWlnX/e5A39k8PKdHsqXdfqqz2T1HuM41ftR7EVoNKnur7obKR+3ecWdsNL7KEgy8VFUaRMc2HflUPqeaJ3wPEf3f7r5UdbOCy1lXpVskjfTUScz+tzkMjP2uc3g9GikehY9VaWrXhraJiSJUU0kID/vemc+mouaauHkR/7LvX5FqiPCxqrjR7M+X14h/SU3eTNi1d0wMZk0VplGLx+sgOgaM6mr0LgPp0aaaPUveZb+/CYUb1lWCUM+l5Mhm8SCj6ChnfYp/cI9m0ryH6KiBhobvwGYOJ/2QOb98irSSrew7Z2AG/fj9Gh2HDCT2yFfk1wKmSVS/HH7+6+d59ol76Og0cWeNoXe8SYfb/4XZs8bTLaq1BtTIxGVkElewg3MhCBVuoaD9ZGb/7FnSizdz0ANaMEgowkNLbJ/xZBi72FdhQMBL9M2TyZn3C6ZMGES8ZuJKu43Mdg463PYMj3x/EAkR2nAP45aehWzbFc3gB39Ad+e1p2OzodJCoe2FNGtkF6ERxpl8vJ0yOJ+n9FidknUvs3D+i+QlDqdPvK7sJzSNaHv1aUkbmOe+YsPWAMOnPtRkjG4Yg1R5JTymJeghKktqSe7ZHZeeTPeUGk40+OtreEyzsxd17tJIGpzD9Lk/Z8bTD5HWRNxsmB+VKOOwdQ2lBnbznqs7nVxFFOYfJZSSSsPPADXe38WdrUmtLrBuo25hOT0xgi3t9ruQ9o3PoROfMYmcuT9nRs49dNStOh+qNS64htB6aGRvxd1Q+eiF6lML0cO5//F7udgv6ljuTtg84XvQtIv0ubD5lDWygstZN6JuCo1ChWtZvWQVh7z1Dap6tJ7wO2sZW09DTS/Khtch4l9N+5cyf6rGqnLqDfx8KTX51SVUuJLP89py61P/zpMTR5GkmajqFkG4EJeSI50ts5V6PF+xfEEJ6VMG0tmEjuN+QI9jf+X3/1vCiDlzGTdgA0tzA+BKIzM9loKPcuv+arfrJX67C7TYTMb/ZDKDe6zhQLdO1Gx/k9eWljBizj8xKvNTju+4dn7rwTTj6Zsez7HPThJCJ2H4BFIPv8j8T6voP20Wo7rl8uWJCA9eSaP4/n2J7HprHZWmBkeX8sbvwdRuYtSTOWQm7eFwWifKv5zPojU1pE9+hlE9c9mtaNvcdQRx+xZzLBRDzw7t8NygfxYzTY3EoVYtDIW2uRlqzSx2ERqhBQ9x1P99+rnhNIDmpnP2NNJHh4hv5+IbR4R+QpOItleflrSBWX6Qr9ckr9zgAAAgAElEQVQdw5E2l67xOqci7aFBDKowdBJGKvJKWEwbmLyHjbs+ZM+DDzPxqSQSyj7g9UoDNE0Z08L3cqyyGyOnPMLNCTrGiU9ZvHw3QeWnbUwqv17E31Ycqf8kq2bZ87drNMiPhqZh6t0brfG3D3fjVsTr8DVMUydhdGMNRnbNZUeqdWz4GouX7yYU14uUzum0nxigTcJpurg2UhC07k+3eTbVGiqtdMW6x8PVNKBtWE4f3SuXVWG2fK3CoG120/3O2zz8bKpz6BhU577D3z448J3Ot1h97YsIawith/BaVFUHXTa+7ax8K0S3CU+TbPPZNdznYmzO41H4nOnoYbl34ftKinSfjna2dWdV616UryvOpgXPUJAH5+NJeD06MHkPm0pN9Z0NG6vS9EZG/Ktp/8pM2sPefupn04ZjVc9P1dAyseQaQWryq4um1XJi/Wss2JDE4JyZDO68lbVhdQtoLfzSS7gRaRafMjUNh67VfbxV14EAnppaYtI6ogWdtEv04qnScEW50EwT0zQwTQfOqLoo6+o1gt7OfazK92OaOm2zZzGhw3aWfhICTEwMqqs9kORAw4GuX4NfpXZn0TfuIOtOhwAdZ0wUQY+HkOGl1uskJrbud8jCMZ3dGP3IWKpXvcDu0rpsGJU5iTtdK1m1w4fPrxGng6emBl+oFgw//oCJw6FucxLEPfAxctJdJCae4cyVVaFVodJCpa2qn8ouQjg+DheEGHdPNKdMSB52K0n757N4q5NbZs3CoegnhYVdRNurT8vYID77WX6gL2LxBidx0QG8/gZ5QW9LG7efmhoD09k9LAZpyrwSlfmjRjHN7QAteJKd7/6F6odn0HHLXvyaZolppqmRMGauZS+aUcjWRb9j6/k9XcTDXcS42Sg/apY1TE23nbtUGqjGqs7h7NmNwNaXee/LKvpNeYrOiToFpaZlf3bPZlcrh2Ldb1+knre5x1DmdKstdZv9NKX2dnObSueIawith/Ba9DJrQjOmFwMHx3FsSy6VpkbQ4yMqpS2hQAUJiTpeG9+RU/mc3XlUPqe8d+Hz1Zrqe2Lzzl6Or0c6m+lMIbVPLGf2F1BrapZ61H0+qSjiUfjYy6pR/X4c7iQ03Y87JoTPa6CMe14fDncbHJTSb8pM2nz+Ihtb4devxb/s+Vecro7rYDQa6zE1S9w4xUU8X15n/lWH1OSXjcLeG8pU/bzo8Ylouq/efyB25Gx+GPUe76ytwuuru2sXpEEtHammEwQ7NMuLVNfwH/PPj2Tg1DXMp/5Ip1W/4vVNn5I3aDpz/81F+d73efe4j7LqVRzLmcq8/3BSfXA1S/f6MM0oemQNgP1vccwPmmZSfiCPqlE5zPu/OpX7V/DesQDnilZw8LFHmfcfLqoPrWbZXh/XkvPHDRhIXMFHnAvVnbFi+xpKpj7LrKEQKlnH8sMB9N4PMuW+/iS3bw+z/onEVc+zNm482d0SKbl3Ho/fXUn+hy+x6dhBePRZHsvW4dwXLCs1qNr2BUVT5/L4UAdmyXpWHAlQdcLaVnZoPi+vr/s0zu2z7rjaslw1NM2kbL1Vi4BCW1U/V4bVLhuPX2tv91se3/7DVNw/AjSoPJCH/uA8pvcrIhhncEzRr7WWSK0R0fbq0xI2qPl6I+XTn+WJIeA/sowltQA6yYMfY8bN4M9/nyU14BqsyA2KvBKID4tpxXWFo6vH9xgZt4e/1z+Mq2LaJuVerOi9H7DmLkW/SHGzYX5UpfVI8VrVz5JbbeY909Tp0C2RmiOVGIQ4U+QkvacLSv1N7u9CZ2tKq4SVf2K/at1AmM094AvP84cDhNtS0zRrPaDod/4g4WdTnWMzOgmZk5nRww+hYnKXvMp2ha9FWkNoPYTXoqp7pbrPXxoTLG2f5wdxdBzK6Lvbwa5c9nohsO9Ljg6aRs4zOmbRZywtbvpBVeVzGxTzqGrkz/ODtnzOsi9V3Vzvw+Go9LC7rmrsZxE0cnQfx30Tb2LDb+ezt1ZRj9b3U8Wj8LHKexx9v/IcFq0ObuBI9qM8MU8jeHxFxLgfKNjEwbFTeeIn4C/6gg/Otc6XEuJfNv2r1FA+m1rHWuOGrmErR8P151/nkZr88lDa2wl6h9E89GwGQQyKNr7Ciq83cGT0VGbOM/Ae+4il1Qbe3E2UTpvDEwMNgiXrWHE8BL2tdcsuRS3dil1KuMJEisUXQhswYIAZHR2Nz6f6kdNri/j4eKqrq6/2Nq55RMfmQXRsHkTHlkO0vfqIDQSh9SH3suUQbYWWRPxLaEnEv5oH0fHKIno3D+E6ys8dC4IgCIIgCIIgCIIgCIIgNIG8SBUEQRAEQRAEQRAEQRAEQWgCeZEqCIIgCIIgCIIgCIIgCILQBPIiVRAEQRAEQRAEQRAEQRAEoQnkRaogCIIgCIIgCIIgCIIgCEITyItUQRAEQRAEQRAEQRAEQRCEJpAXqYIgCIIgCIIgCIIgCIIgCE0gL1IFQRAEQRAEQRAEQRAEQRCaQF6kCoIgCIIgCIIgCIIgCIIgNIG8SBUEQRAEQRAEQRAEQRAEQWgCeZEqCIIgCIIgCIIgCIIgCILQBPIiVRAEQRAEQRAEQRAEQRAEoQmcLTGpaep0Gv9/mHlbZ7S6Fs6t/S3Lzek83qCteN1vefmzWG5/YgbDOjmoyFvKe4s3UBabxV1PTGNwZxeVue/z3tvrqBj8DP84eTAxuoYZ/IZV//G/bPNoLbH9Zsd09mLMtEncnKATOL6SpR/spMrVl1unPkhqtIZR9BnLlm6n0pFG9rRJ9EvQCZ35gg+WbKLc1DDNKNIe+QcG5j/Psr21dXOGtZlRfRk39UFSYzVCp1bXraGYr8x1s6VftXlt6NjcqO1i1afKkWrp50l7kCn39SNKc5OcVMCK514lP3hj6qjCmTWbn95byuLfLSXxR7NJXv0CG0vNS+53LWNqSfS9/2kmDAuw4bnv4pbpTOOeOfdRvGA+u6pMokb9hLnj3JTXGDgTUvCu/SVvbO1gucOVNn3PjOpjiTFV19ldt6stWGOmSu83N1ZbxprOVGscVcQEVRy9FBuozhRxr7bygHWv3vTHePqB7niqAmCUs/+DV9iWON3StvmEgZ42hdk5bdn06xfYXaveuzPjCZ6+vwu1NRqcXs17722JmM/C59P7TOPpial4K/0QKiZ3yatsK1LHAFvnVcVwRb5V2UFla8/In1q0f8eYaWl7u3Iyc8anUOUx8eW/z99XfoNfs66hsqVyvrKHlfaw+KfCX9S6qDUIt4fKlj6FBqr9bTrTw9a9EFoelV/ofaby1I9S8VUFMKv38tmbKygabrXtorN3WXLMoZ4tl3fs+mslyVZfV9zZcpuxWOXXb26stjW2pvc0i5YnVHrYvJ9284dKAxV67wcs9jqg24uDzqxZTO6wgkWflJA5Yy7u5S9QOPgp7h6QQtt2LqqKyzj25Z9Yvb8T2dMfpX+8QaBoLR++u5GyVnjfxb8uwr9sPiPajS+qPV9v/gVY8ujl6HOjYjp7Wexd6hzJQ4+3Z91fllNSb3vTlcqY6VPo5zbwFa5k2Ye7qHKkMWbaRPrGawQLP2LJ8j34ek+31Ja7UmbaqtOEG5NIz5QXokVepNZvh/Itf+TPSysZO++ntD99DqNj47YOp88SM/hJBoU+4aX/Kua2nz7IkK6b2dLzLvpXLWP+r4rJ/vFUhvbYzBeAP28hf3hrK0EjhBkCrhHfd/UbR+/SJSxYWMywmTMYkLCbHb1vp9epRbyxqoLMGTPJareTHan3knbqDRZ8WklGzlxG9NjGJ0eD6MnZDO9wgLVLPZw/dHhbdNad9DixkIWfeRj2xEyyknezs491vjXtrf2utxdXdlHZZdfNVn22drb223poGW/9KYYe459mRPnHHApwzfjjlSFEjbMTvVM0ipql37WLa8B9DA6uYUfhyG/bTFPDnXU3qec2sabSAE3DqD7DgVXL+WiXzuDH55BU4CFuqCIm2PQ9V4Y1xmw4d33ddbvagjVmqvRWjVXZ4It4RUyotGp7KTZQnUm1V9WZVHlAFb92YFK2cyGLVx7DqNfH2d/aZpoa8d2SKD+p0ambi935wQi7Nijb8Rpvf1LD8FmPk9HmK3bfbNVtdUFIMZ9B1d7F/O2DA9+uGwk7592WptCgpz07KG2t0N64SWGPmwzKdi1g0SdBRj/1MAPc37DLo1DK7nxJanuE+6fKX5R+oNBgfRFKe4TbcpvK/xT7c2XYuxdCy6PyCzAo3fkmS1YW1NtMw6nyx1PWHGO0YN6x669bUqxnUubIo9Y4pdrXlghx1c7YTQot7dpBdV5VHa7cs0IDFSp7uYZeWk2gaSFOfjGf19ff0uilhqtPNn0q3mfBa0e5efLjpLffzKYIfwS7moh/2fevr3raHGszvtjhWvcvVZ3UnPrcKLh6We29sUzRr88YUovf4fXXixg2cwbp8XvY1XUMqcXvsnBhGZkP300P1x7yFbWlM8VenSbcmKjv7YVpka/2a5rB2U9+wyvL90PnW+iXeIhv8qosbXn7agjV+ghpDpwOHd304vWaxLlj8ZacxuM7TnFVDHHx52c2MAIBDMPEvIb+gmB4PISi4nA63MToXjwBA2dsNL7KEgy8VFUaRMU4SEyOpfJ0ESGjhrNnvUS7wTSddB4zHGPHGs6G6uZTtfm3/Zk3Pz2DgQ6mSSioKecL72cYV0+Xq43KLip9VP0AHH0fZnz/SvL2Fzf5AuDGw6TypI92/VK+LRXMmHRum/kvPDb3X3l88miSNVPZ73ojsH8JSz7Ow9uw/nN0ZUR2Bwq27CVQ7zvBve/w8W4PuAfRJ/YgeadN5R0Ge74XHmOiY68/he1qq4qZ4Xp/cyZkGWuautIGkWJCOJdiA9WZVHu1kwcuFL/s4aJbxxCHdlQS360dmtnUQ0wMLqOaai8RfPdi5/sOu+dVtdmxQyRbq7RX+s55jFIqaqJwu9Xl1UXP1xCFb6v8xb4GF7JHnS1rfIbt/V2erwnNiTI2Apre2Pcj2VaVY1oq79j11/AzRbqzdvdl168jnSlcSxV27yeAnjqJ2f82h4GxZsR1I9k1fCxY7dXsNUFMFKGaSkJ42PfO/Fb5kgvEvy7Gv+yOtRtfLotrxL9UefSK6HO9YdfeMTGYNVWYRi0er4PoGDCqq9G7DKRHm2r2LHmX/f4mdG6iThNuTCLd2wvRYh5kBv34/Rodhwwk9shX5Neq23wHNnM46YfM+eVTpJVsZV9RfdR2j2bSvIfoqIGGBqZJVL8cfv7r53n2iXvo6GytAdVKqHALBe0nM/tnz5JevJmD5//6ET2c+x+/l2S97uVzZUktyT2749KT6Z5Sw4nCELiHcUvPQrbtimbwgz+gu9NUt9UT22c8GcYu8qpC6vnC+u2ruHEfdCLahcb6ROpnnvuKDVsDDJ/6UCMbCHUYZ/LxdsrgfJ7SY3VK1r3Mwvkvkpc4nD7xurLf9YYWDBIKu2autNvIbOegw23P8Mj3B5Ggfec/cRmZxBXsoNiIEBO4CN9rEGOuR2xre4GYeV7vcyHr2ERdHUcvFDssXKQNVGdS7dVOHogcvzSSBucwfe7PmfH0Q6Q5TXWbqzudXEUU5h8llJKKK+KudZKzppMz71n6l27mQG0E31XOpxOfMYmcuT9nRs49dNQj+LPN80Zsa8IOEXOwSvsLtNml6fms9lD59oX8pUkNItijoS33N/DtpvZ3UfdCaFGUfhHwEn3zZHLm/YIpEwYRr8g75/1RlWNaOu805a/hZ2rqztrdl617HD72Alo25GLuZ6hwLauXrOKQN/K6keZTjVXa6zqvCS6E+FfT/mV37MXGl+saRR4Vfa4socKVfJ7Xlluf+neenDiKJM3Edm0pCPVcKJ5GogW/2g+40shMj6Xgo9xvPz3RsM2Pg47jfkCPY3/l9/9bwog5cxmXsYFNAJ6vWL6ghPQpA+mCSXDXS/x2F2ixmYz/yWSG9PyCjw9F+pph68E0NRKGTyD18IvM/7SK/tNmMapbLpsBfNtZ+VaIbhOeJtkEz64P2fPgw0x8KomEsg94rcIgcdwI4vYt5lgohp4d2lENJA5t3Hb+Jxy0pFF8/75Edr21jkpTwwyb7/X6rwKG97sRiWSXL08YjfSpMHQSRqr7meUH+XrdMRxpc+kar1NYLkG6IVrwEEf936efG04DaG46Z08jfXSI+HYuvnFE6HedY5oabdM6Uf7lfBatqSF98jOM7pXL6iNBTDOevunxHPvsJIamWWLC+Tts2/fCYsz1jkrbUT1z2dxVHTMb6h1Cp53CLqsUcTkhWx0TlDSTDcL3aicPRIpf6zGp/HoRf1tx5Luv+Cra9MRepHROp/3EAG0STtPFtZEjRndGTnmEmxN0jBOfsnj5bsCgbM+bvP1JDZnTZjCy4z7WKnxXb2Od7xgG1bnvNPj6lYapN17jbx/uxm0z76naYhR2CF9j8fLdke9b2L0Mt4ehacq/SqvWCNqer7E9TFMnJULcUGFHAz3Oao/jCluuO2va2l/C6Iu4F8IVxzi6lDd+D6Z2E6OezGFg8h42lVptCyhzTEvmHTv+qkJ1Z01HD0WMUs8XfnbVnVWNjaSlXZRxK3iGgjxo9JVfm1qqxobbq+gi5rveEP+y71+2x4ZxuXu+VlHl0QJFWr5R9bkSaFotJ9a/xoINSQzOmcngzltZq6gtW/all3Aj0qI+5eo1gt7OfazK93M++DZuc+GKcqGZJqZpYJoOnFEanppaYtI6ogWdtEv0UlMJyaOfZEKH7Sz9JASYXEuhxxkTRdDjIWR4qfU6iYnVCXp8RKW0JRSoICFRx+s10YIn2fnuX6h+eAYdt+zFr+nEE8Q98DFy0l0kJp7hFOAMazsDmM5ujH5kLNWrXmB3fWC2zqcp+92oqOxiOruE6aNZ+kXH6MRnP8MP9EUs3uAkLjqA128gv3cTjo/DBSHG3RPNKROSh91K0v75LN7q5JZZs3Ao+t0IL1IBPDU1+EK1YPjxB0wc58VwZ9E37iDrTtf9CHT4Hfahk5A9V+l7ZkwvBg6O49iWXCpNTRljbgRU2qpiJhCmt64cq4rLbkXsAKNlbRC2V3t5wBq/6vZqD0fPbgS2vsx7X1bRb8pTdE7UKSgtZOui37H1fCetQXFq1OCpddEp3oF21pp/nIr5jinW1YzGa5ia3fOq25T51rCeQ5UzrdpfoA1Ab0sbt5+aGkO5xkXP14CIcSMMuxqo7HtcYUvOBm3tT+1r8iK1tRCVOYk7XStZtcOHz6/hVuQd09RJGNM4x9T6DOKzf9xieceuv6pQ3VnlvYs0X3jOtTk2opY2iFSHm84UUvvEcmZ/AbUXqWXDsR7DakOv37A/n9+Pw52Epvtxx4TweSPUt14fDncbHJTSb8pM2nz+Ihtb4devxb/OtzftX3bHqrC95+vMv9R1knWfl2PTGwKFvTcofiMVrxc9PhFN99X7D8SOnM0Po97jnbVVeH2Ra6NvaVCnybO7cDk4OnTo8Cun00kodAnfTbsApuki9Y6J9D63is9zz9V/YqFxm6mZVJ3zkZI9iQkTxpB05lM+/Ww/pWc9JIz8ET+cMIKYwx/x2cYCyj2x9LpjChPGDyX22Kd8vu4gNUZj54+KisLv9zfrOS4XTQNfiZdOd03njjFj6ObfxJp1R6gqqaLN6EncNmokHcvXsnbHCfxouHrcz/d6H+LzTYUEAW/hNnZs3cjuHceIS+9Jze7dnCjY3qitevduKjIeZeIt7XF1Hsyg4QNxn9nB8Uqz0XwBNFwD1f0a0hp1bG4i2cWfadXn0JFaS7+KsiBd757GraOH0aZwNevyzhKk9fvjlULvOIQBcfns2eOk77ielG3ZyJGqJDLuup9B/XrQJiGKij1bOZVk7Xe8tvFc17qOeu8HmDp1Ar07daFr+gASy7ex/5tKOtyRwx1jxtLdv5k164/gMTXiBk1gkG8dm/Mrvv0d6PCYECgPKH3P0fUuHngonaqt2ykKaoRKK5UxpiE3irYlx6wxs9horDca+IqqlXYJt4EqdnjM5rFB+JkSyrZRUGJY9hqeGyLlAVX88rYbREZyIXvzy771M719VqM209TpNPxWbjqxngPnQoRSRpERs5NvTltrBb3DEMaOG0v/IWNJYwdr19fl54a6+U2Hcr79/gxG3zGWjEGjGTysH65juzhV03h+7SLOe7rnFEvb0YKKJu1wnvCcCSjvZXibnjKUsbeOIX3IEBKOrGRt3jlCEX5H0tZ8YfbQIvinN+1Bi78c7zK5SQ3WbDtF2+HjLPY4EMpS2tLW/iLci2uR6y02JpRt4/BJF73ve5Qxo0fRsXI967cV4sUaB1U5pjZCzdMcMU9Vl6rubLC31dcLSgzlnQ0n0r5Ud9HOWG9ttFJLO3ZQ3c/jlSaOnuOZ/OhAqrdui6hlJA0aj1Xb0BfhucNy3vIqEkdP4u6xI2h75jPW7z1d18/RlfTBbo7tzKcWjVBlNe5bJnHvraNJqdnEhq/UGlxpxL8u3b+MCM+I4WMvJr5Yznud+VfHYYo86v7BJetzoxCuo8retXpXBtx7N0OyRpB1y2i6BPexP+8cidmPcs/Y4bQ5Xec/teUBOt85jdtGjaJz7SbWbTqKt+0gS215Jt5+nXa9ca3XNFeCSM9fDQnXURswYIAZHR2Nz+e70vttduLj46murr7a27jmER2bB9GxeRAdWw7R9uojNhCE1ofcy5ZDtBVaEvEvoSUR/2oeRMcri+jdPITreAP+3LggCIIgCIIgCIIgCIIgCMLFIS9SBUEQBEEQBEEQBEEQBEEQmkBepAqCIAiCIAiCIAiCIAiCIDSBvEgVBEEQBEEQBEEQBEEQBEFoAnmRKgiCIAiCIAiCIAiCIAiC0ATyIlUQBEEQBEEQBEEQBEEQBKEJ5EWqIAiCIAiCIAiCIAiCIAhCE8iLVEEQBEEQBEEQBEEQBEEQhCaQF6mCIAiCIAiCIAiCIAiCIAhNIC9SBUEQBEEQBEEQBEEQBEEQmkBepAqCIAiCIAiCIAiCIAiCIDSBvEgVBEEQBEEQBEEQBEEQBEFoAmdzTGLq7cl4aA7jh0ez95X/y8rDQbS4gdz1xDQGd3ZRmfs+7729jtLYgdz5xHSGdXFRtudd3nl7CzHjf8nM2zqj1c1E8brf8sryI4T0RAbm/JLs8lf467KDMGwu/zhxIFEaYB7h8+f+m83lZnNsv8Uxnb0YM20SNyfoBI6vZOkHO/H0nsZTP0rFVxXArN7LZ2+u4FTPB5lyXz+iNDfJSQWseO5VDoSS6Xv/00wYFmDDc//LNk+9Us407plzH8UL5rOrykTvM9Uy33HSyJ42iX4JOqEzX/DBkk2Um5pl7I2MaUaR9sg/MDD/eZbtrVXqeCKoWfqZUX0ZN/VBUmM1QqdWs/SDnVSb2tU+TqvBmTWbn95byuLfLSXxR7NJXv0CG0utvma3n/Adou3VpyVtoPeZxtMTU/FW+iFUTO6SV/mqvI8l3vhH/pS549yU1xg4E1Lwrv0lb1dOZs74FKo8Jr789/n7ym8wBj5pafO5Ui05qQprrnFmPMHT93ehtkaD06t5770tVCninLP/DJ5+oDueqgAY5ez/4BU2nzAsuUaVC73pjynHqgiPwwB62hRm57Rl069fYHethunsRfb0R+kfbxAoWsuH726kzNQs/ZTzO1MtObPMdbNFe2+GVdNgX2tOPxG0p9Wmot6WNVQ1wpl0tS3Dz1uq2LOy5ug13eprpT0tNqo2FTlQoXOVQhe/JnmxtRA16ieWmPHmxmqrbbUkSyxQtakwo/pw69QHSY3WMIo+Y9nS7cqY0XiMtZ6qcvW1zFOpiFGqO1uuWE+1L58ihr65sdoyVu/9gO3a3LKuSkubGil1cajreuXaNuvbcJxZs5jcYQWLPikhc8Zc3MtfoHDwU9w9IIW27VxUFZdx7Ms/sXp/J2WsbW2IfzW/fymfOXWrpsp64TrzL6nJmwdVTVHqHMlDj7dn3V+WU1Jve9OVypjpU+jnNvAVrmTZh7uocqQxZtpE+sZrBAs/YsnyPfh6W+ubXSkzpUYRImK3zmlIs7xIjRo2ibu6FHO6vHPdRkyN+KF30b9qGfN/VUz2j6cypNtmtvf+Hpm+lbzyGx93zruXod22sQ+T8i1/5M9LKxk776d0OH0WQ9NwdL2b0T2Os3XpYYKaBjvm85vtsaTe/1Puif+S3AoDuDac39VvHL1Ll7BgYTHDZs5gQMJutmFQuvNNlqwswNA0QINDy3jrTzH0GP80I8o/5lAAXJn3MTi4hh2FI7+dzzQ13Fl3k3puE2sqDdA0UMwXd8u9pJ16gwWfVpKRM5cRPbaxuiCkGHvjoidnM7zDAdYu9VDnTwq7KPpFZ91JjxMLWfiZh2FPzCQrebckxEaEqHF2oneKRlGz9BO+Q7S9+rSkDQyq9i7mbx8cqI9BED3cGm+2Vp/hwKrlfLRLZ/Djc0gq8MBNBmW7FrDokyCjn3qYAe5v2IuiLdWak3Z0t+YaMCjb8Rpvf1LD8FmPk9Hmqwh/wDQp27mQxSuPfbtnVZ5S5cIdirGRCI/DpqkR3y2J8pManbq52J0fxNUrmz4V77PgtaPcPPlx0ttvZuNZLP1UxA215sw17RXaKzTdEyF32NFKZd/NivmcKlt2sZ53ew978+kKX3NlWG20tdK0aK/S+SvF/nZ5LmhS4QpiqGIG1nvlGmCNBao2Fa6M2+l1ahFvrKogc8ZMstrtZMO5C9dGqnpqa0/rPFtSrHtQ3dlPjlrvt2pfWyLoYdHNZm2u1EOlpU2NVLrs7GPvvGC/vm0KTQtx8ov5vL7+lkYvNVx9rDFgU1Hrq4PFv1rCv6y+5Bpy8Xcfrn3/kpq8eVDWbmWKfn3GkFr8Dq+/XsSwmTNIj9/Drq5jSC1+l4ULy8h8+G56uPaQr6hvnClSowiRsVvnNKRZvtofOrqCt19ZySnfd1efzvwAACAASURBVAEuzh2Lt+Q0Ht9xiqticCdCxea/8NdF6ymprqA2oOFwwtlPfsMry/dD51vol3iIvH01mFoSGXeORNu9kr0V330yJTZrKg8MMziw5Ruq1R9YaZUYHg+hqDicDjcxuhdPoG7zmm4tYhx9H2Z8/0ry9hdjaBqB/UtY8nEe3oa5w9GVEdkdKNiyl0CDB8+G85mmTmJyLJWniwgZNZw96yXaHXnsjYhpOuk8ZjjGjjWcDX3XHm4XVT//tj/z5qdnMNDBNDGuIX+8MphUnvTRrl/Kt6W6GZPObTP/hcfm/iuPTx5NsmYq+wlNIdpefa6sDVTxJrj3HT7e7QH3IPrEHuSbMw2CmFFKRU0UbreubFPlJGWu+ZYYXEY1Nb6LCHSKXBMpF9pBHa9ddOsY4tCOSuK7tUMzTYiJIlRTSQgP+96ZX//gpehnmV+dMy8Y68N0VuV0O0RaI+J8DddVnPei52s4tcJGSu2VOqt1EVoHqpihsq0qFlw4PnyHMzYaX2UJBl6qKg2iY5v2OZW/quYJ30PEOtfmvi4YQ8OwVZsrUPWLpJGeOonZ/zaHgbGmUpdQUIt43vCxduvby+JCMaAVIf7V/P4FVl+6lLt/Qa4R/5KavJmwa++YGMyaKkyjFo/XQXQMGNXV6F0G0qNNNXuWvMt+fxMKS40iKLAbdxvSLB5kFB3lrE/xD+7RTJr3EB010NAwasuorIGOY79PH38ueScCmEE/fr9GxyEDiT3yFfm14Oh2F6O6F7JlfRRjnswhI77+Iaz6MPvyDLJyHiMr8dpx/lDhFgraT2b2z54lvXgzBz1AwEv0zZPJmfcLpkwYRLxWX/yc+4oNWwMMn/oQ3Z0mWjBIKOxZ05V2G5ntHHS47Rke+f4gEjTTMl+CHqKypJbknt1x6cl0T6nhRGFIPfZGxT2MW3oWsm1XNIMf/AHdnVYd4zVT3a+e2D7jyTB2sa9C3qSGY5zJx9spg/N5So/VKVn3Mgvnv0he4nD6xOvKfkLTiLZXn5azgU58xiRy5v6cGTn30FG/cLyJy8gkrmAH5yI/o1lQ5SRVrgGd5Kzp5Mx7lv6lm9kf8S/3GkmDc5g+9+fMePoh0pymMtcoc6FirBJVHHZ1p5OriML8o4RSUnFF2p6NfppmKHPmeZqM9RFyuh2tlGvYni8yTc9n9TWljS6QA4Vrj0YxQ2FbVSxQx4cIRA/n/sfvJfki847ljoXNE76Hpu6s3X3ZiaF2anMVEfsp9hIqXMvqJas45G3c9bwueVXqul451m59ewMh/tWM/hXJly7x7l/rSE1+dQkVruTzvLbc+tS/8+TEUSRFqG8E4UJcVJ1TT7N8tT8inq9YvqCE9CkD6YKJaWrE9Z/Cg2M1tr++7Lvf5nGlkZkeS8FHufhx0X3IQJy5b5NbHcf9nTvhq9+l/8iXrD56mMBPnqZLRwe7q9RfZ2lNmKZGwvAJpB5+kfmfVtF/2ixGdcvly6NLeeP3YGo3MerJHAYm72FTqYlZfpCv1x3DkTaXrvE6hWFfozRNjbZpnSj/cj6L1tSQPvkZRvfKZfUR63wbd33IngcfZuJTSSSUfcBrFQZts1VjW7+OzY1paiQOHUHcvsUcC8XQs0M7PBoYYXbJTNpDboa1H4CWNIrv35fIrrfWUdkKf7fnaqMFD3HU/336ueE0gOamc/Y00keHiG/n4htHhH5Ck4i2V5+Ws4FBde47Db6OVBdbVPHGNOPpmx7Psc9OYmiarb+MmgbqnKT8XVKDsj1v8vYnNWROm8HIjvtYe64bI6c8ws0JOsaJT1m8fDdgUvn1Iv624giGpmGaOilheWpUz1w2dbSuuz5sLGiYevdGa/ztw924FfFaj+1FSud02k8M0CbhNF1cGzmuOIUeZ+13xOhuOYcnLGe+Xv+TBOHaqwqn8NwxMHkPG8ub1iqifRXzfWXDvuexM9+WMF8zTZ2EWxrbaGTXXHakqnOgcO3RMGaE0JV10GXj287Kt0J0m/A0yTafXcP9NcbmPKo7azp6KO6der7wGBoeexYv301Q05qszZtDIy14hoI8aPiV+3BdzEgxqsFYu/Xt+eeOGwHxr+bzL1D70k6bml6PSE1+ddG0Wk6sf40FG5IYnDOTwZ23slZRS7fsSy/hRqRZ/iZiahoOvf4hTtcBA09NLTE3dUQLptAu0YunGhwpt/PAw/0oWv4qm0+G0Or/guXqNYLezn3k5vsBcGgOkkbM4+f/3yz6u8E0NFLu/QU/njaKRHdHkuP8+LzXzicAnTFRBD0eQoaXWq+TmFidqMxJfG9IIrrhw+fX0DSIz36WKWOT0fU2xEUH8PrVZ/TU1ODz1YLhxx8wcTiwzKc7QAueZOe7f2HbuSLyNuzFr+nKsTcqToK4Bz5GzuzpZLatE8Kio67uZzq7MeqRsVSvWsjuG6QQvXh8HC4IkdJZxzQheeitJO1/lXfeeIvcc4ayn2AX0fbqc+VsEDHeuLPoG3eQb06HfdRFb0sbt5+aGsPa5jGUOemCGDV4al3ExjvQjEK2Lvodb7z0P7y1Yk/db5grUOUau+uGrxHSdGUcdvTsRmDryyz+6x9ZeyaJzok6eH043G1wEEfGlGfJ7qAp+6nOYc2Z2oVjfQOdlTnYplaqNVTzKe2rOO9Fz9cAlY1U2qvWVe5PaF2ExQylbS8CM6YXmaMGkFhfzwc9PqLatCUUiCIhUcdr4ztyKn+1O4/qzqruXcT5wvQIHxtAt12b2yXSXkxnCr3SexJ7/htqCl1U51WNtVXfRjK334/DnYSmJ+COCUV+3rpQDGhFiH81v3+pfMn23b/O/KsOqckvG7v29nrR4xPRdHe9/0DsyNlMvvUmdMOD12fj3YbUKEIz0Swv513Df8w/P5KBU9cwn/ojnVb9itc3fUreoOnM/TcX5Xvf552CAPF3jiC1TXscU3/NgCke9i/+Ge/ugB5ZA2D/Wxzzg6YFObr0X/nPpWC6hvLwL+5E002Ktq2h8LGJ/PhfoXTPEr48EeJa+M+mNM2kYvsaSqY+y6yhECpZx/LDAQLxB+HRZ3ksW4dzX7Cs1KDm642UT3+WJ4aA/8gyltSe/98c+5Pcvj3M+icSVz3PZ9u+oGjqXB4f6sAsWc8K1XzFdf8Zl6vH9xgZt4e/nw6haRpVirHXgo7NjaaZlK2fz8vrwdS7c/usOwAIHLPaRdXPlTGe7G6JlNw7j8fvriT/w5fYeFwCcji+/YepuH8EaFB5IA/9wXlM71dEMM7gmKKfvJK2j2h79WkZG+gkZE5mRo8G/9NoZ3W8iRswkLiCj+q+MqjVjU0e/BgzbgZ//vssqVG0eSCgyEl67wctuWYtOm0HP8aMvjquqi18eMxevtA005prjgSoOGtdl35NK6KK14ap06FbIjVHKjEIcabISXpPF4GvN3Fw7FSe+An4i75g2VnoMNzaj1K/cq2GORM0ZazfqtDZkjuK7f+HmKo1Nqnm66hYt6DxeT84Z+DKsjlfktXXtof7xpEAZYcUuVKxLikK/7vxyotWTcOYEakOUtWdXxoTLG2f5wdxdBzK6Lvbwa5c9nohsO9Ljg6aRs4zOmbRZyy1cQ9U/r9BMY8qRn2eH7TcWRWR9mWNoY3RNNN2bf654j+xU9bwEfbi6D6O+ybexIbfzmdvbeQ6U3XexmNt1rcRbBM4uIEj2Y/yxDyN4PEVLKlV200ZA1rhhRf/am7/UvtSoMLe3b/e/Os8UpNfHkp7O0HvMJqHns0giEHRxldY8fUGjoyeysx5Bt5jH7G02sCbu4nSaXN4YqBBsGQdK46HoLeillbVyK3XpYQrjN242xBtwIABZnR0ND6f6kdOry3i4+Oprq6+2tu45hEdmwfRsXkQHVsO0fbqIzYQhNaH3MuWQ7QVWhLxL6ElEf9qHkTHK4vo3TyE6yifLRcEQRAEQRAEQRAEQRAEQWgCeZEqCIIgCIIgCIIgCIIgCILQBPIiVRAEQRAEQRAEQRAEQRAEoQnkRaogCIIgCIIgCIIgCIIgCEITyItUQRAEQRAEQRAEQRAEQRCEJpAXqYIgCIIgCIIgCIIgCIIgCE0gL1IFQRAEQRAEQRAEQRAEQRCaQF6kCoIgCIIgCIIgCIIgCIIgNIG8SBUEQRAEQRAEQRAEQRAEQWgCeZEqCIIgCIIgCIIgCIIgCILQBPIiVRAEQRAEQRAEQRAEQRAEoQnkRaogCIIgCIIgCIIgCIIgCEITOFtqYjO2P3c+PoNhnRxU5C3lvcUbKIvN4PbHchjWxUXlNx/w97+toTgmi7uemMbgzi4qc9/nvbfXURwzwDK2cshc/nHiQKI0wDzC58/9N5vLzZba/iVjakn0vf9pJgwLsOG5/2WbR6trN6NIe+QfGJj/PMv21qL3mcpTP0rFVxXArN7LZ2+u4ERQw3Smcc+c+yheMJ9dVSZmVB9unfogqdEaRtFnLFu6nSpTs87X+wGm3NePKM1NclIBK557lQOkkT1tEv0SdEJnvuCDJZuo7D1Nue6NiOlMtehT5upr0bvSkcqYaZO4OUEncHwlSz/YSbXCBsJ3OLNm89N7S1n8u6Uk/mg2yatfYGOp9b7a7Xcto4oJprOXxaeqHNb7WkaydWyEGGNZN0LsEC6flvRvZ/8ZPP1AdzxVATDK2f/BK2w604Ps6Y/SP94gULSWD9/dSJmpoadNYXZOWzb9+gV219bnmrAcEjXqJ8wd56a8xsCZkIJ37S95u2IiT9/fhdoaDU6v5r33tlCpjH1WnyxX+JBqjTe2trfsuUKRf071sp+TwmOuM3MWc8anUOUx8eW/z99XfoMvWnEO182Mm/ogqbEaoVOrv43hKsI1VZ5tW2fLfFUK/SLdN6Xdws5mRvVVrGE9hypulJvWWkK5hrOXxUY1I39qOe+bG6ste44UX1RnE648qjyh8uVFZ++y1o66ws9s+vel5B21r9u7x7b3pcrDNveq6ldjs5a2m/9V8Uili8fmuqpnjOO6Pa2cWbOY3GEFiz4pIXPGXNzLX6Bw8FPcPSCFtu1cVBWXcezLP7F6fydlXmptiH/Z969I+cTOnisV9aqK682/nBlPWOop1XO6cGFU9UipcyQPPd6edX9ZTkm97U1XKmOmT6Gf28BXuJJlH+6iypHGmGkT6RuvESz8iCXL9+DrPZ2nJ6birfRDqJjcJa+yK2WmpWb0a63Pp4Srg93n64a02CdS4wbdzaDQJ7z0X29yuufdDOnqoO2oH5Dl/ZiX/vNVjnceT3Z6FO6hd9G/ahnzf/VnCjrdxdAeLsvYod0cBHfM5zf//A8sWn+Mc7u/JLfCaKmtXxauAfcxOLiGHYWhRu16cjbDOxxgyz5PfYtB6c43Wfj8cyx4/aO6l6imhjvrblLPbSK3su58rozb6XVqEW/8+UX2xI8hq52unM84tIy3/vQHPj9cTOHnH3MoAHFD7yXt1BsseOF5dsWNY0QPl3LdGxWVPiq9Xf3G0bt0CQtemM+BdrcyIEFtA6EhIWqcneid0pR/2e137aKKCSqfUvqjamyEGGNZN0LsEJqDlvRvk7KdC1n4/HO8/uJLbD5h4OqVTZ+K91nw/B/YziDS2+uYpkZ8tyTKT2p06uaqG6nIIUb1GQ6s+gOvPf8C206d4niBBzAo2/Earz//PLltRpPRRlf6izqHWFGtodqzOv/Yz0mqPFq2awEL//QqhT3uYIBb7ffRWXfS48RCFv55Pvtvuo2sZPVdUGmqOptqPrv3TbWG6myqNVRtKhup/EC1hspGqvOq9qw6b6SzCVceVZ5Q2VZVO16Of19K3rG73mXtS5VLL+tM9uKW3fxvVxf78dLa71JrAk0LcfKL+bz+0scUnNzE+y/8lk9yvRFifOtD/Mu+f9nN+cpnJZu1aTjXun+p6imQZ8SLxa69XX3GkFr8Dq+/8CL57ceSHq/Xt73Lwhdf4uuoftS5rUHV3sV1tfT8v7KtyERVMwrCeS4lhrVYVArV+ghpDpwOHd304vXqJLVNpOL4Aapq8jle5CQ2wUmcOxZvyWk8vuMUV8UQF68aW/dpitisqTwwzODAlm+obp3vUQnsX8KSj/PwNvjQkWk66TxmOMaONZxtYBtND0uMjq6MyO5AwZa9BOr/QuKMjcZXWYKBl6pKg+hYLeJ8jr4PM75/JXn7iwnhIDE5lsrTRYSMGs6e9RLtjrDuDYhp6kp9VHobHg+hqDicDjcxuhdPwIhoA+E8JpUnfbTrl8J5bzNj0rlt5r/w2Nx/5fHJo0nWTGW/6w1VTAj3qRo/Sn9UjVW1qVD5stBcXGH/jokiVFNJCA/73pnPpiITcNGtY4hDOyqJ79YOzTSVOSS49x0+3u0B9yD6xB7kmzMNA1YMLqOaGp9h8ZeomMg5JBzlGso9q/OPnZx0wZhrlFJRE4XbrSv93r/tz7z56RkMdDBNjIj1g1VT1dlU89m/b9Y1VGdTrRHeFgpqahsp/ECpn8JGan+x7ll9XoVPClcFVZ6IFAsa1o6Gpr4vdv37UvKO3fUuZ18qPS73THbilp387wnUBSQ9dRKz/20OA2PNiLpEWjd8rKpfs9cEEWJ8a0P8y55/RcwnirGqPdutTW1zjfjXd3xXT8kz4iVg194xMZg1VZhGLR6vg+gYMKqr0bsMpEebavYseZf9/ibuToOaURDOcykxrMU8yHdgM4eTfsicXz5FWslW9hUFKCutJLFrHxLietO1fSmnj/rqOrtHM2neQ3TUQEOzjj13/pM1h9mXZ5CV8xhZia3T+bVgkFD4Q5p7GLf0LGTbrmgGP/gDujtNCHiJvnkyOfN+wZQJg4jXTFxpt5HZzkGH257hke8PIkGrt2T0cO5//F6+/RCNaj7APPcVG7YGGD71IXq4QlSW1JLcszsuPZnuKTWcKAwp170R0TRDrQ9Y9A4VbqGg/WRm/+xZ0os3c9BDRBsI32GcycfbKYPzeUqP1SlZ9zIL579IXuJw+sTryn7XG6qYEO5Th2rV/qgaq4wxkQiPHUKz0XL+rZE0OIfpc3/OjKcfIi1SbHF1p5OriML8o4RSUnFB5BwCxGVkElewg3MhAJ3krOnkzHuW/qWb2X/+AxMN/OWCMTICjddQoMo/dnPSxcTcCH4f22c8GcYu9kX6RotC0wudzTKfnfumWuMCZ1Pt+XxbXpU6zyv94CJzVqPzRtIl/LwX0E+4slwoT4T7csPa8YK+ZzefXGLesbvepewroh6XeiabcctO/j/oOd++ltVLVnHIe4HzRljXMjbS/m7gmkD868L+FSmfRBwbtueLqk2vKxT1lDwjXlFChSv5PK8ttz717zw5cRRJmgnoxGdMImfuz5mRcw8ddbGBcGEuJYa1SCo1TZ2O435Aj2N/5ff/5zl2xN7HbZlRlG36kD3R32PmL54hs3obu0/XV3Ger1i+YCVFJhgmlrHjBkQB4D/yJavfe4evKzvRpaOjJbbe7JimRuLQEcTt+4JjoWgSO7QjTgPj6FLe+P1zvP7CXyjofDuZSTpt0zpR/uV8Fi18jbw29zC6V/1jiG87K9/6lDIDTAPlfABm+UG+Xvcue6q60DVex7PrQ/bEjGfiU3MZUvsV+yoNy7oDb8Rqqh6VPoBF74ThE0g9/CLzf/Mcm913MbKrI6INhO/Qgoc46u9B96jzDW46Z0/jRzmPMqCdC4cjQr/rHNPULD41qpsjsj9eDg18GakhmpWW82+Tyq8X8eaLv2Hhy+9zOMJX+vS4XqR0Tuf2iSPo0KEXnR1EzCGmGU/f9HiO7T2JodV9nb5sz5u88fz/sDX+TkZ2rM8DYf6i8klT784tU/+RnNk/Y9qELJymGWENK6r8o2oLX0M3zIuLuQq/15JG8f37Etn14ToqTU15jnBNu9SnYNXZwudTrWtnjc6OyDldtUZ4W7iNcisMix+M6um6KP3CzxtJl/DzRuwntBpUvhxeO4I9/47IJeQdu+td6r2zu9eIY8P6XWotHSn/A2jBMxTkFeBp8DuQ4eeNtG742Ij7u0FrAvEve/4VqQ5Vjb1RfclK43rqlhRdnhGvMJpWy4n1r7Hgv3/LttjRDO7sAAyqc9/hjRd/w8I3PuGMIUYQmp8Weoum44py1X9lzcA0HTijNMzaPL54+fdsKCwhf8M6ytDx1NQSc1NHtGAK7RK9eKo0y1iHy0HKvb/gx9NGkejuSHKcH5/32vmzl5Mg7oGPkTN7Oplt6xJaVOYkvjckEd3w4fNr6Dp4amrw+WrB8OMPmDgcEPT4iGrTllAgioREHW+taZnPMCE++1mmjE1G19sQFx3A6zfQgifZ+e5f2HauiLwNe/FrmnXda+N9dIug0kepd0wUQY+HkOGl1uskJlZX2lQIx8fhghApnXVME5KH3krS/ld55423yD1nKPvdKKh8SuWPF4MZ04vMUQNIrP/kgsWXm+37VkIdV9C/vT4c7jY4iCNjyrNkd9Bw9OxGYOvLLP7rH1l7JonObXRlDgHAnUXfuIN8czrso6JGDZ5aF7HxDqW/qHxSMwrZuuh3vPHS//DWij0Ez/tp+BqKPavyj6otfI2Q1kTM1dvSxu2npsZQnsN0dmPUI2OpXrWQ3fX/2ZfqHBZNz3/zJexsqvmU+tlZo436bKo1lOew2EjtB0r9FDZSnVeli+q8EfUTWg8NbGuamrJ2tOvf0Dx5x+56l3PvVNgdq+p3ObW0Kv/X6ZBCr/SexGqR73ukdcPHqvrZto3fj8OdhKYn4I4JRX7eihQ/WhniX/b9K1IdGj72surL68y/vqVBPSXPiJeAXXt7vejxiWi6u95/IHbkbCbfehO64cHra1D7RqJBzSgIl4OjQ4cOv3I6nYRCzfcjHppmUHXOR0r2JCZMGEPSmU/55LP9VIZ0EoZM5/6+h1m9/GtqgEBxDQkjf8QPJ4wg5vBHfLbxCEVhYz/97BvOFofomD2RCd/LRN+/gk83HcMb9qtzUVFR+P3+ZjvHpaD3foCpUyfQu1MXuqYPILF8G3m7trJj60Z27zhGXHpPqnfvpqgmmt73PcqY0aPoWLme9dsLqThbTYc7crhjzFi6+zezZv0RqkqqaDN6EreNGknH8rWs3XmCimPbG81Xs3s3p0uCdL17GreOHkabwtWsyztLEA1Xj/v5Xu9DfL6pkAAahjds3W2FrVLHK0W4PqHSSoveVcU+Ot01nTvGjKGbfxNr1h2hJMwG1bt3U2zcuDqGo3ccwoC4fPbscdJ3XE/KtmzkSFUSGXfdz6B+PWiTEEXFnq2cSrL2Ox72n1te6zqqYsL+fI/Fpzym9b6Gj00o28ax5PstbQUlBo6ud/HAQ+lUbd1OUVDhyztO4L+B73pz0pL+rbfPIiO5kL35ZZj1DzGhymrct0zi3ltHk1KzifVbTpA0fBw3nVjPgXMhQimjyIzdye49FZYc4jE14gZNYJBvHZvzKzA1Db3DEMaOG0v/IWNJYwdr1x+ksrhK6S/hPhmJ8DXC97zhq0I8tdb8o2oLz0maBt7/n707DY/iOhO+/6/qbu0SEgGJfRGLEdrYFyHAG8YxxAHbYUdgm9g4OCST8TVJnrlmnsz7Xs/rODNPkiEGO05sg20SL4x3G9vxxg5mN0IGsQjELkBCe69V7wcJkLpO0wVISIL797E4VXXqPufc9+lSSxRvteTc0g7DGDsul7QhQ4g/vJo1BWfxllqfw8iaxbSRHXF1Gcyg4VnEnt7OsYrGH/xMU6fz8HGNYpoRtYPvTgUsz+ZSXO9IUXnY9aa6R2b0DnZu2Wx5tvIM6z1O9ZqpfI6GY+QHPCXWvYSqZp0ps46Rm8bzxcChjEv+3rJGz/v11pO0D5qTF+PXFrX13KiqHUXnjUZjiwa+Cz7L3pGrmN9NUXfsrifVOraz7kLF4+CBC7bOVT2T20beUt33SvXf0WsSM2ZlUbVlKyV+dZ45eiZCed/gc1V7/ergzxOhnvdCJQk505kwdgTtT3/Ouj2n6to5upE2OJajOwqpRZ3jVTG40WR+Xfv8Cq4nF2t+8LmqPvv7TlXmHMvz3mTzK3g/tXbdAc4dCf8Z8VYXHEfVeNfq3UifOIEh2SPIHplDV/9e9hWcJWHMLO4ZO5x2p+rmT+0FH13umsPto0fTpXYjazcewd1+EDl3jiVjUA6Dhw3AdXQnp+OGWvaMgav80kpb1db3NDdCqH1TQ8Fx1NLT083IyEg8Hs+N7m+Ti4uLo6qqqqW70eZJHJuGxLFpSBybj8S25ckYCNH6yLpsPhJb0ZxkfonmJPOraUgcbyyJd9MIjqP83pUQQgghhBBCCCGEEEKEIS9ShRBCCCGEEEIIIYQQIgx5kSqEEEIIIYQQQgghhBBhyItUIYQQQgghhBBCCCGECENepAohhBBCCCGEEEIIIUQY8iJVCCGEEEIIIYQQQgghwpAXqUIIIYQQQgghhBBCCBGGvEgVQgghhBBCCCGEEEKIMORFqhBCCCGEEEIIIYQQQoQhL1KFEEIIIYQQQgghhBAiDHmRKoQQQgghhBBCCCGEEGHIi1QhhBBCCCGEEEIIIYQIw5GcnPwbp9NJIBBo0gtrMZnc/fhTTJt6H+kdKzi89xj+oYt46uePcsc9kxl390B82zZyQre288RkM+Hxf+ahKfeRmVJDUf5RfIpzj7sb3zMiIgKv19ukz9EUIkb/jMVz7iJt8BiG3/0g6cYGdp/qxpi8hUwYO56snn6OfneMWmcfxbFUcvMWMmHsODK6VHF4/yk8WhL9f/gz5s0ZSWDLRk76NABMZx/uWTSLdt9t47QXzIh+jMtbwB2jcsnq4aZo30k8EbcxPm8Bd+SMJbNrNYf3n8KL1ri/rTSOzcE0I+jz0FOMd+5gX4kfve8UZs2awrCRE7lzYm/Ob9xBWepUy7HKkT+3jOm3xxrH7FaKYzBn9kJ+MS+V4i2FdJu+iP4nt3Ks9tra3cpxVJHYtrzmHAPT2dua81W1IaK/Jb970dD7zOSJn4/H0aYxOAAAIABJREFUt+UbTvvra0NQnlPXpK6K+1rrT3C9ADC1REtNMiP6W2qNkfEoTyyYTOaQ2xnc083BguP4+83h8YVTyByUw6D0dpzLL6TCsN7D7nPs6/aEMjcH10fl9VWxV9RMRqvzf3D/VFQ15pzTeg9j4Hye+PH9ZAzKYfDwDKJP7eBYTS/leASPuWo8nBmPWGPf115tK0jMY9Ej32fgkLGkJZ2l8MBZ/JHWPquudz7EWLZ2N2tuVK0Dy97RmWrJN240W/Nbte8Mt8dU5QqPIr+p9r6h+mq3X7bygqp/ipysvK8qNyryjDKvNnGfvTbH0Jm9gFlZJ9lzyEPWvMWkFm/DzFnIg5Mnc+eke8jIHEKHmh0cLO3OmHmLmDg2l8zeBsUFxcoY3Ggyv2zOL8W5oM4Rdp5XFVPVfW+2+dWU+8FbiWrvGzzeta5RPLBgMGd37Ke2fuxNVyq583/CPbm5pHeu4nBh3XrJzXucu3PHktmpggOFpzH6zWXhE1PIHDSawcMG4Dq6k5LUBZa9TEBr+Tl1I9yse5qmFConNhQcx2b5RqppaiSO+j6ZntW88MxblPafyNBuDvzbl/HMv/wTK9cd5eyur9hTZljaDenqIHbo3QysfJdlv3mOos53M7Sny3JufrnRHF1vFkbVafZ/8kdeWvIsW0+e5FhRDTFDJ9Ln5Cssf3YJO2PGM6KnS3nMNWA8fUtXsfzZZezvMI70eB1X+r0M9n/N9uLLL79NUyM2ewKpZzeSX1EXG1fGHfQ+uZJXnlvK7rhcsjvoRGbfRc/jK1jx3DL2fe92spNu7S8l60ljGJ68n817awAwDr7La3/6I18cOkfxFx9z0BfimGJMRUMBqp2d6ZsSrkDZbScuk9i2vOYbA1XOV9YGRX43TY247olcOKHRubvr0jUteU6Rv5S1RnFM2WdFTVLXGoOy7S/x8pIl5LfLIaNd3bHSHa+yYsnTLH/5I477Q8fKznOojqnqo93Yq54jVP4P7p+Kqp6oY2VStmMFK5Y8zctLn2fTcUPZP9WYq8ZDFXv7tc2gbOdyVvzpRYp73kl6rLrPquuJ1kO1DlTHVPkG7M1vVV4KRzWXVNdRzetQfbXTL7t5QdU/2/dV9Nl2Xm3iPoO9MQymaQFOfLmMl5//mKITG3n72d/xWb4bV+8x9Ct/m+VL/sg2BpHWsXV+npD5Zb9u266Vqvhdw9qHtj+/ZE/eNOyOt6tfLqnn3uDlZ5dS2HEsaXF6/bE3WbH0eb6NGEDdcjGo3PN63R5q2V/ZWmKi2ssIcZF673xlzZKVNM2kfNNf+OvKdZyvKqfWp6E76m4VnT2bKcMM9m/+jmqwttN1YmKjcZ8/RY3nGOcqo4iJw3JuVdt5j4p/zxt8vKsGYgfRL/oABadMEpKiqThVQsCo5swZNxExmuVYZCwYNTUEImJwOmKJ0t3U+Ax8+1ax6uMC3GaDmzi6MWJMMkWb9+Cr/+mKMzoST8V5DNxUVhhERmt4tz7Hq/84jYEOponRhuLY1EzTSZfc4Rjbv+ZMgzXj6P8gkwZWULDvHEZ9LIOPBY/pd6eb9hvdbZ9JxQkPHQakXPr5sRmVxu2P/or5i/6Vh2fkkKSZynYiHIlty2u+MQjO+dVelLVBld/BRfdOAQ5uryCuewc001TmOVX+UtUa1TEVVU26cq2JwmVUUe2pO6jp4aNj9zmUuVlRH+3EvsZnKJ9DdY9Q9UQluJ7Yrcvq8bCOuXKPECL2V1XbjFLKqyOIjdVD9llVP0UroVoHQcdMU1fmG7vzW52Xrkw1l1TXCZ7Xofpqu18280Jw/wJ+9X5dRbUWQ+VVPXU6C//9CbKizavuc/C5qpheTY6yJSqCQHUFAWrY+8YyNpYoE06Lk/mlnl92P0uqzlU977Ws/StqI/NL9uRNxO54R0VhVldiGrXUuB1ERoFRVYXeNYue7arYvepN9nnDRLjBXkaIi668d1Zrthlk1JZRUQ2dxt5HP28+BcfrvppgVB1ib4FBdt58shP0kO2IzWH64gfopIFWn3KCz21rYjIyiSnazjnDoOJ8LUm9euDSk+iRUs2JY37LsePFAQLFmynqOIOFTz1J2rlNHKgBze8nEPRBy9XndjI7OEi+/Sc8dN8g4rX6WRA5nPsfnkjwF0+j+00iw9jJ3jb0zd4mFzuMkb2K2bozksFTf0APZ13MzLPfsH6Lj+GzH7jiMbg8pmflPaqFcboQd+cMLtYpPVrn/No/s2LZUgoShtMvTle2E+FJbFtec41BcM4/WGutF8cv/rQ0OL+7etDZVUJx4RECKam4IGSeg8b5S1VrVMdUVDXposa1Ricpey55i59kYOkm9tUAPjeRt80gb/GvmTl5EHFaiB2MzedQHQtZH8PEvuHzqmpmo/teoX/BQtWTxvfQSBycx9xFv2Te4w/Qx2mq+6cYc/V4KGJ/hb7YrW3BcQl1PdHyVOsg+FiCHlDnm6uY36H2neFY1ljQdYLntaZdITfa6JfdvBDcv4LKEDFSUK3FUHkmULyGT1d9wsGGf7bMZp+V5xIU06sZw5uQzK/Gc+RqPkvamZshj90CZE/esgLFq/mioD3jHvsPfjxtNImaCejEZUwnb9EvmZd3D530Wyvfiat3pc8yoTTbUjZNjZiBM5k6VmPbm+9e+nU97+Gv+PStN/i2ojNdOzms7QL1Xar5hg+Wr6bEBBNTeW5bYppx9E+L4+ieExiaRs3O99kdNYlpjy1iSO037K0wLMfyyw3ih08m9dBSlj3zNJti72Z0d+tzm6ZG+z6dufDVMlaueImCdveQ07v+10A821j92j8oM6A+jGiJo7nv3gR2vr+WCvPW/LmYaWokDB1BzN4vORqIJCG5AzH1oTAvHODbtW+yu7Ir3eqLn/JY0JiKxjT/QY54e9Ij4uKBWLqMmcOP8maR3sGFwxGinQhLYtvymmsMVDlfVS8AS37XY3qT0iWNO6aNIDm5N10chM5zDfJXAN1y31HdHMq+mHoPRs7+BXkLn2LO5GycZujNqbXWGJTtfpVXlvwXW+LuYlQnHePIO7zyh6d5+dm/UNTlDrKSdMs9dMO09RwX83Dws6nqo+oeoeqtqmYG30PVv1CxUtUT6z1MKr5dyatLn2HFn9/moM86RqO7Oyxj3lX9G6DK2Ifqi93apoyL4nqi5an2iaN7uZRrQ7UXDbX+lBT7znCU+1Ib11HlxpA5qsH1TANbeeHiucH9C5mTwzBNLXSe8Z+mqKCImob7cht9DnVuwz6XG+ocdauQ+RVifgWdezXzSxm/a1j7NwPZk7csTavl+LqXWP6fv2NrdA6DuzgAg6r8N3hl6TOseOUzTrfRv9cuWjdnc13YkXIHUx4cQMkHv2fTiQCmqdHp3l8xrePXLH8vQFKMlwq3YWkHBjXVtUT16YTmd9IhwU11hUbKxF9bzm1TYrPpH3OAtacCgIbmP8GON/9C1YPz6LR5D15NdUwnNioCf00NAcNNrdtJVHTd35QLVlNdjSdQC4YXr8/E4QB/jYeIlPYEfOXEJ+i43Samszs5D42l6pNn2VV6C1U5BSd+YrPmk5fmIiHhNCdNiBvzJD/QV/L6eicxkT5qPQZxY37a6JjbW/dtoeAxFcE8HCoKMP6eSE6akDRsHIn7lvH6FicjFyzAoWh3qgV727ZIbFte84yBU5HzVfXCqcjvjl7d8W35M299VcmAmY/RpZ1OeVCeO33xRo3yl668r7IvRjFbVv6eLRevE+JF2xVrjVFNTa2LznEOIpIf5C7Xaj7Z7sHj1Yh1YLmHqemWfK1+Dk35bKr6qLyH4nlNZ1f1cwTHT9E/yz3QiR+zyFJPTGcPW3VZ1T9H+6AxT9ApulJtr499p1gHcWMWXl1t09vTLtZLdbW1z6apEZ9rfTapja2Hah0o14ZiLxoXYv2ZUb3JGhzD0c35VJiact8ZjipX2L2Oci+tylHB16s1beUFNE3ZP9V97VKtYzAwnSmk9ovm9L4ialWxDNHnuhg2PtfaZy10Dg3m9eKITUTTvcRGBfC4Q6xjtwdHbDsclDJg5qO0+2IpG1rhr1/L/FLPLxW780sVP9tr/yabX3VkT37dFOO9vkzVzo0el4Cme+rnD0SPWsgPI97ijTWVuD2X521IDfYyskcR16NZXqSapkZcxghS23XEMfu3pM+sYd/rT7Fq69cUz5/GT/8VSnev4sviAHF3Kdpt/5yCQXNY9O8uLux5mzePeSmranzuV8fb1surmPQsYoo+qvs1ufpuu3p+n1Exu/mfBh9WGh7TNI3ybV9zfvaTLBgKgfNr+eCQD73vVGbeO5Ckjh1hwT+T8MkSPt/6JSWzF/HwUAfm+XV8eMiHz/kVRwbNIe8nOmbJ57xzzsCVPYkx3RM4P3ExD0+ooPD959lwrI29lG4CmmZStm4Zf15X962hOxbcia5B9bcbuDD3SR4ZAt7D77LKDe7gY/X/y6JqTEVjnn2HKL9/BGhQsb8Afepi5g4owR9jcFTRrrVukVojiW3La44xUOV80Cz1wre3cX5/uwSSRyRQfbgCgwCnS5yk9XaxMSjPXdQwf2maab3vYR/lZ9R9Cab3nWKpSWtirLVmCzrtB89nXn8dV+Vm3j/qwxdzAGY9yfwxOpz9knfPWTe2qnyteo6LpwU/W6WiPqruoYq9K0tdM4PvEap/wfew1JhalHV5i+Lc4P69dzBA8n1BY97Lhd7+Put4BMe+2Ef1Wbu1TSdp8Hzm3QbewrdZVQ2uwdY+bwxRK0XLU66Dwz4qj6vXRvBeNNT8dnQaSs6EDrAznz1uLHnpHcV6DubKsM6l9YrrqPa+XxT6lXvpYJZ+lRq28kKo/m04Zti6ryo3fhkixzt6jOfead9j/e+Wsaf26vocfK6yzzZyFIDvwHoOj5nFI4s1/Mc+DLmOfUUbOTB2No/8DLwlX/Le2db5UkLml3qOqM5VfZa0NTfPGfjK7a39m21+XSR78uujHG8n6Mk5PPBkBn4MSja8wIffrudwzmweXWzgPvoR71QZuPM3UjrnCR7JMvCfX8uHxwLQVyc+cwbzenohcI78VS+yU7GXacVTStxgqpz4RaH/iudo6enpZmRkJB6P5wZ1s/nExcVRVVXV0t1o8ySOTUPi2DQkjs1HYtvyZAyEaH1kXTYfia1oTjK/RHOS+dU0JI43lsS7aQTHUf6AlRBCCCGEEEIIIYQQQoQhL1KFEEIIIYQQQgghhBAiDHmRKoQQQgghhBBCCCGEEGHIi1QhhBBCCCGEEEIIIYQIQ16kCiGEEEIIIYQQQgghRBjyIlUIIYQQQgghhBBCCCHCkBepQgghhBBCCCGEEEIIEYa8SBVCCCGEEEIIIYQQQogw5EWqEEIIIYQQQgghhBBChCEvUoUQQgghhBBCCCGEECIMeZEqhBBCCCGEEEIIIYQQYciLVCGEEEIIIYQQQgghhAjD2RQXMfWOZDzwBJOGR7Lnhf/N6kN+tJgs7n5kDoO7uKjIf5u3/r6W0uhsy7HzpoapxZOV92+MufACL7xziOTJ/8ajt3dBq7s659b+jhe+iOOuR+dazm1tTC2R/vc/zuRhPtY//X/ZWqNhRvRj3OyppEZqGCWf8+4726g0NUwzgj4P/RNZhUt4d08ter/ZPPajVDyVPsyqPXz+6occ92uYzj7c88S9nFu+jJ2VprLdyd5zLMeO6bcxfvZUUqM1Aic/5Z33dlDTZyoz7x1AhBZLUmIRHz79IoX+1hfHG8X2GAS1MyP6W2Jb1QrnY0txZi/k5xNLef3375Dwo4UkffosG0rNa253s4kY/TMWjY/lQrWBMz4F95p/Y2XJD61rmFRy50zntngd37HVvPPeDiod1mOquRcq74jr15zzW1VDnAPn8fiUHtRU+sC4wL73XmBL1P3KXK73mcnCvPZs/O2z7KrVlDntGKmMmTuLgXEGvpI1vP/mBirTH+Xx+7tSW63BqU95663NVLj6255DwXVKNcf/Xvag5Tk2nkiwPG/I2ATlYdV9r6YGW5+ht2VtuRVxqe6rqrf2YqWqHTV95/L4tFTcFV4InCN/1YtsbzfLVj7wjvq5rThvTZxvHd8QucTWHAok2Zqnm44bV5zv4sZRrclXN1RZ9zeqNaQ4pnItdUe1JioVuacC65wznamMmTOdAfE6gdNf8t6qjVxQrbvreiZV/6z7a2Udvo77gmKP2neKrT28qt2R4dZc8eqGKsu5zuwFzEj+kJWfnSdz3iJiP3iW4sGPMSE9hfYdXFSeK+PoV3/i032dLXWkrBXuMWR+XWVNVRyz1Webe9ObbX4BlpqpGgO7a/dWZTp7W8a71DmKBx7uyNq/fHDpnY/pSiV37kwGxBp4ilfz7vs7qXT0IXfONPrHafiLP2LVB7vxKPZVO1Me5YlJKVTWmHgK3+Z/Vn+HV5MxEHWuJnde1CQvUiOGTefuruc4daFLXUdMjbihdzOw8l2W/eYcY346myHdN7GpZ+NjQ3tu4rMjfhzdJpDT8xhb3jlEQNMAkwub/5vn3qlg7OKf0/HkGWKGTVWe29q40u9lsP9rthePunws4w56n1zJK5+UkznvUbI77GD9WRM9aQzDk/ez5p0aQAMMSne8yqrVRRiaBmiYpkZs9gRSz27k6woDNHU7XXEscvhd9Dy+ghWf1zDskUfJTtrFhoPv8tqfoug56XFGXPiYg776W9+i7IyBql1ktiK2t8ALQPsCVDs70zdFo6RJ2t1cjKrT7P/kAz7aqTP44SdILKqBWOvcc2WMp2/pKpavOMewR+eRHr+L7T2sx7ZUWOdeqLwjmkLzzW9VDQGTsh0reH310fq5AWDN5SYacd0TuXBCo3N3F7sK/ahymqvfGPqVv83yl45w24yHSeu4iW8wKNv+En//rJrhCx4mo903bE21N4dUdUo5xxOtz+HKUD2vWnAeVt33amqwJfYDFOtNEZctqpgOsXcPVe3YhEHlntf523v7L8VFb2czH9iMszNRMb7drNfbXI69OaQcN9U8Fa2Fck1iXVfKNaTMS1bXUndUa2JLL+t1NqdY+xAzdCJ9Tr7C8n9UkJG3iBE9tyo/G1zPM6n6t7WPvT3g9dwXrGNj2NzDq9rpIcY/HE0LcOLLZby8bmSjlxqqOrKxpPXtMWR+hWb9DKQ+ZqfPW7rY25sGa+vzyzSt+y7VGNhdu7cqV2/reG8oU7Trl0vquTd4+eUShj06j7S43ezslkvquTdZsaKMzAcn0NO1m0LFvsqZYlC2czkrP/OT89iDpMd+x057aVDcAq4md17UJL/aHzjyIX9/YTUnPZcTXExsNO7zp6jxHONcZRQx8YpjcXVvfzPuGoW2azV7yg00zeDMZ8/wwgf7oMtIBiQcpCC/Wnlua+Tbt4pVHxfgbpDrndGReCrOY+CmssIgMlrDNJ10yR2Osf1rzgQut9X0oKzq6MaIMckUbd6Dr8EHE0s7xTHv1ud49R+nMdDBNDHqvxji6P8gkwZWULDv3C39YcfuGKjahYqtuMik4oSHDgNSLu0TzKg0bn/0V8xf9K88PCOHJM1UtrsV+Pe8wce7aiB2EP2iD/Dd6bqJFTz3jJoaAhExOB2xROluanyG8piKKu+IptJ881tVQ0Kx5nIX3TsFOLi9grjuHdDMuotY6kVUBIHqCgLUsPeNZUEfTqJwGVVUewz7c0hRp0LN8Wt9XmW+VtzXbg1WufLauhwXsMbU7j2upnbYyQd246x6DvXz2ptDVzNPReugmiuqdaUaW7vjfS11R7UmVNcJ7oNp6iQkRVNxqoSAUc2ZM24iY9X3uJ5nUvXP7jq+mvvqqdNZ+O9PkBVt1j+feo+q2sMHn6tqd/W5Iowr1pHWQ+ZXHTvzK9ScCz5X1T+7e1Pb2sj8UtXMUGMgn7+vwO54R0VhVldiGrXUuB1ERoFRVYXeNYue7arYvepN9nnDxNYopbw6gthY+QuX4rJr2dc2yQwySo5wxqP4h9gcpi9+gE4aaBc/RgYdc3S/m9E9itm8LoLcH+eREadh+r14vRqdhmQRffgbCt1XuF4ro/n9BFS1I3I49z88kaSLEY8dxshexWzdGcngqT+gh9MEn5vI22aQt/jXzJw8iDjNxNXndjI7OEi+/Sc8dN8g4jV1O+WxetH9JpFh7GRveV3HzLPfsH6Lj+GzH6i7763K5hgo29ULjq24zDhdiLtzBhfrlB6tc37tn1mxbCkFCcPpF6cr291KYjIyiSnaztkAyrkXKN5MUccZLHzqSdLObeJADcpjIQXnHdFkmmt+q2uIRuLgPOYu+iXzHn+APvU5yJLLXT3o7CqhuPAIgZRUXHDF2tCYTlL2XPIWP8nA0k3suzivbMwhZZ2q12iOK54jZM0MpsjDqvvarsEK6rWliEuomF7FemtcO3TiMqaTt+iXzMu7h066uhZdae2Hi7PqOZTXszmHrmaeital0VxRrCvV2Npep3DNdceynwq6TnAfNM2g4nwtSb164NKT6JFSzfFi9cvB634mVf9CHLvW+waK1/Dpqk84eOkzj3rvqdrDW84N0Q6Cc8WtQ+aXjfkVYs6p5ldw/65qb3ozUdTMUGMgn7+bR6B4NV8UtGfcY//Bj6eNJlGr2/NY9lVCXMHV5mxool/tD6nmGz5Yfp60mVl0wbQeMzW6DsnCmf938qtiuL9LZzwXe+TqQ2ZaNEUf5ePTdMu5XWljC8KzjdWvBeg++XESDUgYOoKYva9zNBBFr+QO1GhgHHmHV/4ApvY9Rv84j8zE3Rzq05kLXy1j5dfVpM34CTm98/n0cON2WUm72XhEcazUREsczX33JrDztbVUXPz7IhcO8O3aozj6LKJbnE7xhTYWyyZgmprtMcjPsLYDlLEVl2n+gxzx3seAWDgFoMXSZcwc0nICxHVw8Z0jRLtbhGnG0T8tjqOfn6j7ybRi7u0ZMJnUQ0tZ9o9KBs5ZwKhu+Wzr0fjY6O75fBXq7xA2yDtJt94yb1Y3dn6bVHy7kr99eLjRnxwJzuXHjN6kdEmj4zQf7eJP0dW1gSJFbfhGeQ+Dst2v8vfPqsmcM49RnfbWtQuaQ6beg1EzH+K2eB3j+D/42/u7aK+sU37LHNdDPIflaRX3iA3K11UQ8r5KNp4jZrh1ba1TxGWtIqY7bNzj9Q924dc0S+3QMajKf6PBr6DZywcX176dODuDnmNkyl529rFe7+sKe3Noo/JP2dgbX9FyGs6VALpyH3TdrqHuBK+JKJvXqdn5PrunPsi0xxKJL3uPlysMTEdP5bqzw+6aVfX5emn+0xQVwMU/WxJqbFR7+IbnXnoWRTvLvuMWIfMr/PyqQv3ZNPjcS9dr0L9yQyd+1FXsTW8ieoyiZobYhsjn7+ahabUcX/cSy9cnMjjvUQZ32cIaxb6qeV96iVtR0/xnU5qGQ9fqvt6q64CPmupaovp0QvM76ZDgpqYS5TGH5iBxxGJ+ORI0ii590HT1HkFf514+KfQCuvVc699Hb7X8NR4iUtoT8JUTn6DjrjVx4ic2az55aS4SEk5zGojInM5drtV8st2Dx6sRo0NNdTWeQC0YXrw+E4fD2i42xDHT2Z2ch8ZS9cmz7Co1MU2N+NxF/EBfyevrncRE+nB7DW7VDzt2x0DVLji2QsXDoaIA4++J5KQJScPGkbhvGa9vcTJywQIcina30otUYrPpH3OAtacCgKaee1ER+GtqCBhuat1OoqJ15TEwMKN6kzU4hqOb86kwNWvekd/BbWItN79D5XJH3+74tvyZt76qZMDMx+iSoHOi6zRLbcDtwRHbDgelDJj5KO2+WMqWixc3qqmpddE5zqGcQ5pRzJaVv7/U3tR0ZZ0CLHPcLtU9gvPwSdT1UcXuc6jXljUuEckPWmJq5x5omu3aYTcfgHF1ca5/jk5xDuX1HO1tziHRNjWaK9Z1dfoqL9cUdUe1JuxeR/OfYMebf6HqwXl02rwHr6Yp151ddtdsc+wBTWcKqf2iOb2viBpTs+Y8E+LGPKncwzc619BD7/Xt5AqvF0dsIpruJTYqgMcd4nOCoo5saIW/fi3zi/prhplfqD/vBJ9ba6r6rIWuT8Fusvnl6GWtmUVBYyafv21QjPd6xd9Ixe1Gj0tA0z318weiRy3khxFv8caaStye0HvBS/T2tIv1Ul0tYyCujyM5Ofk3TqeTQODaf8fDNWIxv/zpA/RMiKfL0In0NbbxzZYzxI/+ET+cPIKoQx/x+YYiKs7WED+q4bHDnPruS9Z9/hFr15ym48hUqrZs5Fiti9Q7p9H37Cd8kX8WUwPfuepG5/5jfRG1QZM/IiICr9d7vTG5LnrfKcyePZm+nbvSLS2d+LKtHDxwgXY507l99Cg6XVjDmh3HKT+6je1bNrBr+1Fi0npRtWsXJdWR9L13Frk5o+lUsY5124opP1NF8p153Jk7lh7eTXy97jBVtUHtthZTozjmz5rFtJEdcXUZzKDhWcSe3s7ho166TZjDuJxhtCv+lLUFZ/C3wjg2N00Dd/FWW2NQphir8gxrbI8F/VH1WyGOoeidhpAeU8ju3U76j+9F2eYNHK5MJOPu+xk0oCft4iMo372Fk4nWdseC/pPQmzWOMYMmM8izlk2F5ZiahuFWrP9zHjrfPZc7c3Pp7t3I12sPU6Y4VmNqOLrdzZQH0qjcso0Sv0agtKJx3tl+HO8tuNabQ3POb1UNOapnkpFUzJ7CMkxNQ9PAd8HXKJevyT9Lh+Hj+d7xdew/GyCQMpqMqB3sLXJaakN1eRWxI6czcVwOKdUbWf9NMd7koYwdP5aBQ8bSh+2sWXeAinOVYeeQpoGnxFqnakzNMsf1jtmNniPU8xadNyz3CM7X1bt2ceKU9b7uPlPD1+BQz3HebVlb7o7WuFTWWOtt9fnwsQJwKerycWcWOXeOJWNQDoOHDcB1dCfHz0fYyge245w8pNFzrF13gNKzja/35ZojtBtmbw55+1rjHDxP27JSN4kwAAAgAElEQVSbNTc2nCuE2AeVpirGNul+5TptirqjWhNHisot1/Er5lzReQNXz/v5ft+DfLGxGF+ID8XKvBrimYKp+neq18ywe8Crva+j1yRmzMqiastWSvzqnHfqvF+5hw8+N7g+XGwXnCtUAhcqSciZzoSxI2h/+nPW7TlVN4aObqQNjuXojkJq0QhUWOuIuxW8lJD5de3z63iR9fPOOSN4fmnKPh88XKusT8FutvnVSVEz98f+oNEYJFzYSuEhT9jP37eS4DiqxrtW70b6xAkMyR5B9sgcuvr3sq/gLAljZnHP2OG0O1U3f2ov+Ohy1xxuHz2aLrUbWbvxCO72gyz7qtNxQxk7Lpe0IUOIP7yaNQVn6/+T85vfzbqnaUp2Po8Ex1FLT083IyMj8XhUf+S0bYmLi6Oqqg19VbWVkjg2DYlj05A4Nh+JbcuTMRCi9ZF12XwktqI5yfwSzUnmV9OQON5YEu+mERxH+S9IhBBCCCGEEEIIIYQQIgx5kSqEEEIIIYQQQgghhBBhyItUIYQQQgghhBBCCCGECENepAohhBBCCCGEEEIIIUQY8iJVCCGEEEIIIYQQQgghwpAXqUIIIYQQQgghhBBCCBGGvEgVQgghhBBCCCGEEEKIMORFqhBCCCGEEEIIIYQQQoQhL1KFEEIIIYQQQgghhBAiDHmRKoQQQgghhBBCCCGEEGHIi1QhhBBCCCGEEEIIIYQIQ16kCiGEEEIIIYQQQgghRBjO5rqwFpPJXY/MZVhXF2W73+TNNzZSqiWT8cATTBoeyZ4X/jerD/lxDv0Jv5iWRYQGmIf54un/ZLN3IHfMz2NYVxcV373H//zta8oG/YRfzBhMlK5h+r/jk//n/7K1Rmuu7jcpvd9sHvtRKp5KH2bVHj5/9UOO+zVMM4I+D/0TWYVLeHdPLaYzlTFzpjMgXidw+kveW7WRMpLof//jTB7mY/3Tdc+salcz6ucsGh/LhWoDZ3wK7jX/xqsbqjCdfbjniXs5t3wZOytNzIj+jJ89ldRojcDJT3nnvR1UmW0jjs0heAz0vlOYee8AIrRYkhKL+PDpFznYa6rl2JHh6niLOs7shfx8Yimv//4dEn60kKRPn2VDqXnN7cRlEtuW15xjEDH6Z5bcsvLM3bby0sHecyy15hipjJk7i4FxBr6SNbz/5gbKTM1aG5y9Le1KFfUnFOv1rHWqKm0+j0/pQU2lD4wL7HvvBTaW9GHc7KmkRmoYJZ/z7jvbqAxRkyz5WlFbj+n9ldcL7l8oep+ZLMxrz8bfPsuuWg1nxiM8fn9Xaqs1OPUpb721GY/Nequ8fr85PD4tFXeFFwLnyF/1ItsTfmgZy/0Ba+ydmQt4YlIKlTUmnsK3+Z/V30GOtS9/L59m6XOFwzoPyvvOtfTlmwv9lHsEO3GpVYzvpuPGFee7uLFUc9TO2r1gWvesyutH9LO9ni+fY92XVrqs67jC5n74guJ+qn6prmf3mULlAMu5WqK1zzb34cq4OPrYe17VfRXHVJzZC5iR/CErPztP5rxFxH7wLMWDH2NCegrtO7ioPFfG0a/+xKf7OitrS2sj80s9v1Sfd/aHqJ/Kfgd/hrV535ttfsmevGko96DOUTzwcEfW/uUDztePvelKJXfuTAbEGniKV/Pu+zupdPQhd840+sdp+Is/YtUHu/Eo9jc7Ux617KG8WuubU6Jl2K2RDTXLN1JNUyNx1PfJ9KzmhWfeorT/RIZ2cxAxbDp3dz3HqQuXE4d/+zKe+Zd/YuW6o5zd9RV7ygzaj/4B2e6Pef7/vMixLpPIHRgBgLdgBb/91RP8n//1B7ZVN0fPm4tB6Y5XWbHkaZa//BHH/XUDoyeNYXjyfjbvrQEgZuhE+px8heXPLmFnzHhG9HThSr+Xwf6v2V4cuHQ1VTuj6jT7P/kjLy15lq0nT3KsqAbT1IjNnkDq2Y3kV9R9mInMvouex1ew4rll7Pve7WQn3dpfSg4eA+Pgu7z2pz/yxaFzFH/xMQd9IY4p4i0aClDt7EzflHBJyG47cZnEtuU13xiocovdvKSqNa7eY+hX/jbLl/yRbQwiraOurA2qdqr6o6K6nqpOgUnZjhWsWPI0Ly99nk3HDVwZd9D75EpeeW4pu+Nyye4QuiYF52vl8yqup+pfqOeI657IhRManbu7Lt2jbPtLvLxkCfntcshop9uutyFGmMo9r9fFYNlf2VpiKsdSHXuDsp3LWfGnFynueSfpsaFqkbXPqvFV9UW1R7AbF9X4itZDNUftr13V+rO6mvV8kWrOqa5jdz9st19285vqXLt7QNU97O7DVe1sP6/ivnafN5imBTjx5TJefv5jik5s5O1nf8dn+e4QOaX1kfmlHhdl3bmOenytny/b+vySPXnTsDvern65pJ57g5efXUphx7Gkxen1x95kxdLn+TZiAHXL1Lq/Ue2hhLjoWmpks2QlTTMp3/QX/rpyHeeryqn1aegOncCRD/n7C6s56Wn8E5jo7NlMGWawf/N3VJoOEtsnUH5sP5XVhRwrcRIdf/GLswaGz4dhmJht7CcImt64v6bppEvucIztX3MmAKapk5AUTcWpEgJGNWfOuImMBd++Vaz6uAC3efE8dTv/njf4eFcNxA6iX/QBvjsdAEc3RoxJpmjzHnz18fJufY5X/3EaAx1ME+MW/pwTPAYXOfo/yKSBFRTsO4dRH7fgY8p4iwZMKk546DAghYsz34xK4/ZHf8X8Rf/KwzNySNJMZTsRjsS25TXfGITKLXbyElhrDVERBKorCFDD3jeWsbHEVNYGVbvg+hNS0PVC1SkVZ3QknorzGLiprDCIjA717Rd1vg5+XuX1VM+r5KJ7pwAHt1cQ170DmtnwwaNwGVVUewzb9fZqBI/lFWNvlFJeHUFsrB6mFl3us3IeKKj3CPbiIlo51Ry1uXZDrb9gdtdzQ6o5p7qO3f2w3X7ZzW+qc+3uAVX3CLUP11Ons/DfnyAr2lS2C/i1kM8bfK7qvrbzuV02c0pLk/lVdzx4joC17oRav8HnqvJBk3++bCPzS/bkTcTueEdFYVZXYhq11LgdREaBUVWF3jWLnu2q2L3qTfZ5w0S4wR5KiIuupUY22wwyasuoqIZOY++jnzefguM+jJIjnPEo2lYdYm+BQXbefAYlmJSVVpDQrR/xMX3p1rGUU0c9YJpEDMjjl79dwpOP3EMnZ2tNqAo+N5G3zSBv8a+ZOXkQcZoJscMY2auYrTsjGTz1B/R0Bag4X0tSrx649CR6pFRzvDiA5vcTaFCMNM1QtrsoJiOTmKLtnA2Aq8/tZHZwkHz7T3jovkHEa5djFt1vEhnGTvaW38IffoLGoEf9nDLPfsP6LT6Gz37gisegcbxFY8bpQtydM7hYp/RonfNr/8yKZUspSBhOvzhd2U6EJ7Ftec09BsG5xVZeUtUahSvVhoaC608owddL0NX1DDQSB+cxd9Evmff4A/S5mEsjh3P/wxO54hdYVPk61PMGXc/u8+LqQWdXCcWFRwikpFL/PTySsueSt/hJBpZuYl+DLwbZrbeN6cRlTCdv0S+Zl3cPnXT1WNqNvaovV+qznb5A0B7BdlxCjK9oFVRz1PbaDbFfUrKznhUs+9Kg61ztfjhcv65qjYV4pnB7wCvdI/h5A8Vr+HTVJxx0q9sVVIbKq9ZzVfe92pxys5H5ZZ1fys82ir5Yzr1CPrgVP1/KnrxlBYpX80VBe8Y99h/8eNpoEjWTK+1vhFC5lhrZbH8j1TQ1YgbOZOpYjW0vv3vp19lVvIe/4tMjh/D97HG6dXbw7cb32d1vDo/+Op6IUx/ywqkA/pPP87udoEVnMulnMxjS60s+Puhvru43KePIO7zyBzC17zH6x3lkJu4mP2MEMXtf52ggil7JHajRoGbn++ye+iDTHkskvuw9Xq4wQPHNllDtTDOO/mlxHP38BAF0OvTpzIWvlrHy62rSZvyEnN75fHrYj5Y4mvvuTWDna2upaIV/b+ZGME2NhKHWMQAwLxzg27VHcfRZRLc4neILpvpYg3gbbewb0jeC5j/IEe99DIiFUwBaLF3GzCEtJ0BcBxffOUK0E2FJbFtec46BKrfYyktBtSYraTffWK6t0V5RG76w2ze9B6NmPsRt8TrG8X/wt/d3Ka/3iapOYVLx7Ur+9uHh+ufSiALwbGP1awG6T36cJFN9j1hFvg6urVlJu9kRdL1EA3X/jnRpdI/XP9hFIKY3KV3S6DjNR7v4U3R1beAYBmW7X+Xvn1WTOWceozrtZe0Z01a9Vd3DwKAq/w3+9t7+SzEINb52Bc8XXdHnjcoz1X0J3iPoNuOyUTG+onVQrfvRvfLZZWPtvlRukDBevV9SClrPdgTPOVVeUFHth01HT8u6s9uv4NxzpXOvZw+o2odr/tMUFUDDdRPczgyx/1edKy6T+aWeX8F1pyREXxqee6XPT7fq50vZk7csTavl+LqXWL4+kcF5jzK4yxbWKPY3zfbSS9yymu1nIo6UO5jy4ABKPniRTScCaFrdr+M7dK3upnrd391KmfhrfjpnNAmxnUiK8eJxG5i1BXz55z+wvvg8hevXUmroJOX8mLlTBhOraYBJW/q5QkTmdL4/JAHd8ODxaug6OPETmzWfvIVzyWxfl2E1/wl2vPkXtp4toWD9npB/ADlku9hs+scc4LtTdT+6rKmuxuOpBcOL12ficIDp7M7oh8ZS9ckKdt3if+Q6eAwME+LGPMnMsUnoejtiIn3UegzLMbe3/scVQfEWwTwcKgqQ0kXHNCFp6DgS973IG6+8Rv5ZQ9lO2CWxbXnNOAYNcotparbzkqXWOAC3B0dsOxzEkDHzScYkq2uDtV2I+mMUs2Xl73nl+f/itQ93E9B05fXs1jN/jYeIdu0J+CKIT9Bxu03lPVQ1U/W8luvVmur+Bd3Dr2k4enXHt+XPvP7X/2bN6US6JDQYM6OamloX0XEOyxiBOqaqewRTje+lGhOK3p52sV6qq8PUooZ9tjm+qj3CVcVFtFqqOWpv7arXH4AZ1ZvM0ekk1H8DW7Wew1HNObvXUeUZ1bqzfb2rOfca94Ch9uGmM4Xeab2I1syQ7ULl1eBzr4vXiyM2EU2PJzYqgMcdIh/ZzCktTebXxeOX50iouhOqL8HzS5UPbH++vMnmVx3Zk183u+PtdqPHJaDpsfXzB6JHLWTGuO+hGzW4PfV72isJ3kMJcY2a5eW8aWrEZYwgtV1HHLN/S/rMGva9/hTvOJ/gXx7KwKlrmI/9N50/+Q0vf/MVxQ9P56f/CqW7V/HV8QCmqRM/5EFGx+/mzb01aJrGhf0FVI7OY/H/1qnY9yFvHfHRVn7y6jt6AGY9yfwxOpz9kndLDcrWLePP6+p+OnnHgjsvtXX1/D6jYnbzP6fqfg2y7n9VHEhSx46w4J9J+GQJXxT6Le0AYtKziCn6iLOBur9TW7n1S0pmL+LhoQ7M8+v48JAPV9YkxnRP4PzExTw8oYLC959nw7FbL5FommkZA12D6m83cGHukzwyBLyH32WVG9zBx+r/s9qG8W4jU/GG8+w7RPn9I0CDiv0F6FMXM3dACf4Yg6OKdrf2q/2rI7Ftec01BsG53G5estSacwa+so0cGDubR34G3pIvee+coawNPj2o3VkDve9UZf1pKFStAU1Zp4L59n7FkUFzyPuJjlnyOe+cMyxtVfkaQjxvedD1StXPG3wP09RJ7p5A9eEKDAKcLnGS1ssFXp32g+czr7+Oq3Iz7x+tO9dOvVU/s0585gzm9bz8P8luU4ylqvavQSdp8Hzm3QbewrdZVV13C2stsvbZh3V8aWfty84ujfcI+997gSN249Lf5gQXN5xyjh72UXk8/NrVNC3kntXRaSg5EzrAznz2uO2t52CuDOu+dL3iOqHy0bXmGTv5LdS5wTkg1CMq13GMeh/u6DGee6d9j/W/W8aeWnVcNhwzlM8bfK7qvl8Zk+0974H1HB4zi0cWa/iPfXhpz2tpV6TIKa1wMyzzSzW/FPuK2tB9CT5XlQ9CzVfL895k8+si2ZNfH+V4O0FPzuGBJzPwY1Cy4QU+/HY9h3Nm8+hiA/fRj3inysCdv5HSOU/wSJaB//xaPjwWgL6K/U2IPZQQoM6nqpzdkJaenm5GRkbi8Sj+eGkbExcXR1VVVUt3o82TODYNiWPTkDg2H4lty5MxEKL1kXXZfCS2ojnJ/BLNSeZX05A43lgS76YRHEf5brkQQgghhBBCCCGEEEKEIS9ShRBCCCGEEEIIIYQQIgx5kSqEEEIIIYQQQgghhBBhyItUIYQQQgghhBBCCCGECENepAohhBBCCCGEEEIIIUQY8iJVCCGEEEIIIYQQQgghwpAXqUIIIYQQQgghhBBCCBGGvEgVQgghhBBCCCGEEEKIMORFqhBCCCGEEEIIIYQQQoQhL1KFEEIIIYQQQgghhBAiDHmRKoQQQgghhBBCCCGEEGHIi1QhhBBCCCGEEEIIIYQIw5GcnPwbp9NJIBBo0gtrMZnc/fhTTJt6H+kdKzi89xj+oYt46uePcsc9kxl390B82zZy3A1a/Fhm/K9H6XJ4PYfKjbrzGxw7eAE6T/o3fvbjmYyfMJlxEyYxMLKAHfvLMDXt0j0jIiLwer1N+hxNIWL0z1g85y7SBo9h+N0Pkm5sYPeZXozPW8AdOWPJ7FrN4f2n8ET0Z1zeAu4YlUtWDzdF+07i7zuVWbOmMGzkRO6c2JvzG3dQOfLnluvlR95naXdOTyU3byETxo4jo0sVh/efwouG6ezDPYtm0e67bZxWhKu1xrE5mGYEfR56ivHOHewr8aP3nWKJY1mqvTH49ljjmN1KcQzmzF7IL+alUrylkG7TF9H/5FaO1V5bu1s5jioS25bXnGNgOnszZt4iJo7NJbO3QXFBMbXOPozJW8iEsePJ6unn6HfHcCtyuelMtbSrdaZarxdxm6X+qGqDc+A8nvjx/WQMymHw8AyiT+3geIVpfc6MR3hiwWQyh9zO4J5uDhYcx6Ml0f+HP2PenJEEtmzkpE9T9s+rqHHnDc1yD7DmazOin6VmehSxqlX0RTmuqudwWuuokfljFj3yfQYOGUta0lkKD5xFS59vK1Z1Yxw0blqiIla9LfdVxVTVZ1X//JHW/YXqeso4K/qn3Nccj7EV57bgZs2Nqv2fnTziRrPMC+X1FWvSS+N5YMl5Ef1t7Yft5hQ31nmn6pe/3xweXziFzEE5DEpvx7n8QioUuUe5PhXHlPFQtFPtM1U5L1Qsr3UcPCHyfjBn9gJmZZ1kzyEPWfMWk1q8DTNnIQ9Onsydk+4hI3MIHWp2cLC0u6W2qGJ/o8n8sjm/ruNcsNYJUOeXYDfb/GrK/eCtxNbe1zWKBxYM5uyO/dTWj73pSiV3/k+4JzeX9M5VHC48hcfZh9y8x7k7dyyZnSo4UHgao99cFj4xhcxBoxk8bACuozspSV1g2RsFtJafUzfCzbqnaUp28m5wHJvlG6mmqZE46vtkelbzwjNvUdp/IkO7OfBvX8Yz//JPrFx3lLO7viK/3MA0dVJy76BHyUa2HvPVn289BiYXNv83/98v/1/Wnaji/KkzGG1k8htVp9n/yR95acmzbD15kmNFNURm30XP4ytY8dwy9n3vdrKTdFwZd9D75EpeeW4pu+Nyye6gYxx8l9f+9Ee+OHSO4i8+5qBPfT1VO9eA8fQtXcXyZ5exv8M40uN1TFMjNnsCqWc3kl9htHRoWpyeNIbhyfvZvLcGQB1vm2MgGgpQ7exM35Rwa9RuO3GZxLblNd8YuHqPoV/52yxf8ke2MYi0jjoxQyfS5+QrLH92CTtjxjOip0uZy1XtVNdT1R91bTAp27GCFUue5uWlz7PpeKiaYVC2/SVeXrKE/HY5ZLTTcaXfy2D/12wvvvxDWlX/VPk1lOB8raqZyhgo+mL7ORR1FAzKdi5nxZ9epLjnnaTH2o+VKs6q/qnuq34Oa59V/VPFKlRcLHFWtFPVQPtxFi1BNffs5hGwzgsV1TwLx+5+2G5Osd8vg9Idr7JiydMsf/kjjvvVeVq5Pm3OdeXasZnzQsXyWsdBFWc7NC3AiS+X8fLzH1N0YiNvP/s7Pst3K2tLayTzq+nPBes8vNbPl219fsmevGnYHW9Xv1xSz73By88upbDjWNLi9Ppjb7Ji6fN8GzGAumVqULnn9bo92bK/srXERL13E6LOtexhmyUraZpJ+aa/8NeV6zhfVU6tT0N31N0qOns2U4YZ7N/8HVUGEJ1NzrAEDm/eQJlZn1yCjmmawZnPnuGFD/ZBl5EMSDhIwd7q5uh6s/DveYOPd9VA7CD6RR/gu9MBvFuf49V/nMZAB9PEMMAZHYmn4jwGbiorDCKj6+Lh6P8gkwZWULDvHIamKa+namfU1BCIiMHpiCVKd1PjM8DRjRFjkinavAdfG3kR3VxM00mX3OEY27/mTIM1ExxH1bFQYyAuMqk44aHDgJRLPz82o9K4/dFfMX/Rv/LwjBySNFPZToQjsW15zTgGUREEqisIUMPeN5ax4YxGQlI0FadKCBjVnDnjJjIWSy43TV3dLuh6G0tMZf1pmtoQhcuootpj4Nu3ilUfF+Cu/1JmyP6hzrmWiCvydXDNjIhyKO8R3JereQ5lHb3IKKW8OoLY2KvYSinirOqf6r5Xfo7LfVb1T7W/UF1PFWdVO1UNvPo4ixtKtcZt5pFQ+6VgofaxV2J3P3w1OcVuvzQ9fP9U89ruXA/VTpXz9NTpLPz3J8iKNkP2OdQ42DlXmfevh6K2tEYyv9Tz63rOVc7Dpv582Ubml+zJm4jd8Y6KwqyuxDRqqXE7iIwCo6oKvWsWPdtVsXvVm+zzhonwtezdxE3vWvawzTaDjNoyKqqh09j76OfNp+B43Y+1jKpD7C0wyM6bT3aCTmx2Ln3jTJLv+BULF0yie4SpPGb6vXi9Gp2GZBF9+BsK2+DX4WMyMokp2s7ZBpuf6H6TyDB2srf+TxoQOZz7H55Iwx8Um2e/Yf0WH8NnP0APpxnyesHtAsWbKeo4g4VPPUnauU0cqAFXn9vJ7OAg+faf8NB9g4jXWmthugFihzGyVzFbd0YyeOoPLsVWFW+7YyAuM04X4u6cwcU6pUfrnF/7Z1YsW0pBwnD6xenKdiI8iW3Lu1FjoGkGFedrSerVA5eeRI+Uao4XByy5PEEPKNtdScP6o64NGomD85i76JfMe/wB+jhD1QudpOy55C1+koGlm9hXA5rfT6DBB/VQzwGh82sjIfJ1w5oZ6h7BfQnN+hyqOqpmL1aqOKv6p7qv+jmsfQ4paH+hvJ4izleKX8MaaD/OoiWo5p7tPBJq/ako9rF2hNsPX01OsdUvn5vI22aQt/jXzJw8iLgQ+2HVvLY710O1U+W8QPEaPl31CQfdV+hziHGwdW49S5xvETK/Gs+R65qbinl4K3++lD15ywoUr+aLgvaMe+w/+PG00SRqJqATlzGdvEW/ZF7ePXTSb535KK7Ntexhm20pm6ZGzMCZTB2rse3Ndy/9SoP38Fd8+tYbfFvRmS4pLjp170z1tld56b+foyD6LkZlxFiOjc6MrLuoqw+ZadEU7cpvc9+mNM04+qfFcXTPiUs/4dMSR3PfvQnsfH8tFRe/jevZxurX/kGZAVz8qeiFA3y79k12V3alW30yVl2vYbuuMTrxwyeTemgpy555mk2xdzOqm4P2fTpz4atlrFzxEgXt7iGnt/rXVG52pqmRMHQEMXu/5GggkoTkDsTUD4Ey3jbHQFym+Q9yxNuTHhEXD8TSZcwcfpQ3i/QOLhyOEO1EWBLblncjx6Bm5/vsjprEtMcWMaT2G/LLDWUuD2639wq/Xtew/pQbeojaYFLx7UpeXfoMK/78Nof8Gqbeg5Gzf0HewqeYMzkbp1n/61K7X+WVJf/Flri7GNVJvbUI1b/g/Bp8D90wQ+br4JppNwZ2nmNkirWOju7uCBHR8LHSDdNWDTZN7Sruay/2qlip7hsyzqonlhrYZpimZpl7o3u5bOWR/HLjquZFuHmmYnc/HEy13tVr23o948g7vPKHp3n52b9Q1OUOspKsuefSuU1MtafU/KcpKiiixmwQ3AZ9Ng1CjkO4cy/GTxnnW4DMrxBz5BrOVdWJKLilP1/KnrxlaVotx9e9xPL//B1bo3MY3MUBGFTlv8ErS59hxSufcTrE3/oV4no024tUR8odTHlwACUfvMimEwFMUyNl4q/56ZzRJMR2IinGi8ftp6qqBhwONBzouolhBBTH6q7p6j2Cvs695Be2wT+WG5tN/5gDfHeq/hs4zu6MfmgsVZ+sYFdpXSH113iIaNeegC+C+ASd2hqTuDFPMnNsErrejphIH26vYbmeaWrWdj4DZ1QE/poaAoabWreTqGidmupqPJ5aMLx4feal5H4rcuInNms+eQvnktnegWFiiWOtx7A1BkLFw6GiAClddEwTkoaOI3Hfi7zxymvknzWU7YRdEtuW10xj4PbgiG2HgxgyZj7JmGQNzX+CHW/+ha1nSyhYvwevps7l1naa8nqq+mO3NmhGMVtW/p5Xnv8vXvtwN/6GL9CMampqXUTHqU8O7p8HXZlfg+8R0HRLvgZrzXS7TXUMruM5VHX0Er097WK9VFerX9aqnsNunK94XxVV7Bv0TxUr5X0VcQ5JamCbopp79vKIev0BmFG9yRydToKm3seGmmcN2dkPh7qOar2r1rbqehGZ0/n+kAR0w4PHq6E7wuSFJqDcr9fvKU1nCr3TehEdKpa1ZuhxCHeu21TGWcnrxRGbiKbHExsVwOMO8QM5RW1pjWR+qefX9Zyrmoe2P1/eZPOrjuzJr5vd8Xa70eMS0PTY+vkD0aMWMmPc99CNGtweG+82wuzdhLDLkZyc/Bun00kg0HQbYdPUSBg1nXszutEpawK5d91FSunnbC3w0mnMNCZ/PxN934d8vukopWcqSeiHPMIAACAASURBVBwziyn3jyHx9Gd8/o99nDllPVYRiCD1zmn0PfsJX+SfVX77oTX/j2QxgyYzyLOWTYXlmJqGK2sW00Z2xNVlMIOGZxF7ejtHispplzOd20ePotOFNazZcZzqMj/dJsxhXM4w2hV/ytqCM/jRGl0PDXwXfJZ21ec8dL57Lnfm5tLdu5Gv1x6m7EwVyXfmcWfuWHp4N/H1usOWn0625jg2FU0Dd/FWtm/ZwK7tR4lJ60X1rl2cOm+Nd62NMTDb2HxsbnqnIaTHFLJ7t5P+43tRtnkDhysTybj7fgYN6Em7+AjKd2/hZKK1nfzP8lcmsW15zTkGgYoqYkdOZ+K4HFKqN7L+m7r/qdbV836+3/cgX2wsxg94StS5vGE7H5ryen5F/Tl4oNJyPXeHQWQkFbOnsEyZ4y7FI3kIY8ePZeCQsfRhO2vWHaA2dSqzZ0+mb+eudEtLJ75sK0XnDctzqGqXP+gviKnyddWuXZw5W9m4Zm4/jhdrDPS+U5R9Cfcca9cdoPSstY66k4cxdlwuaUOGEH94NWsKzmImh4+VpqnHzd2ncawSLmxlX2GN9b59rDE96hhkjX1Ha/+8pdZY+fta71uwc4slzqUhxjK4BtqNc1tws+XGUHMv1J4weJ2q1t85Q8PR7W6mPJBG5ZZtlPg1AqUVyjXZUHBsbe2HFfNVlVN8/397dx4fVZXmDfx3b1Vlq6wICYQlkAASshH2bIAKgkI7bs1OUEHFxqGdnv68dr/zzrwz7+bY09M9Yyvdtt0KKN0ujCuKKC5sgRBCgkAIYQkJS0L2VCqVWu99/0jAUPdU6oIpIOT3/Y/7ubfOuec8z3NO3UoVPn59UNQve0cwRs9bitzsLAy27MbuIvH/Ci6K66qYB/TVFK9rI1uKUHHaIax5hpHzsXhpOqyFReKxPHQerVUHxfPg79ri81AE43zOon2o5mlpQ2T2IszJm4oBtTuw+0hN5xwahiE504yqQxXo8LG23Ir/qzrjSxxf13+t+P3ThRr/7y+B2y++enM/2J/o2ft2yMOQMncOJmZMRca0bAx1H0N5WT0ic5bi3rwpiKrpjJ+OFhfi71mOWVlZiO8owK6Cs7APmIDsu/OQOiEbmZPHwVRVgtrwSZq9kaeffJvmdtvTBIKePaz3OEopKSlqcHAwHA7Hje5vrwsPD4fVar3Z3ejzOI69g+PYOziOgcOxvfk4B0S3HuZl4HBsKZAYXxRIjK/ewXG8sTjevcN7HPm35URERERERERERER+8EEqERERERERERERkR98kEpERERERERERETkBx+kEhEREREREREREfnBB6lEREREREREREREfvBBKhEREREREREREZEffJBKRERERERERERE5AcfpBIRERERERERERH5wQepRERERERERERERH7wQSoRERERERERERGRH3yQSkREREREREREROQHH6QSERERERERERER+WEM1AtLYSm467F8TB5qguX4R/ivv3yLhpBUzbHmCT/BzxZnIkSWoLqP4/P/9e8oskmQIvKw6O9no+n1/40vqt2QwtIx+4nlyIw3wXL0fbz3111oVKVAdb9XBWX9FGtnmtHSrsAYEQf7zn/EpsJY5CxfhHERMjy1X+OjLQWwjF6Op36cCEebC6r1CHa8uRXn5Dsxc9lDSAyV4Lm4HR98dAi2pIewZN44BElmxERXYusLf8apkdpjFW4JqhqEpEf/DukVL+HDIx1Qg8ZgxrKHkBgsQanbgQ8/OIi2PjKOvU2VojH2gaexYLILe17ojDu9c9WiSlCNSbj3mXlo2LAeJW3qzb6dW4oxYw2em9uEt3/zASJ/vAYx21/G3ibtGOk973ajBo3V5LVVFeSrIEZV4yjkLl+EOyNkuM5tu3Kttg3meqAEMr6N41fi6QdHwNbmApQWlH/0RxRFrtAcK6gdKaxLctISrMkfgIJ/fRmlHRLkMcs060rdlOcEdW6QJq5so1fg6YWJsFucgKcBR7f8GUV14v5r210uvNa7bor6d94tjlPv/DCmrcYz8+PQZlPhqHgf/7XtOBzBgjVTsLaK2lCNiZoxbTYkImfFUowPV+Cq24mP392LJsRo8lI0BsL5TX0CTz8wFB3tElCzHe+9tx9totw3jtK025b8mDY2oh/TvJ5jumB+C4zaWiKoERZDoq44OFAfpXm9a5lLCiy9+5vNl2Zr9o4nIIgBwb6zQpRD17HuiNbDNtNYbWwK8k6Usy3XsB7q2ceJ+ucU5Nibe6265kF0TNyuts/tOudBlIsXR+mrg8aM1VgcuxWbv2hE2sq1MH/yMqozn8KclDgMGGhCW0Mzqr75HbaXD9HUqOZbcI/B+NIfX6L6L9pfiuLrHJJ0jdVtF1+maXj48UHY9donVz2X8F7TRfVXNKf9lWjP02Scrhlb1ZSI3BVLMM6swFG9DR9+XII2QxJyly/E2HAJ7upPseWTw3AI9i0lcas0e0andOvFFN0cemtndwF5kKqqEu7I+hEy7J/hD/+3AXnPrkROcgF2D776WO74AnwCwFm2Ef/xViHcigeqB1AhY3DuXRhRV4Dt51xQVRnhk2ZjfNuHWP/PDcj522WYlLAPX5x1B6L7vU6x1uLE55/g0xIZmY8/g+hKG8ImzUXSxU3Y8KUFqflrMTWhCDugoOnQm9iyrRKKJAGQEDzlHiSc34iNO2yY/MQqZMSUYu+pD/HW70KQMP9pTG35DKdcgCI4BgmQY3IwJfYEdn5gAyDBlHoXRl3cjE2ftyJt5SpkDDyEPfW3/4MrEVPKPGS6v0Vx9fQrx/TO1fZKD8wZc5BYX4BvLQrAQuzFg3bjEIyOk1DXK+fdXoIzBHndpGrzVRCjpnEzMbppCzZsbMDkVSuRElGKQos2h5nrgRTI+FbRfGgj3t5W1bUOAMbx2mNh08R1KXx4NFouSBgy3ITSCjcgWFeMgjoniqsiKGg78jb+8tGJK+0Ke6xKwna9r1VVSVA3tf3zxTs/AAXNJRuw+Qs3sp96BCnm4ziWos2tfTrbENX6r005GNP6Pja8fhZ3Ln4cyYP24UCsNi/FYyCioLn4dfz1i3ZMWf04UqMOYF+LIPdHCdoVxUa09vWKRPObslBbSwQ1Yn+cvjgwpWrH4FrmkgJL7/5GuajdO5rSBGuMjz2mpt3rWHdE62HhSFFsau9JlLOi9waifu2ug659nLB/grHUOw+iY8JrRWOpcx5EuShfZ35KkgcXvl6PN3Zf/cDINEZbowp8fNB2MzG+xPTWf9H+UhRfoj2JnvfpfT2+fPFe00X1l74n2vPsbRacNyYXiQ3v4I036jB51Uokhx9GybBcJDa8i40bm5H2yBwkmA6jQrBvMcZp94wlnAbqord2dhegr/YbED0gEq3nTqCtvQLn6owIjTAJjl1+jqtAcbmgKCpUSQJCM5A9ORJn9n//6VOYORT2xhrYHOfQ0BaCsPDA9DwQ3EfewWelNsA8AWNCT6KsRkVkTCgsNXXwKO24dMmOYHPnuZJ89ULrLPo93vyyFgpkQFWhKJ3HDWMfwfzxFpSVN1wpEN7HVNWI+NwpUIq/xSVP53XG0GA4LI1QYEebRUFwaP99o+Mq34Itn5XB3m1d1j1XhmGYmhOLyv1H4OJDVAEVlgsODBwXd2WrroYkY9aqX+Cxtf+AxxdnI0ZShef1B6K8FuWrKEYVmw2eoDAYDWaEyHbYXIqwDeZ6IN3c+FZV2ccaYsLwwR6cKrYgfPhASGpn4HivK9517nitR3dciYnb1fBRN737J75nbX5coTShtT0IZrPsc83014bPMQ0JgqfdAg9sOPbOehTUqcK81D0GV4TApFjR7lDE9yZoV+/rieZX1GdRjdAbB+Ix0DeXFHh69jfHazuDzXvv6CsGRPtOb9ez7ohyVvQ63vfkuw7q7JfOfZyof77G0ptoHnzljpy4CGv+6Rmkh6o9jqVoHryvBcS52Kv5ec016uZgfHXSE1++ct9ffF3LWOnWR+JLRLSm653TfkvvfIeEQG1vg6p0wGY3IDgEUKxWyEPTkRBlxeEt76Lc6afOddszEl3mq3b2JEAR5EFzkwWRw8YgImw0hg1qQs1Zu/ZYlQNQVQSNy8fz//oSnn3iXgw2qjBn5GJ0uIrYu36BNavnY3hQ10benI1F6x7GYAmQ+uBjl7DUNIRVFqNBUWBp7EDMyBEwyTEYEdeO89UewGVH8J2Lkb/ul1iyYALCpe9nMnTMfKQqJTjW2jkWav0B7Cl0YcqyhzHCqIqPmSdj2shqFJUEI/OhH105D8FT8MDjcxHTz+uH5HbD4+NZgb+5MiXNQtpAA2Jn/QSP3j8BEVLfWeBvFKW2AvYhqbi8TsmhMhp3vYqN619BWeQUjAmXhef1J1fltSBfRTHqqd6PykGLsebnzyK5YR9O9vRpKnM9YAIX3xKiM/OxYu3zWPn0w0gyqppjo00e8RpiGoEhpjpUV5yFJy4RJqDHdeVynav3+IorGeGpi5C/9nmszL8Xg2UfdU7UruBaYd3soX9X8bWe+XBVbuloQ5J8rMuiGRKtHcIxEJERk7EC+euexfimfSi3Xcu9iWJD8Hpdus+vz/XOq0bojQPh6+mdSwo4Pfub+q7w9t47+lpjRPtOoetcd7z3ud6v431P15Kzote71n2cpn/QjqU30Tz4mhtP9U5s3/I5Ttl99xkQz4PmWlEu9vP8ZHz5jy9fue8vviJkH3uS/qqHNd3fnNK181Rvw1dlAzDjqX/BkwuzEC117o107V+JuvS0b/IlIF/tlyQVzQUf4/CY5Vj1ywgE1WzFHy950NLqdazGA/fFP+BXJYAUmob5P12MzIRvcWL4ELQffBOvf9CIqc/8PbLSvsROALAdwCcbGpG8JB1D0bcSQlXDMTY5HFU7LkCRJNhKPsbhhx7BwqeiEdH8Ed6wKFDaPsCm3wKqdAeynsxHesxhFDSpkKKzcP+8SJS8tQuWy78R0nIS3+2qgiFpLYaFy6huUa86NjRMRnPGVIQdextVnhCMjB2IKz/14DiIbW95MHzB04jpW8N4Q/ibq9dbFQzIGYKWb9Zj87ftSF78E2SPOortZ/rGT03cKJL7FM4678c4M1ADAJIZ8TnLkZztQfhAE44bfJzXT3TP61ZFRuQkH/najapKiJiyAImnX8H6L9swfvlqZA0/im/O+6j8zPWACVx8q7B8txl/2Xrm+6/iC46pgjVEjhqFuPhkDFroQlREDYaa9qLyrHhd6V7nPJCFcbUTCqxH3+n21SgJqjwC05c8ijsjZCjnv8Tbn5TCE6Ztt8rrWlWVEZckqpva/u1tGX5VG3/5uBRmHflxZW6810zBGHi38fYnpcJ1WS9ZMAZnFO1YAQqaD7+Jv37RjrTlKzEt7hhK79R7b6LYuPr1pg8+hl2XVM065lO3GhGtQHcciCg+Yo1uHaK48N47NqWI1xjRvlPoOtYd75wN0fk6opxVDQmCvIMm1gcI6tHnZ+M117olSbwP15tjOknuWlSWAVfll2AMRPPgfa0wF/txfjK+/MeXr/r/zXlFV3ztFa2f/fAbe6oq+dzP9/acUidJ6sD53a9jw55oZOavQmZ8oXDfErD/GIj6rYD9nZLaUYavX/0t9lQ3omLPLjSrkuZYkyIjJvtJrHgwE2ZJAqBChQKr1QYYDJBggCx3fs3B1t6BkDsGQ3LHYWCkHba+9vvM5gyMDTuJ4zWdH0FJ7gs49O5rKKqvQ9meI3BKEoLSFuG+iZGQFQccTgmyAVCNw5H1aB6sn29EaZPa+TtsOc9iSV4MZDkKYcEudDgUzTG7S4ERbpjTH0P+mhVIG9D5rt5tcyAoagA8riBERMqwX8vfL/cXfudKhq29HQ5HB6A44XSpMBhucp9vSQ6crvQgLl6GqgIxk2YguvzPeGfTWzharwjP6y+88xqAMF9FjCFBcNts8Ch2dNiNCAntHDc1ZBTSslIQ2fVXD8z1QLu58S1aQwwjh8NV+Cre/tN/YmdtNOIjZeG6AkBT53zFlaZdpRqFm3+DTX/4Nd7aehhuH+2KiOqmqH/ebXgkuef8kAcgyuxEe7sizC09bbglSTimsDtgMEfBgDCkLnkWObHiNz+iMRC1cYXSDluHCaHhBvG96WxX9Hqi+RXR1IgOVXcciPiMNbp1dIsL0X7S7lI0MRAcImvPc3Z9O6oX1h1Rzup9HVHOivJOFOuieiS6VtQ/77HsDaoxDqOSRyLUx1h22FTf8+B1rSgXdeen0wmDORqSHAFziAcOu48PlK61Rt0kjK/L49BzfPVU//XEl3D9FLnN4kvE536ll+f0tqJ3vu12yOGRkGRzV/wAodPXYPGMOyArNtgdOt6Td9szEv0QAXs4r6oSIiY+gqyIw3j3WOcPLXsfkyQJLSfK0JaVj3X/U4alfCveq3Khvm4rTj62FOv+lwnWU9vx4VEH2oN2oGzCcqz9JxNajryPd6t8/sL6LSksJR1hlZ92/il/V7dNCfdhethh/FdN50FX1Ulg6bN4LEcG6r/Ghw0KTBnzkTM8Eo1z1+HxORZUfPwHFHy3Fy0rnsUTEwHnmQ+xxQ7YBcc6dq/Hq7sBVR6Bu1bfDQBwHfsGZycsR/5PZKh1O/BBg4K+NI69SR79IJbMG4+YQYOA1X+PyM9fwlcVbr9zJUkS2oq+Rt2ytXh8kgFq425sPd234vFGcZSfRusDUwEJsJwog/zQOqwYVwd3mIIqwXn95VGfKVWb13sF+SqK0a8PfovGZc9i9STA07gLn3TFnmHwJGTPGQiUHMURO3P9RrjZ8d29LqmqAbHDI9F+xgIFHtTWGZE80gTXKe26AkhX1TlJUtEqiqskGRFpi7Ey4fv/9bTI63erVFUWtos27bUHBHXTFS7uX3eSpKJZkB+AjJjMx7DyTsBZ8T62tAOmTMGaKVhbfeWCZl2uLMDJvGV44qeAs+5rfFSvQB790FV5GbHtdygXjUGTU9CCjAGZj2HlWBmmtv34uNqF5jOCtVrQLgaKeuz1el17I+91TFRLdnjXiCYFVp1xUBz5N9radA3jTIGlZ38jSSraRftJ7xg440L7Ja/zOjrb6Y11R7Qe7hG8jnfeXb4n75wV0fSrSdG9jxOu1+cU4V5Rzzx8oywQ3odhxEzMW3gH9vxqPY50iPusma/L8+B9rSAXXQ59+ek6uQdncpbiiXUS3Oe2XmlDc56oRt2C+c740h9fwvoPSVd8AZK+sbrN4gsA5NhsPPxsKtxQULf3j/hs1yt4dbfktV8RPwugTsL5NmrHdut3e3AmexlWrVNgr/oUH1gV2I8WoGn5M3giXYG7cRe2nvMAo7X7lhLBnpHzQJf52jf1REpJSVGDg4PhcDhuUDcDJzw8HFZrX/tT1VsPx7F3cBx7B8cxcDi2Nx/ngOjWw7wMHI4tBRLjiwKJ8dU7OI43Fse7d3iPY//5Li0RERERERERERHRdeKDVCIiIiIiIiIiIiI/+CCViIiIiIiIiIiIyA8+SCUiIiIiIiIiIiLygw9SiYiIiIiIiIiIiPzgg1QiIiIiIiIiIiIiP/gglYiIiIiIiIiIiMgPPkglIiIiIiIiIiIi8oMPUomIiIiIiIiIiIj84INUIiIiIiIiIiIiIj/4IJWIiIiIiIiIiIjIDz5IJSIiIiIiIiIiIvLDEBsb+89GoxEej6fXX1yVIpC+8v/g4ZGVKC1vhDx5LX7+3Crcde8CzJg9Hq6DBbggp2H20z/HwofuR8ogC84cO4eO0BTc89TP8eMH5iF1cDsqj1WjAxKkiDws/u+rEH9mD063Kpr2goKC4HQ6e/0+fqigrJ9i3fJ7kJyZgymzH0GKsheHz4dh7N/8FCuXT4OnsAAXXZLwvKPB92Pp0gcxedpc3D13FBoLDqFRkaCqQUh69OeYaTyE8jo3AGiOqVK0pg0AUI1JuHftUkQdP4hawXDdquPY20TjI5yrmmHIyV+DOXkzkZ7gRtXxc7BD4jj2wJixBj9bmYjqwgoMW7QWYy8W4VzH9Z13O46jGjQWM/NX467sPKQNbceZEzVwQpvXohhVjaOQm78Gc/JmIDXeeuVabRtjMCN/Ne6anov0EXZUll/UnHc7ju2NEMj41rsONCctx9NrHkTahGxMSIlCw9EK2Kc9p61fl0ZqYk1JXYVnVi9A2sRZyEyw41TZeTiCxgrjxV+dAwB59IOa/jUY79S06x6j7XOrGiNcp0SE655X/+QxyzRtWAVjZVHE7chJS/DMczPhKjyAWrfvNdP7mK+c1ry+oH+tRh9j710PjKOQs3It5ublIm2UguqyajjHrMCaZx5E2oQsZE4eB1NVCeoSVuKZJx9A6oRsZE5JRWjNIZyzjdRc22FM0qxtHcZETX1BliCuaoZqznNI+ufyVtfXa6Nw7RCsCQ7BfDuCtLnrqz5o2r2OdUeUO6L2RPGlGhOF+zM9/RLVI1FdEI+bNneE7frahwtqmTdRrbAo+mqyrzb0XGvMWI2l6Rdx5LQD6SvXIbH6INTsNXhkwQLcPf9epKZNxEDbIZxqGq6pKaIxuNEYXzcnvvSO1e0WX8a0J7A0sw5HTrmQvPTvMcVeiDMDHhDsifTV0P5Ck6eC/U2HaToeXp2J+kMn0NE1VqopEbmP/QT35uYiZYgVZypq4DAmITf/aczOzUPaYAtOVtRCEe2NEldj7RP3YfzEPCTH1KPiZD08Uv+Yg76+p7kRfNXT7jT5H8gOGYbNQXbCORR+cBpuSQKK1+PFg6FIfOA53Bv+DY40K4i+5z6kObbhjy86cM+6uZg0rBB7h83BBM8X+MP/a8Cs5x7CpOH78EUVMDj3LoyoK8D2cy6gDxUfxVqLE59/gk9LZGQ+/gyiK20wpSxEpvtbFFdP7/E85eKHeOt3IUiY/zSmtnyGU123LsfkYErsCez8wIbLY+F9zJQyT9OGqkowZ8xBYn0BvrUoQD8pICKi8RHNQdikuUi6uAkbvrQgNX8tpiYUYXulh+PYIw/ajUMwOk5CXa+cd3sJzrgHCec3YuMOGyY/sQoZMaXY26TqymHTuJkY3bQFGzY2YPKqlUiJKEWhRdW0YUq9C6Mubsamz1uRtnIVMgYewp567Xl0PQIX37rXAShoOvQmtmyrhCJJACQYBdeKYq0QCpqLX8dfv2jHlNWPIzXqAIoStfGyuw666pxyStu/4KnadvcJ+mxK1ca4L975IV7PtG3IgmMiqiohfHg0Wi5IGDLchNIKt7AN0TFfOS0YLe0YTBTnqqYejMrBmNb3seH1s7hz8eNIHrQP+6Gg7cjb+MtHJ7peDzAOVNF8aCPe3lZ15ZhpjPbaklHate3rcG19KRbtYQR1qHiE/rmkwBKuHYI1YX+cdh5L7hTUjJH61pPrWXeENUrQ3v447T2J9mdfnNU+OBL1q0BnXRBdW5yos13BPADiPbyWtn/XsofXVy/9kyQPLny9Hm/snoaHHx+EXa99gkZVEtaUgrpbb4/B+Lox8aV3rLz19fi6TIqchrSocnx72gVF1e6JTJO4J++JaH+zt1lw3phcJDa8gzfeqMPkVSuRHH4YJcNykdjwLjZubEbaI3OQYDqMCtHeKE5Bc8kGbP7CjeynHkGK+ThKbDf4RumW5aue9iRgX+1XpWik3jMdUuk2HOn216OhGcvw4GQFJ/YfRzuA1n2v4U+bd6PR2ooOlwTZIMPT4YBHMsBokCGrdtjtKhCagezJkTizfy+a1b710Mp95B18VmoDzBMwJvQkjtd64Crfgi2flcGu9nweABjGPoL54y0oK2+AIklQVSPic6dAKf4Wl7r+kFh0TNQGDMMwNScWlfuPwNXPH/7pmYOyGhWRMaGw1NTBo7Tj0iU7gs3gOPqlwnLBgYHj4q5s4dSQZMxa9Qs8tvYf8PjibMRIqvC8/sBZ9Hu8+WUtFMiAqkJR9OewYrPBExQGo8GMENkOm0v71/kAYAwNhsPSCAV2tFkUBIf2pxEOtMDFt951AAAkWfJ7rSjWvhcCk2JFu0MRx8s11Dnv/vlq17vPwnVKQJQfvvrn3YavY1omDB/swaliC8KHD4SkquI2BMd6Huee+yIae+H9hgTB026BBzYce2f9tb2p9Lp27yVJuLaJ6osorkTn6Z1LCjzRXIjiTDSPoljWu55cz7qjtz3ve1JVWbw/u4Z+6akL3tcGhRh0tyuaB2FuA5ATF2HNPz2D9NDvT9b0z0fN8772Wurldfsh9egGYnx1CmR8XctY6dZH4quTAXdMzYR0ZBfqu9Z+7z0R9+R+6J3vkBCo7W1QlQ7Y7AYEhwCK1Qp5aDoSoqw4vOVdlDv9jK3ShNb2IJjN/IVL+t717GEDFkGG4bORNaIa+3cHIffJfKSGdwa1Yj2NY2UKMvIfQ0akDKWjGZZ2YHDe/RjjPIqy8y44TuzD6ei/wTP/+BSSGgtxrF6BOSMXo8NVxN71C6xZPR/Dg27lgioWlpqGsMpi1HsAye2Gx8cbre7nAYBafwB7Cl2YsuxhjDCqgHkypo2sRlFJMDIf+pHPY6I2TEmzkDbQgNhZP8Gj909AhNT3xrG36JmDBkWBpbEDMSNHwCTHYERcO85XeziOOii1FbAPScXldUoOldG461VsXP8KyiKnYEy4LDyvPwkdMx+pSgmOtSq6c9hTvR+VgxZjzc+fRXLDPpzs6dPU4Cl44PG5iOmHYxtogY5vv+uAy47gOxcjf90vsWTBBIR3q0He1wJesQYZMRkrkL/uWYxv2ofyyzHkFS/XUuc0/RO1K+hzT3X4KoL8EPZPNC49jNVVTCMwxFSH6oqz8MQlwuRjDHoal6vHWcBXX7xzVbTOC8kIT12E/LXPY2X+vRgsqwAkRGfmY8Xa57Hy6YeRJLhWksRrW0/1pXtcic7TPZcUcD7nwivOeppvTSzrXU+uc93x1573PfmKYd390lsXvK69lnaF8+Ajtz3VO7F9y+c4ZffdP1+1R3Ot3nrZd4/LlgAAG+9JREFUjzC+AhdfCSbPtY3VbUVG1ISleDjLiOpjLVC7HkAL90TckweEp3obviobgBlP/QueXJiFaEmFeG9E5Nv17GEDksqqasTQiekwHv0KR62hGBA/BBFdPyLgPPMNtr/3Dr6zDMHQwQaoqoSw8UvwUJ6Eg+9+iHMuAwbP/BESqv6E3/6PF1AcOg8zxodi8PAhaD/4Jl7/z9+jLPQeZKUFB6LrAaOq4RibHI6qIxeu/DWR3vPUlpP4bte7ONw2FEPDZEROmoqwY1+jyhOMyNiBCAE0x8IETaiqhAFJQ9DyzXps3vg6yqLuRfYoU4DuuO/yngNbycc4HDIfC59ai4kdB3C0VeE46iC5T+GsMwEjgi4fMCM+Zzl+nL8UKQNNMBh8nNdPSNFZuH9eJEo+3oVWRZvXvnI4YsoCJJ5+BetffAH7zLORNdzguxHHQWx760s0KwC4h+hVgYxvf+vAsHAZytkPsOm3L+CNl19DZfxdSO/amYuu7R5rFrXz6+/Nh9/Eppd+jcLwezB9cNdWoFu8qAqEdU6VR2Dasp8hf83PsXxBBoyqKuyfqF1ffdbcv1cbsqIK1z1R/0RtiI6J7kMOG4W4+GTctXAqYmNHId6gbSNrpMln/fe+X1EbPsfAa+z11INOCqxH38GmV17Exk1foFaRAKiwfLcZb77yIja++j5Ou8UXi9Y2X/Wle1x5IF9bHaJbh1ec+ZpHbc2A/vXkOtad623PO4aPWRSfNcr79fTWBdG1onb1UFXJZ25L7lpUllXC1nX/3v1Li5Z9155u14ra8FUv+wvGV2DjK0y6/j73fQpaS/+C9/cpSJowqPObLBDvibgnDwxJ6sD53a9jw7/9CkWh2ciMN0C8NyLqXQH7jVSDZED01HV4fhogoRIXFQlxc3+BhYO+xYaPPIgJc8JiV2CIuwsPPjIOdZ/8BvsudH56ZQoyQVJVqKoCVTXAGKTAarUB0QZIMECWe/7a3C3JnIGxYSexq8aDHn/ftdt5qiojInctfiRvxtt7jAgLdqHDpcAIN8zpjyE/2YTIyFpcBDTHan28vK29HQ5PB6A44XSpV97sUzdecyW5L+DQu6/B+shKDN5/BE5J5jjq4sDpSg9m3huMiyoQM3kGosvX4+1CI6atXg2D4Lyam9jbG0k1Dkf2o3mwfv4ySps6/4JMbw4bQ4LgttngUezosBsREioDUKCGjEJ6Zhiq9h+FRZXgtjkQFDcAHlcrIiLlzp9IoV4UwPj2sw7YnQqC0hbjHtM2fF7sgMMpwWzQXgtIgljrRmmHrcOEIeEGbbx0qMI6JynVKNz8GxR2vYQKGRE52v6pxhGadoPSFon77EXThiQL1z1R/0RtiI55twFJgnHkcLgKX8V737Rh3JKnEB8l4ztBG6J2ReMsakPUF9HYC+uB3QGDOQoGNGHcklWI+uoV7NMbU4Jr99Zp1zazj/pydVzJPusQ3bqEcSaYR9U4VBPLvtaT3lh3RLmj93W0+zNJmHcQvJ7euiC6VtSuXr7WetUYh8Qxoagtr0SHqq0VYbLvPXz3a22qdj/hq14KOZ0wmKMhyU6YQzxw2BUI37cIa8qtt89gfF0eh8DFV62PsRK6zeKrkweNBw7AsXIm4ne9i9asZzV7Iu7J/RDM9x7Bb6TCboccHglJdnTFDxA6fQ3+Jug9vLOzDXaHjvfk8gBEmZ1ob/cRe0Q6GWJjY//ZaDTC4+m9P8GXJAUt5V9j945PsWtnLQZNS4T1wF6cqHFjcM5CLLgvDXL5Vnyxpwqm6YsxL3UYBqfPQe499yCuaQcKv7MhLmcRFizIRXTtl/hyRzku1bQhOmcpHnwgB9G1X2DHl+Vo8/p04Vb+H8nCJizABMcu7KtohSpJkEc/iGXLFmD0kKEYlpyCiOYiVDYqV50HCXC1uDBsznLMyJ6MqOrt2FV2CW1VB1FcuBelxVUISx6J9tJSnK+8+pi1tBRNiQ9d1UZkSxHKj1sQe3c+7s7NwwjnPny7+8yVTycvu5XHsTfpmYPLX9EwJTyA+0afwlcF1XADcNRZOY49kAdPREpYBQ4fNmLszJFo3r8XZ9qikTr7AUwYl4CoiCC0Hi7ExWjtef7+V/PbgSl9KRZOGwRTfCYmTEmHubYYFUcO6MvhChuGzF6Bu3NzMdxZgG93dcaeYdhsPPhwMtoKD6LOLcHTZEFU9iLMypqOwS07sbP4vN//PZn0CXR861kHnB3BGD1vKXKzszDYshu7izr/R1vv+iWKtQshmcibmYfxE/OQhGLs3H0Sloa2q+Pl0Hm0XfJf5yQf/YOg3apLQZo+O0c/JKzD3m3Yq4s0696FGm3/rIJxsfkYq+5UVcaQKTNwx/ndOFHvgScuC2mhh1B6uFXTRrNgXJxp2vs9J/hP4BS7ti/tjdqxb63SrumXmq0wT1uEuTOyEddegD0HquEYMAHZd+chdUL2lf+ZtjYsA6kx1ThS0XxlDfNYtNfaIWnXtka7sL54x6ToPHuS/7nsK/p6bRTtb06dbNHmeINDM4+iWD5b2SpcT3pj3RHVKFF7bh+1onsMu3y8KRb1y66jLvi61umVO77a9Z6HyJYilJUUanK7QZFgGDkfi5emw1pYhDq3pK0VB6vR6qMmX32t/nrpXc8BwNPShsjsRZiTNxUDandg95Gazjk0DENyphlVhyrQAclnTbnZGF83Pr4ut6FrrG6z+JLjMpEacRrfHTsJR8ICTJSLceREh2ZP5PBe5wW1sT/xHkfRfHfIw5Aydw4mZkxFxrRsDHUfQ3lZPSJzluLevCmIqumMn44WF+LvWY5ZWVmI7yjAroKzsIv2RuGTkDcjF8kTJyLizDbsLKuHp5/8Pyd9fU9zI/h6LtSd9zhKKSkpanBwMBwOx43ub68LDw+H1Wq92d3o8ziOvYPj2Ds4joHDsb35OAdEtx7mZeBwbCmQGF8USIyv3sFxvLE43r3Dexz5c8dEREREREREREREfvBBKhEREREREREREZEffJBKRERERERERERE5AcfpBIRERERERERERH5wQepRERERERERERERH7wQSoRERERERERERGRH3yQSkREREREREREROQHH6QSERERERERERER+cEHqURERERERERERER+8EEqERERERERERERkR98kEpERERERERERETkBx+kEhEREREREREREflhDOSLq1IE0vP/ETktf8SfPjwJTF6Lny1MR5AEQD2DHf/31zib+z+walY8pM4r0LDrV/jzxXn4u0UZV8776oV/Q4FlIFIffgbzpwTjyB//J7addgey671KNSYiZ/kijIuQ4an9Gh9tKUCzaSxmLHsIicESlLod+PCDg2hTJahqEJIe/TukV7yED490QDWOQu7yRbgzQobr3DZ88NEhtBkStccEr2dBDMY+8DQWTHZhzwv/jiKbBHn0g1gybxyCJDNioiux9YU/o8It3ewhuilUKVozPkFZP8XamWa0tCswRsTBvvMfsakwVjN/LaoE1ZiEe5+Zh4YN61HSpt7s27mlGDPW4Lm5TXj7Nx8g8sdrELP9Zext0o6R3vNuN2rQWMxc9hASQyV4Lm7HBx8dglWU/4IYFdUEq6rNYTVojLDG0A8XyPg2pq3GM/Pj0GZT4ah4H/+17TgcpiTtGmLQHhPVJXnMMjz140Q42lxQrUew482tqE1+Ulcb1pRVePqBoehol4Ca7Xjvvf3CGBK2MU57rWhNEt2vUxLHqSY/BHnknP6ctoYXDdGVC77W25wVSzE+XIGrbic+fncvmlUJctISrMkfgIJ/fRmlHZJwDM4L1lbR/brHPKRZl0/IPvYIXvMrjJfgO4X1xbvPwjE1jtLcb5Ng3jrH6+q+iOoV3RzCtUOwJliE+0lt/Ij2mMIcuo51R5THeve0ov11i85+WXzUUD3Xtidpc1a0l9Y7D3rr6nm3vr2n6NpzsrgueDNmrMbi2K3Y/EUj0lauhfmTl1Gd+RTmpMRhwEAT2hqaUfXN77C9fIiwNt5qGF/646tuinb9fHOvVXutj/eS3uuJyO0WX8a0J7A4fjs2f96IcUt/ipFF/45tp9y69vP0PeHewzgdDz8+CLte+wSNXXOvmhKRu2IJxpkVOKq34cOPS9BmSELu8oUYGy7BXf0ptnxyGI7RK/D0wkTYLU7A04CjW/6MkrhVuveb1P9cT44G9C9SDcPmIDvhHAq/OQ23JMFdvB4v/re/w+bdVagv/QZHW1UAKlr2/yf+3/P/G7svWNFYcwmuQ7/3Ok9B0ORFmD20ATUtfe8hS9ikuUi6uAkbXn4JJWEzMTXBBFPqXRh1cTM2/f4VHA7PRcbAzqmQY3IwJfYE9h+zAQBM42ZidNMWbHh5PU4MnIGUCFl8TPB6ppR5yHR/i+Jqz5W+KKc+xFu/+w98dboB1V99hlOumzIktwTh+FhrceLz/8DrL72MoosXca7SJpw/VZVgzpiDxPoCHLUoN/EublUetBuHYHScvyKk97zbS3DGPUg4vxEbf78e5XfMQkaMj/wXxKgo/0V81RjqDYGMbwXNJRuw8Xd/RnXC3Ugxi9cQ/XVJQdOhN7HxpRew4Y1Pux7u6WsDUNBc/DreeOklHI3KRmqUrxjy0YbXtaJ4FvXFF+/8EOWRqIbrzQXh2joqB2Na38eGl/4DBzEByYNkqKqE8OHRaLkgYchwUw9joG9+ReuyqM++5tf79UTjIu6zoOYI7lc0b6K+iOeXbgbh2iHaJwpiXhQ/unPoOtYdve2J7klct/T164dcq3cvrXcexLQ1Rf/eU3utr32HP5LkwYWv1+ONP3yGygsFeP/lX+GLo3ZhrbgVMb70x5do/RRe6aN/3uuJHn09vi6TIqchLaocxac7B0PPfp6+p3e+TWNykdjwDt54+RVUDMpDcrjcdexdbHzlD/guaBw6U01B25G3sfGlF/DG+j+hqE7Ftew3qf+5nhwNWFVSpWik3jMdUuk2HGn9frEPzViGBycrOLH/ONqh4NIXL+KPn5QD8dMwLvIUyo61a86zKoDn7Fb89Y/bcNHRtx6kqqqMyJhQWGrq4FHacemSHcFmwBgaDIelEQrsaLMoCA6VoKpGxOdOgVL8LS51zaFis8ETFAajwYwQ2Q6bSxEeE72eq3wLtnxWBrvXkBnGPoL54y0oK2+A0o8/iRGNj/vIO/is1AaYJ2BM6EmU1ajC+YNhGKbmxKJy/xG4+vEY+qbCcsGBgePicHl01JBkzFr1Czy29h/w+OJsxEiq8Lz+wFn0e7z5ZS0UyICqQlEgzH9RjIryX0RUE6i33ID4VprQ2h6EsFCDpgYFhUnXVJck2UfrPbQRfNUGMwQmxYp2h+837j7b6HatrzWpe1/MZvG2RJQfojzyruHHaz26c0GYWyFB8LRb4IENx95Zj4I6FYAJwwd7cKrYgvDhAyGpqp8x8H+/3uuysM89rTvdXk80LqI+i8ZUdL/CeRP0pcf5pRtKNBeimBLFvCh+9ObQ9aw7etvzvidf+2s9/QoK8Vfz/N+Tnr203nkAADlxEdb80zNID/3+ZE1N8VED9Fwrrgs/gLA23noYX/rjS7R++rrWu3/C9eSH6CPx1cmAO6ZmQjqyC/XXsJ+nbvTOd0gI1PY2qEoHbHYDgkMAxWqFPDQdCVFWHN7yLsqdftYdP/tN6p+uJ0cDFkGG4bORNaIa+3cHIffJfKSGdwa1Yj2NY2UKMvIfQ0akDNXthNMpYfDEdISeOYCKrm8CeJ+n1J3FJUegehs4kqTA0tiBmJEjYJJjMCKuHecvP+kOnoIHHp+LKx8Kmydj2shqFJUEI/OhH2GEUYWnej8qBy3Gmp8/i+SGfThpg/CY6PUktxsewUZJrT+APYUuTFn2MEYY+29F9zU+ABCWmoawymI0KOL5MyXNQtpAA2Jn/QSP3j8BEVL/HUdflNoK2Iek4vI6JYfKaNz1KjaufwVlkVMwJlwWntefhI6Zj1SlBMdaFWH+i2LUZ/6LeNcY6jU3Kr4lWdXUoAvn3PrrksuO4DsXI3/dL7FkwQSEC2qVqI3OdUpGTMYK5K97FuOb9qHcV6wJ29Be21PN9UuQH5ddlUddLtfw+stv6HTkgu7cMo3AEFMdqivOwhOXCJPPMdBPuC579fla152rxkXU5x7GtDvRvIn68oPml3qVz7nwiqmeYl6TV3rXk+tcd/y1531PPe6v/fTrh1x7mZ69tN55AABP9U5s3/I5Ttm7Dghqiq8aoOfay0T1sj9gfOmPEe/1U3OtqH8615Pbj4yoCUvxcJYR1cdaoEqS7v089Q5P9TZ8VTYAM576Fzy5MAvRXXvQ8NRFyF/7PFbm34vBcn+JR7pe15OjAXl7rapGDJ2YDuPRr3DUGooB8UMQ0fVrrM4z32D7e+/gO8sQDB1s6DxoSkJacigqS49e+YRVeF4fZSv5GIdD5mPhU2sxseMAjl3+Oo7jILa99SWaFUBVgMhJUxF27GtUeYIRGTsQIQAipixA4ulXsP7FF7DPPBvThxk0x7KGGzSvhx7qhdpyEt/teheH24ZiWDifsHhT1XCMTQ5H1ZELUCRJM39HWxUMSBqClm/WY/PG11EWdS+yR4m/stOfSe5TOOtMwIigywfMiM9Zjh/nL0XKQBMMBh/n9RNSdBbunxeJko93oVWRNfkfJvhAVVUl3/kvorMm0LW7kfEtWkP01iXl7AfY9NsX8MbLr6Ey/i6k+3i6IV6nFDQffhObXvo1CsPvwfTBMlR5BKYt+xny1/wcyxdkwKiqPtrQXquXdxuyovrMj+55ZLn8G1peNRyAJhdEbejNLTlsFOLik3HXwqmIjR2FoSYIx0A0Vj7vWbQue+0RrmXd8R4X7z7HG7R7DlHNEfZVlbgG9lVeMeUr5kV5pXs9uY5153rbE9Utn3nn9Xo/5FrgB+6lBa8nuWtRWVYJW9f9e9eUtGjZZ975u/Zy3ReOcz/A+NIfI6L10/ta7/4NDdO3h709KWgt/Qve36cgacIgqD3sVygwJKkD53e/jg3/9isUhWYjM94AQIH16DvY9MqL2LjpC9QqnATqfYH7i1TJgOip6/D8/1mN8WZAVSTEzf0l/nZ5FiLNgxET5oTD3vW7WqOmYrTxGI5WOKGqsvA8VZJgkKXODssypD70F4CS+wIOvfsaiurrULbnCJySBLfNgaCoAfC4ghARKcPeocIIN8zpjyF/zQqkDejczBpDguC22eBR7OiwGxESKguPaV5P8HfJqiohPOdZLMmLgSxHISzYBbuTH49pmDMwNuwkjtd0fhSrnT8ZtvZ2OBwdgOKE06VeeWhC3TlwutKDuHgZqgrETJqB6PI/451Nb+FovSI8r79QjcOR9WgerJ9vRGnXfz4kyn8RUf4DgBoyCmlZKYjsqo16agL9EAGOb3kAosxOtLcrwjVEb10KSluE+yZGQlYccDglyAb9bVyhtMPWYUJouAGSUo3Czb/Bpj/8Gm9tPQy3JPXcRrdrdd+vVxseSRbmhyiPAGhquCgXhG2IcsvugMEcBQPCkLrkWeTESjCMHA5X4at4+0//iZ210YiPlIVjIBor7/u1WhXhuizaI/S47nQbP9G4aPocJR5T0f2KcA3se4T7TkHMi+LH13rSG+vOtbTnTVgbBXknrAHXeW2HTf1Be2mfY2mMw6jkkQjtGktNTZF9553faw091EtvTicM5mhIcgTMIZ4r79U0dNaKm43xpTO+Ltdwr/XT+1rhe0mXonsPe7vFVycPGg8cgCN1JoYZ9e/nqRu98223Qw6PhCSbu+IHCJ2+Botn3AFZscHu0LEf6bZfIvohDLGxsf9sNBrh8fTejx9LkoKW8q+xe8en2LWzFoOmJcJ6YC9O1LgxOGchFtyXBrl8K74sqEKHGoTEuxdidP3n+OpoPVQJsDV7NOe5p6zD83/7MBIiIxA/aS6SPAdResYKdHtjEhQUBKfT2Wv30ZtMCQ/gvtGn8FVBNVyQ4GmyICp7EWZlTcfglp3Yeeg8WqsOorhwL0qLqxCWPBLtpaW4UOfAkNkrcHduLoY7C/DtrjNobtAea2tsu/r1is/DPfohLFu2AKOHDMWw5BREthSh4rQDw+Ysx4zsyYiq3o5dZZfg9vr1vlt5HHuTPPrBq8YnorkIlY0KwiYswATHLuyraO38igaunj83AEedFbF35+Pu3DyMcO7Dt7vPXPVJLdB/xlFEHjwRKWEVOHzYiLEzR6J5/16caYtG6uwHMGFcAqIigtB6uBAXo7XnnfP6jz5vx3E0pS/FwmmDYIrPxIQp6TDXFqPiyIGr8t9aWoqmRG0Ol1fYNPlvUyUYhs3Ggw8no63wIOrcghpTfB7OfprrvS2Q8S3HTULejFwkT5yIiDPbsLOsHh5J0qwhgL66ZO0Ixuh5S5GbnYXBlt3YXVQNZ+xkXW3IsRORNzMP4yfmIQnF2Ln7JNoFn+ordlEbkzTXdnjFc0RzEaqMmcK+dCdJgL26SJMfranaPDpnUTU1XE8uSBLgaLRr19ZWK8zTFmHujGzEtRdg9/7ziJ4yE3ec340T9R544rKQGnIIxyqNmjGwC34ZVzO/x+thb3Fr1mWH95p+6DzaLmnn1y6YSznj6nEJqymBa2zeVX1OCz2EksL9mjG91Hz1/e45UA2nYC9Rftyi7UuSdn4rG/vmG5W+XhtF+5tTJ1u0MSXYTzrTtHl1trJVmEO9se6I1kNRe9572svxJaqN3nz167quPXQe7c3anPXeS+ueh8tjOXI+Fi9Nh7WwCHVuSVtXD1ajVVADbKqOa4uq4RaM8zmL9gGip6UNkdmLMCdvKgbU7sDuIzWdc2gYhuRMM6oOVaADEjwWba0Q1bwbjfF1nfHVtWaJ3gNdfS3ganFp+tfm9R7WWlqKBsF+4XaLLzkuE6kRp/HdsZNwJCzARLkYJUX7/O7n+/L62Bu8x1E03x3yMKTMnYOJGVORMS0bQ93HUF5Wj8icpbg3bwqiajrjp6PFhfh7lmNWVhbiOwqwq+As7AMmIPvuPKROyEbm5HEwVZWgNly8v+4P+vqe5kbw9VyoO+9xlFJSUtTg4GA4HH3wB0i9hIeHw2q13uxu9Hkcx97BcewdHMfA4djefJwDolsP8zJwOLYUSIwvCiTGV+/gON5YHO/e4T2O/ee7tERERERERERERETXiQ9SiYiIiIiIiIiIiPzgg1QiIiIiIiIiIiIiP/gglYiIiIiIiIiIiMgPPkglIiIiIiIiIiIi8oMPUomIiIiIiIiIiIj8kFJSUtTg4GCERUTe7L4QERERERER9RsGg/Fmd4GIiK7BVVU7ISHhZvWDiIiIiIiIqN+oqqq62V0gIqJrxK/2ExEREREREREREfnBB6lEREREREREREREfvBBKhEREREREREREZEffJBKRERERERERERE5AcfpBIRERERERERERH5wQepRERERERERERERH7wQSoRERERERERERGRH8bu/6iqqrpZ/SAiIiIiIiIiIiK6ZV15kGprs9zMfhARERERERERERHdsowA4HA4bnY/iIiIiIiIiIiIiG5Z/I1UIiIiIiIiIiIiIj/+P32a1R1ujefpAAAAAElFTkSuQmCC;shadow=1;fontColor=#FF00FF;fontSize=19;" vertex="1" parent="1">
          <mxGeometry x="10" y="10" width="1362" height="552" as="geometry" />
        </mxCell>
        <mxCell id="VK70cnVyTzxQujreM_1K-2" value="Series, indexable, typÃ©e avec Numpy" style="rounded=1;whiteSpace=wrap;html=1;fillColor=none;fontColor=#33FFFF;strokeColor=#33FFFF;strokeWidth=3;fontSize=18;" vertex="1" parent="1">
          <mxGeometry x="307" y="21" width="85" height="530" as="geometry" />
        </mxCell>
      </root>
    </mxGraphModel>
  </diagram>
</mxfile>
